<ttFont>
    <TTGlyph name="A" xMin="-38" yMin="-123" xMax="1248" yMax="726">
      <contour>
        <pt x="775" y="272" on="1"/>
        <pt x="564" y="571" on="1"/>
        <pt x="348" y="272" on="1"/>
      </contour>
      <contour>
        <pt x="667" y="326" on="1"/>
        <pt x="455" y="326" on="1"/>
        <pt x="562" y="476" on="1"/>
      </contour>
      <contour>
        <pt x="924" y="55" on="1"/>
        <pt x="816" y="210" on="1"/>
        <pt x="305" y="210" on="1"/>
        <pt x="277" y="172" on="0"/>
        <pt x="224" y="93" on="0"/>
        <pt x="196" y="55" on="1"/>
        <pt x="116" y="55" on="1"/>
        <pt x="222" y="204" on="0"/>
        <pt x="433" y="496" on="0"/>
        <pt x="538" y="645" on="1"/>
        <pt x="586" y="645" on="1"/>
        <pt x="999" y="55" on="1"/>
      </contour>
      <contour>
        <pt x="511" y="701" on="1"/>
        <pt x="11" y="-1" on="1"/>
        <pt x="223" y="-1" on="1"/>
        <pt x="333" y="154" on="1"/>
        <pt x="785" y="154" on="1"/>
        <pt x="894" y="-1" on="1"/>
        <pt x="1106" y="-1" on="1"/>
        <pt x="616" y="701" on="1"/>
      </contour>
      <contour>
        <pt x="728" y="623" on="1"/>
        <pt x="1248" y="-123" on="1"/>
        <pt x="982" y="-123" on="1"/>
        <pt x="881" y="-26" on="1"/>
        <pt x="840" y="32" on="1"/>
        <pt x="445" y="32" on="1"/>
        <pt x="433" y="14" on="0"/>
        <pt x="404" y="-26" on="0"/>
        <pt x="375" y="-67" on="0"/>
        <pt x="347" y="-106" on="0"/>
        <pt x="335" y="-123" on="1"/>
        <pt x="68" y="-123" on="1"/>
        <pt x="-38" y="-26" on="1"/>
        <pt x="498" y="726" on="1"/>
        <pt x="629" y="726" on="1"/>
      </contour>
    </TTGlyph>
    <TTGlyph name="AE" xMin="-70" yMin="-123" xMax="1265" yMax="726">
      <contour>
        <pt x="507" y="540" on="1"/>
        <pt x="315" y="272" on="1"/>
        <pt x="507" y="272" on="1"/>
      </contour>
      <contour>
        <pt x="452" y="371" on="1"/>
        <pt x="452" y="326" on="1"/>
        <pt x="421" y="326" on="1"/>
      </contour>
      <contour>
        <pt x="984" y="380" on="1"/>
        <pt x="984" y="320" on="1"/>
        <pt x="569" y="320" on="1"/>
        <pt x="569" y="116" on="1"/>
        <pt x="1087" y="116" on="1"/>
        <pt x="1087" y="55" on="1"/>
        <pt x="507" y="55" on="1"/>
        <pt x="507" y="210" on="1"/>
        <pt x="273" y="210" on="1"/>
        <pt x="245" y="171" on="0"/>
        <pt x="191" y="93" on="0"/>
        <pt x="162" y="55" on="1"/>
        <pt x="85" y="55" on="1"/>
        <pt x="190" y="204" on="0"/>
        <pt x="400" y="496" on="0"/>
        <pt x="505" y="645" on="1"/>
        <pt x="1087" y="645" on="1"/>
        <pt x="1087" y="584" on="1"/>
        <pt x="569" y="584" on="1"/>
        <pt x="569" y="380" on="1"/>
      </contour>
      <contour>
        <pt x="1143" y="528" on="1"/>
        <pt x="1143" y="701" on="1"/>
        <pt x="479" y="701" on="1"/>
        <pt x="-21" y="-1" on="1"/>
        <pt x="190" y="-1" on="1"/>
        <pt x="298" y="154" on="1"/>
        <pt x="452" y="154" on="1"/>
        <pt x="452" y="-1" on="1"/>
        <pt x="1143" y="-1" on="1"/>
        <pt x="1143" y="172" on="1"/>
        <pt x="624" y="172" on="1"/>
        <pt x="624" y="265" on="1"/>
        <pt x="1039" y="265" on="1"/>
        <pt x="1039" y="435" on="1"/>
        <pt x="624" y="435" on="1"/>
        <pt x="624" y="528" on="1"/>
      </contour>
      <contour>
        <pt x="-70" y="-26" on="1"/>
        <pt x="466" y="726" on="1"/>
        <pt x="1168" y="726" on="1"/>
        <pt x="1265" y="623" on="1"/>
        <pt x="1265" y="406" on="1"/>
        <pt x="1112" y="406" on="1"/>
        <pt x="1161" y="357" on="1"/>
        <pt x="1161" y="197" on="1"/>
        <pt x="1168" y="197" on="1"/>
        <pt x="1265" y="94" on="1"/>
        <pt x="1265" y="-123" on="1"/>
        <pt x="530" y="-123" on="1"/>
        <pt x="427" y="-26" on="1"/>
        <pt x="427" y="32" on="1"/>
        <pt x="409" y="32" on="1"/>
        <pt x="302" y="-123" on="1"/>
        <pt x="36" y="-123" on="1"/>
      </contour>
    </TTGlyph>
    <TTGlyph name="Aacute" xMin="-38" yMin="-123" xMax="1248" yMax="940">
      <contour>
        <pt x="660" y="879" on="1"/>
        <pt x="628" y="856" on="0"/>
        <pt x="565" y="808" on="0"/>
        <pt x="533" y="785" on="1"/>
        <pt x="464" y="785" on="1"/>
        <pt x="590" y="879" on="1"/>
      </contour>
      <contour>
        <pt x="347" y="749" on="1"/>
        <pt x="550" y="749" on="1"/>
        <pt x="771" y="915" on="1"/>
        <pt x="563" y="915" on="1"/>
      </contour>
      <contour>
        <pt x="775" y="272" on="1"/>
        <pt x="564" y="571" on="1"/>
        <pt x="348" y="272" on="1"/>
      </contour>
      <contour>
        <pt x="667" y="326" on="1"/>
        <pt x="455" y="326" on="1"/>
        <pt x="562" y="476" on="1"/>
      </contour>
      <contour>
        <pt x="924" y="55" on="1"/>
        <pt x="816" y="210" on="1"/>
        <pt x="305" y="210" on="1"/>
        <pt x="277" y="172" on="0"/>
        <pt x="224" y="93" on="0"/>
        <pt x="196" y="55" on="1"/>
        <pt x="116" y="55" on="1"/>
        <pt x="222" y="204" on="0"/>
        <pt x="433" y="496" on="0"/>
        <pt x="538" y="645" on="1"/>
        <pt x="586" y="645" on="1"/>
        <pt x="999" y="55" on="1"/>
      </contour>
      <contour>
        <pt x="511" y="701" on="1"/>
        <pt x="11" y="-1" on="1"/>
        <pt x="223" y="-1" on="1"/>
        <pt x="333" y="154" on="1"/>
        <pt x="785" y="154" on="1"/>
        <pt x="894" y="-1" on="1"/>
        <pt x="1106" y="-1" on="1"/>
        <pt x="616" y="701" on="1"/>
      </contour>
      <contour>
        <pt x="846" y="940" on="1"/>
        <pt x="937" y="837" on="1"/>
        <pt x="695" y="655" on="1"/>
        <pt x="728" y="623" on="1"/>
        <pt x="1248" y="-123" on="1"/>
        <pt x="982" y="-123" on="1"/>
        <pt x="881" y="-26" on="1"/>
        <pt x="840" y="32" on="1"/>
        <pt x="445" y="32" on="1"/>
        <pt x="433" y="14" on="0"/>
        <pt x="404" y="-26" on="0"/>
        <pt x="375" y="-67" on="0"/>
        <pt x="347" y="-106" on="0"/>
        <pt x="335" y="-123" on="1"/>
        <pt x="68" y="-123" on="1"/>
        <pt x="-38" y="-26" on="1"/>
        <pt x="427" y="627" on="1"/>
        <pt x="383" y="627" on="1"/>
        <pt x="274" y="724" on="1"/>
        <pt x="556" y="940" on="1"/>
      </contour>
    </TTGlyph>
    <TTGlyph name="Acircumflex" xMin="-38" yMin="-123" xMax="1248" yMax="974">
      <contour>
        <pt x="591" y="901" on="1"/>
        <pt x="633" y="872" on="0"/>
        <pt x="715" y="815" on="0"/>
        <pt x="757" y="786" on="1"/>
        <pt x="701" y="786" on="1"/>
        <pt x="569" y="870" on="1"/>
        <pt x="436" y="786" on="1"/>
        <pt x="381" y="786" on="1"/>
        <pt x="547" y="901" on="1"/>
      </contour>
      <contour>
        <pt x="237" y="751" on="1"/>
        <pt x="465" y="751" on="1"/>
        <pt x="569" y="821" on="1"/>
        <pt x="672" y="751" on="1"/>
        <pt x="900" y="751" on="1"/>
        <pt x="606" y="949" on="1"/>
        <pt x="532" y="949" on="1"/>
      </contour>
      <contour>
        <pt x="775" y="272" on="1"/>
        <pt x="564" y="571" on="1"/>
        <pt x="348" y="272" on="1"/>
      </contour>
      <contour>
        <pt x="667" y="326" on="1"/>
        <pt x="455" y="326" on="1"/>
        <pt x="562" y="476" on="1"/>
      </contour>
      <contour>
        <pt x="924" y="55" on="1"/>
        <pt x="816" y="210" on="1"/>
        <pt x="305" y="210" on="1"/>
        <pt x="277" y="172" on="0"/>
        <pt x="224" y="93" on="0"/>
        <pt x="196" y="55" on="1"/>
        <pt x="116" y="55" on="1"/>
        <pt x="222" y="204" on="0"/>
        <pt x="433" y="496" on="0"/>
        <pt x="538" y="645" on="1"/>
        <pt x="586" y="645" on="1"/>
        <pt x="999" y="55" on="1"/>
      </contour>
      <contour>
        <pt x="511" y="701" on="1"/>
        <pt x="11" y="-1" on="1"/>
        <pt x="223" y="-1" on="1"/>
        <pt x="333" y="154" on="1"/>
        <pt x="785" y="154" on="1"/>
        <pt x="894" y="-1" on="1"/>
        <pt x="1106" y="-1" on="1"/>
        <pt x="616" y="701" on="1"/>
      </contour>
      <contour>
        <pt x="613" y="974" on="1"/>
        <pt x="980" y="726" on="1"/>
        <pt x="1071" y="629" on="1"/>
        <pt x="766" y="629" on="1"/>
        <pt x="724" y="629" on="1"/>
        <pt x="1248" y="-123" on="1"/>
        <pt x="982" y="-123" on="1"/>
        <pt x="881" y="-26" on="1"/>
        <pt x="840" y="32" on="1"/>
        <pt x="445" y="32" on="1"/>
        <pt x="433" y="14" on="0"/>
        <pt x="404" y="-26" on="0"/>
        <pt x="375" y="-67" on="0"/>
        <pt x="347" y="-106" on="0"/>
        <pt x="335" y="-123" on="1"/>
        <pt x="68" y="-123" on="1"/>
        <pt x="-38" y="-26" on="1"/>
        <pt x="429" y="629" on="1"/>
        <pt x="266" y="629" on="1"/>
        <pt x="156" y="726" on="1"/>
        <pt x="525" y="974" on="1"/>
      </contour>
    </TTGlyph>
    <TTGlyph name="Adieresis" xMin="-38" yMin="-123" xMax="1248" yMax="943">
      <contour>
        <pt x="657" y="863" on="1"/>
        <pt x="720" y="863" on="1"/>
        <pt x="720" y="806" on="1"/>
        <pt x="657" y="806" on="1"/>
      </contour>
      <contour>
        <pt x="776" y="918" on="1"/>
        <pt x="601" y="918" on="1"/>
        <pt x="601" y="751" on="1"/>
        <pt x="776" y="751" on="1"/>
      </contour>
      <contour>
        <pt x="415" y="863" on="1"/>
        <pt x="478" y="863" on="1"/>
        <pt x="478" y="806" on="1"/>
        <pt x="415" y="806" on="1"/>
      </contour>
      <contour>
        <pt x="533" y="918" on="1"/>
        <pt x="359" y="918" on="1"/>
        <pt x="359" y="751" on="1"/>
        <pt x="533" y="751" on="1"/>
      </contour>
      <contour>
        <pt x="775" y="272" on="1"/>
        <pt x="564" y="571" on="1"/>
        <pt x="348" y="272" on="1"/>
      </contour>
      <contour>
        <pt x="667" y="326" on="1"/>
        <pt x="455" y="326" on="1"/>
        <pt x="562" y="476" on="1"/>
      </contour>
      <contour>
        <pt x="924" y="55" on="1"/>
        <pt x="816" y="210" on="1"/>
        <pt x="305" y="210" on="1"/>
        <pt x="277" y="172" on="0"/>
        <pt x="224" y="93" on="0"/>
        <pt x="196" y="55" on="1"/>
        <pt x="116" y="55" on="1"/>
        <pt x="222" y="204" on="0"/>
        <pt x="433" y="496" on="0"/>
        <pt x="538" y="645" on="1"/>
        <pt x="586" y="645" on="1"/>
        <pt x="999" y="55" on="1"/>
      </contour>
      <contour>
        <pt x="511" y="701" on="1"/>
        <pt x="11" y="-1" on="1"/>
        <pt x="223" y="-1" on="1"/>
        <pt x="333" y="154" on="1"/>
        <pt x="785" y="154" on="1"/>
        <pt x="894" y="-1" on="1"/>
        <pt x="1106" y="-1" on="1"/>
        <pt x="616" y="701" on="1"/>
      </contour>
      <contour>
        <pt x="-38" y="-26" on="1"/>
        <pt x="432" y="634" on="1"/>
        <pt x="334" y="726" on="1"/>
        <pt x="334" y="943" on="1"/>
        <pt x="558" y="943" on="1"/>
        <pt x="576" y="919" on="1"/>
        <pt x="576" y="943" on="1"/>
        <pt x="801" y="943" on="1"/>
        <pt x="898" y="840" on="1"/>
        <pt x="898" y="629" on="1"/>
        <pt x="722" y="629" on="1"/>
        <pt x="728" y="623" on="1"/>
        <pt x="1248" y="-123" on="1"/>
        <pt x="982" y="-123" on="1"/>
        <pt x="881" y="-26" on="1"/>
        <pt x="840" y="32" on="1"/>
        <pt x="445" y="32" on="1"/>
        <pt x="433" y="14" on="0"/>
        <pt x="404" y="-26" on="0"/>
        <pt x="375" y="-67" on="0"/>
        <pt x="347" y="-106" on="0"/>
        <pt x="335" y="-123" on="1"/>
        <pt x="68" y="-123" on="1"/>
      </contour>
    </TTGlyph>
    <TTGlyph name="Agrave" xMin="-38" yMin="-123" xMax="1248" yMax="940">
      <contour>
        <pt x="654" y="785" on="1"/>
        <pt x="585" y="785" on="1"/>
        <pt x="553" y="808" on="0"/>
        <pt x="490" y="856" on="0"/>
        <pt x="458" y="879" on="1"/>
        <pt x="528" y="879" on="1"/>
      </contour>
      <contour>
        <pt x="568" y="749" on="1"/>
        <pt x="771" y="749" on="1"/>
        <pt x="555" y="915" on="1"/>
        <pt x="347" y="915" on="1"/>
      </contour>
      <contour>
        <pt x="775" y="272" on="1"/>
        <pt x="564" y="571" on="1"/>
        <pt x="348" y="272" on="1"/>
      </contour>
      <contour>
        <pt x="667" y="326" on="1"/>
        <pt x="455" y="326" on="1"/>
        <pt x="562" y="476" on="1"/>
      </contour>
      <contour>
        <pt x="924" y="55" on="1"/>
        <pt x="816" y="210" on="1"/>
        <pt x="305" y="210" on="1"/>
        <pt x="277" y="172" on="0"/>
        <pt x="224" y="93" on="0"/>
        <pt x="196" y="55" on="1"/>
        <pt x="116" y="55" on="1"/>
        <pt x="222" y="204" on="0"/>
        <pt x="433" y="496" on="0"/>
        <pt x="538" y="645" on="1"/>
        <pt x="586" y="645" on="1"/>
        <pt x="999" y="55" on="1"/>
      </contour>
      <contour>
        <pt x="511" y="701" on="1"/>
        <pt x="11" y="-1" on="1"/>
        <pt x="223" y="-1" on="1"/>
        <pt x="333" y="154" on="1"/>
        <pt x="785" y="154" on="1"/>
        <pt x="894" y="-1" on="1"/>
        <pt x="1106" y="-1" on="1"/>
        <pt x="616" y="701" on="1"/>
      </contour>
      <contour>
        <pt x="562" y="940" on="1"/>
        <pt x="843" y="724" on="1"/>
        <pt x="935" y="627" on="1"/>
        <pt x="724" y="627" on="1"/>
        <pt x="1248" y="-123" on="1"/>
        <pt x="982" y="-123" on="1"/>
        <pt x="881" y="-26" on="1"/>
        <pt x="840" y="32" on="1"/>
        <pt x="445" y="32" on="1"/>
        <pt x="433" y="14" on="0"/>
        <pt x="404" y="-26" on="0"/>
        <pt x="375" y="-67" on="0"/>
        <pt x="347" y="-106" on="0"/>
        <pt x="335" y="-123" on="1"/>
        <pt x="68" y="-123" on="1"/>
        <pt x="-38" y="-26" on="1"/>
        <pt x="498" y="726" on="1"/>
        <pt x="528" y="726" on="1"/>
        <pt x="259" y="940" on="1"/>
      </contour>
    </TTGlyph>
    <TTGlyph name="Aring" xMin="-38" yMin="-123" xMax="1248" yMax="1005">
      <contour>
        <pt x="512" y="851" on="1"/>
        <pt x="512" y="806" on="0"/>
        <pt x="558" y="806" on="1"/>
        <pt x="581" y="806" on="0"/>
        <pt x="606" y="826" on="0"/>
        <pt x="606" y="851" on="1"/>
        <pt x="606" y="876" on="0"/>
        <pt x="581" y="896" on="0"/>
        <pt x="558" y="896" on="1"/>
        <pt x="512" y="896" on="0"/>
      </contour>
      <contour>
        <pt x="479" y="852" on="1"/>
        <pt x="479" y="890" on="0"/>
        <pt x="522" y="926" on="0"/>
        <pt x="558" y="926" on="1"/>
        <pt x="595" y="926" on="0"/>
        <pt x="641" y="892" on="0"/>
        <pt x="641" y="852" on="1"/>
        <pt x="641" y="812" on="0"/>
        <pt x="598" y="779" on="0"/>
        <pt x="561" y="779" on="1"/>
        <pt x="524" y="779" on="0"/>
        <pt x="479" y="811" on="0"/>
      </contour>
      <contour>
        <pt x="423" y="852" on="1"/>
        <pt x="423" y="783" on="0"/>
        <pt x="494" y="725" on="0"/>
        <pt x="558" y="725" on="1"/>
        <pt x="622" y="725" on="0"/>
        <pt x="697" y="781" on="0"/>
        <pt x="697" y="852" on="1"/>
        <pt x="697" y="919" on="0"/>
        <pt x="624" y="980" on="0"/>
        <pt x="561" y="980" on="1"/>
        <pt x="498" y="980" on="0"/>
        <pt x="423" y="921" on="0"/>
      </contour>
      <contour>
        <pt x="775" y="272" on="1"/>
        <pt x="564" y="571" on="1"/>
        <pt x="348" y="272" on="1"/>
      </contour>
      <contour>
        <pt x="667" y="326" on="1"/>
        <pt x="455" y="326" on="1"/>
        <pt x="562" y="476" on="1"/>
      </contour>
      <contour>
        <pt x="924" y="55" on="1"/>
        <pt x="816" y="210" on="1"/>
        <pt x="305" y="210" on="1"/>
        <pt x="277" y="172" on="0"/>
        <pt x="224" y="93" on="0"/>
        <pt x="196" y="55" on="1"/>
        <pt x="116" y="55" on="1"/>
        <pt x="222" y="204" on="0"/>
        <pt x="433" y="496" on="0"/>
        <pt x="538" y="645" on="1"/>
        <pt x="586" y="645" on="1"/>
        <pt x="999" y="55" on="1"/>
      </contour>
      <contour>
        <pt x="511" y="701" on="1"/>
        <pt x="11" y="-1" on="1"/>
        <pt x="223" y="-1" on="1"/>
        <pt x="333" y="154" on="1"/>
        <pt x="785" y="154" on="1"/>
        <pt x="894" y="-1" on="1"/>
        <pt x="1106" y="-1" on="1"/>
        <pt x="616" y="701" on="1"/>
      </contour>
      <contour>
        <pt x="398" y="852" on="1"/>
        <pt x="398" y="934" on="0"/>
        <pt x="486" y="1005" on="0"/>
        <pt x="561" y="1005" on="1"/>
        <pt x="585" y="1005" on="0"/>
        <pt x="627" y="1001" on="0"/>
        <pt x="675" y="977" on="0"/>
        <pt x="734" y="926" on="0"/>
        <pt x="775" y="880" on="1"/>
        <pt x="793" y="862" on="0"/>
        <pt x="819" y="789" on="0"/>
        <pt x="819" y="752" on="1"/>
        <pt x="819" y="693" on="0"/>
        <pt x="775" y="627" on="0"/>
        <pt x="734" y="613" on="1"/>
        <pt x="1248" y="-123" on="1"/>
        <pt x="982" y="-123" on="1"/>
        <pt x="881" y="-26" on="1"/>
        <pt x="840" y="32" on="1"/>
        <pt x="445" y="32" on="1"/>
        <pt x="433" y="14" on="0"/>
        <pt x="404" y="-26" on="0"/>
        <pt x="375" y="-67" on="0"/>
        <pt x="347" y="-106" on="0"/>
        <pt x="335" y="-123" on="1"/>
        <pt x="68" y="-123" on="1"/>
        <pt x="-38" y="-26" on="1"/>
        <pt x="479" y="699" on="1"/>
        <pt x="458" y="721" on="1"/>
        <pt x="429" y="738" on="0"/>
        <pt x="398" y="802" on="0"/>
      </contour>
    </TTGlyph>
    <TTGlyph name="Atilde" xMin="-38" yMin="-123" xMax="1248" yMax="982">
      <contour>
        <pt x="787" y="876" on="1"/>
        <pt x="776" y="864" on="0"/>
        <pt x="745" y="832" on="0"/>
        <pt x="709" y="805" on="0"/>
        <pt x="671" y="786" on="0"/>
        <pt x="654" y="786" on="1"/>
        <pt x="622" y="786" on="0"/>
        <pt x="578" y="809" on="0"/>
        <pt x="541" y="838" on="0"/>
        <pt x="507" y="861" on="0"/>
        <pt x="486" y="861" on="1"/>
        <pt x="464" y="861" on="0"/>
        <pt x="434" y="830" on="0"/>
        <pt x="423" y="814" on="1"/>
        <pt x="354" y="814" on="1"/>
        <pt x="365" y="826" on="0"/>
        <pt x="397" y="856" on="0"/>
        <pt x="433" y="883" on="0"/>
        <pt x="471" y="902" on="0"/>
        <pt x="488" y="902" on="1"/>
        <pt x="522" y="902" on="0"/>
        <pt x="566" y="879" on="0"/>
        <pt x="600" y="852" on="0"/>
        <pt x="633" y="830" on="0"/>
        <pt x="656" y="830" on="1"/>
        <pt x="677" y="830" on="0"/>
        <pt x="708" y="860" on="0"/>
        <pt x="719" y="876" on="1"/>
      </contour>
      <contour>
        <pt x="700" y="931" on="1"/>
        <pt x="698" y="926" on="0"/>
        <pt x="690" y="911" on="0"/>
        <pt x="678" y="896" on="0"/>
        <pt x="664" y="885" on="0"/>
        <pt x="656" y="885" on="1"/>
        <pt x="641" y="885" on="0"/>
        <pt x="606" y="907" on="0"/>
        <pt x="564" y="934" on="0"/>
        <pt x="516" y="957" on="0"/>
        <pt x="488" y="957" on="1"/>
        <pt x="453" y="957" on="0"/>
        <pt x="385" y="916" on="0"/>
        <pt x="326" y="856" on="0"/>
        <pt x="279" y="787" on="0"/>
        <pt x="264" y="759" on="1"/>
        <pt x="457" y="759" on="1"/>
        <pt x="462" y="770" on="0"/>
        <pt x="483" y="799" on="0"/>
        <pt x="497" y="799" on="1"/>
        <pt x="505" y="799" on="0"/>
        <pt x="529" y="780" on="0"/>
        <pt x="566" y="757" on="0"/>
        <pt x="618" y="738" on="0"/>
        <pt x="654" y="738" on="1"/>
        <pt x="689" y="738" on="0"/>
        <pt x="756" y="777" on="0"/>
        <pt x="815" y="835" on="0"/>
        <pt x="863" y="902" on="0"/>
        <pt x="878" y="931" on="1"/>
        <pt x="702" y="931" on="1"/>
      </contour>
      <contour>
        <pt x="775" y="272" on="1"/>
        <pt x="564" y="571" on="1"/>
        <pt x="348" y="272" on="1"/>
      </contour>
      <contour>
        <pt x="667" y="326" on="1"/>
        <pt x="455" y="326" on="1"/>
        <pt x="562" y="476" on="1"/>
      </contour>
      <contour>
        <pt x="924" y="55" on="1"/>
        <pt x="816" y="210" on="1"/>
        <pt x="305" y="210" on="1"/>
        <pt x="277" y="172" on="0"/>
        <pt x="224" y="93" on="0"/>
        <pt x="196" y="55" on="1"/>
        <pt x="116" y="55" on="1"/>
        <pt x="222" y="204" on="0"/>
        <pt x="433" y="496" on="0"/>
        <pt x="538" y="645" on="1"/>
        <pt x="586" y="645" on="1"/>
        <pt x="999" y="55" on="1"/>
      </contour>
      <contour>
        <pt x="511" y="701" on="1"/>
        <pt x="11" y="-1" on="1"/>
        <pt x="223" y="-1" on="1"/>
        <pt x="333" y="154" on="1"/>
        <pt x="785" y="154" on="1"/>
        <pt x="894" y="-1" on="1"/>
        <pt x="1106" y="-1" on="1"/>
        <pt x="616" y="701" on="1"/>
      </contour>
      <contour>
        <pt x="919" y="956" on="1"/>
        <pt x="1014" y="853" on="1"/>
        <pt x="995" y="818" on="0"/>
        <pt x="937" y="731" on="0"/>
        <pt x="864" y="657" on="0"/>
        <pt x="778" y="611" on="0"/>
        <pt x="732" y="617" on="1"/>
        <pt x="1248" y="-123" on="1"/>
        <pt x="982" y="-123" on="1"/>
        <pt x="881" y="-26" on="1"/>
        <pt x="840" y="32" on="1"/>
        <pt x="445" y="32" on="1"/>
        <pt x="433" y="14" on="0"/>
        <pt x="404" y="-26" on="0"/>
        <pt x="375" y="-67" on="0"/>
        <pt x="347" y="-106" on="0"/>
        <pt x="335" y="-123" on="1"/>
        <pt x="68" y="-123" on="1"/>
        <pt x="-38" y="-26" on="1"/>
        <pt x="434" y="637" on="1"/>
        <pt x="328" y="637" on="1"/>
        <pt x="223" y="734" on="1"/>
        <pt x="241" y="770" on="0"/>
        <pt x="299" y="856" on="0"/>
        <pt x="369" y="931" on="0"/>
        <pt x="448" y="982" on="0"/>
        <pt x="488" y="982" on="1"/>
        <pt x="525" y="982" on="0"/>
        <pt x="586" y="950" on="0"/>
        <pt x="612" y="933" on="1"/>
        <pt x="626" y="924" on="0"/>
        <pt x="643" y="912" on="0"/>
        <pt x="651" y="912" on="1"/>
        <pt x="656" y="913" on="0"/>
        <pt x="666" y="927" on="0"/>
        <pt x="670" y="935" on="1"/>
        <pt x="674" y="945" on="0"/>
        <pt x="679" y="956" on="1"/>
      </contour>
    </TTGlyph>
    <TTGlyph name="B" xMin="7" yMin="-123" xMax="1001" yMax="726">
      <contour>
        <pt x="575" y="380" on="1"/>
        <pt x="599" y="380" on="0"/>
        <pt x="645" y="391" on="0"/>
        <pt x="682" y="415" on="0"/>
        <pt x="704" y="454" on="0"/>
        <pt x="704" y="481" on="1"/>
        <pt x="704" y="509" on="0"/>
        <pt x="683" y="548" on="0"/>
        <pt x="647" y="573" on="0"/>
        <pt x="601" y="584" on="0"/>
        <pt x="576" y="584" on="1"/>
        <pt x="148" y="584" on="1"/>
        <pt x="148" y="380" on="1"/>
      </contour>
      <contour>
        <pt x="576" y="528" on="1"/>
        <pt x="587" y="528" on="0"/>
        <pt x="613" y="524" on="0"/>
        <pt x="635" y="513" on="0"/>
        <pt x="649" y="495" on="0"/>
        <pt x="649" y="481" on="1"/>
        <pt x="649" y="467" on="0"/>
        <pt x="634" y="450" on="0"/>
        <pt x="611" y="439" on="0"/>
        <pt x="585" y="435" on="0"/>
        <pt x="575" y="435" on="1"/>
        <pt x="204" y="435" on="1"/>
        <pt x="204" y="528" on="1"/>
      </contour>
      <contour>
        <pt x="629" y="116" on="1"/>
        <pt x="653" y="116" on="0"/>
        <pt x="701" y="127" on="0"/>
        <pt x="738" y="152" on="0"/>
        <pt x="761" y="191" on="0"/>
        <pt x="761" y="219" on="1"/>
        <pt x="761" y="244" on="0"/>
        <pt x="741" y="282" on="0"/>
        <pt x="707" y="307" on="0"/>
        <pt x="664" y="320" on="0"/>
        <pt x="641" y="320" on="1"/>
        <pt x="148" y="320" on="1"/>
        <pt x="148" y="116" on="1"/>
      </contour>
      <contour>
        <pt x="641" y="265" on="1"/>
        <pt x="651" y="265" on="0"/>
        <pt x="674" y="260" on="0"/>
        <pt x="693" y="249" on="0"/>
        <pt x="705" y="231" on="0"/>
        <pt x="705" y="219" on="1"/>
        <pt x="705" y="204" on="0"/>
        <pt x="690" y="186" on="0"/>
        <pt x="667" y="176" on="0"/>
        <pt x="640" y="172" on="0"/>
        <pt x="629" y="172" on="1"/>
        <pt x="204" y="172" on="1"/>
        <pt x="204" y="265" on="1"/>
      </contour>
      <contour>
        <pt x="576" y="645" on="1"/>
        <pt x="617" y="645" on="0"/>
        <pt x="687" y="627" on="0"/>
        <pt x="738" y="587" on="0"/>
        <pt x="767" y="525" on="0"/>
        <pt x="768" y="481" on="1"/>
        <pt x="768" y="457" on="0"/>
        <pt x="747" y="414" on="0"/>
        <pt x="717" y="382" on="0"/>
        <pt x="683" y="363" on="0"/>
        <pt x="671" y="362" on="1"/>
        <pt x="698" y="360" on="0"/>
        <pt x="752" y="337" on="0"/>
        <pt x="795" y="299" on="0"/>
        <pt x="823" y="249" on="0"/>
        <pt x="823" y="219" on="1"/>
        <pt x="823" y="174" on="0"/>
        <pt x="793" y="111" on="0"/>
        <pt x="740" y="72" on="0"/>
        <pt x="669" y="55" on="0"/>
        <pt x="629" y="55" on="1"/>
        <pt x="88" y="55" on="1"/>
        <pt x="88" y="645" on="1"/>
      </contour>
      <contour>
        <pt x="629" y="-1" on="1"/>
        <pt x="683" y="-1" on="0"/>
        <pt x="775" y="24" on="0"/>
        <pt x="841" y="77" on="0"/>
        <pt x="879" y="160" on="0"/>
        <pt x="879" y="219" on="1"/>
        <pt x="879" y="269" on="0"/>
        <pt x="824" y="347" on="0"/>
        <pt x="769" y="370" on="1"/>
        <pt x="781" y="380" on="0"/>
        <pt x="801" y="407" on="0"/>
        <pt x="815" y="437" on="0"/>
        <pt x="823" y="468" on="0"/>
        <pt x="823" y="481" on="1"/>
        <pt x="823" y="538" on="0"/>
        <pt x="787" y="621" on="0"/>
        <pt x="722" y="675" on="0"/>
        <pt x="631" y="701" on="0"/>
        <pt x="576" y="701" on="1"/>
        <pt x="32" y="701" on="1"/>
        <pt x="32" y="-1" on="1"/>
      </contour>
      <contour>
        <pt x="7" y="726" on="1"/>
        <pt x="576" y="726" on="1"/>
        <pt x="666" y="726" on="0"/>
        <pt x="812" y="666" on="0"/>
        <pt x="875" y="591" on="1"/>
        <pt x="896" y="566" on="0"/>
        <pt x="930" y="493" on="0"/>
        <pt x="944" y="414" on="0"/>
        <pt x="931" y="338" on="0"/>
        <pt x="905" y="311" on="1"/>
        <pt x="931" y="301" on="0"/>
        <pt x="967" y="254" on="0"/>
        <pt x="990" y="198" on="0"/>
        <pt x="1001" y="140" on="0"/>
        <pt x="1001" y="119" on="1"/>
        <pt x="1001" y="54" on="0"/>
        <pt x="960" y="-37" on="0"/>
        <pt x="888" y="-96" on="0"/>
        <pt x="788" y="-123" on="0"/>
        <pt x="729" y="-123" on="1"/>
        <pt x="110" y="-123" on="1"/>
        <pt x="7" y="-26" on="1"/>
      </contour>
    </TTGlyph>
    <TTGlyph name="C" xMin="10" yMin="-123" xMax="1063" yMax="726">
      <contour>
        <pt x="431" y="584" on="1"/>
        <pt x="372" y="584" on="0"/>
        <pt x="271" y="559" on="0"/>
        <pt x="197" y="504" on="0"/>
        <pt x="154" y="414" on="0"/>
        <pt x="154" y="350" on="1"/>
        <pt x="154" y="285" on="0"/>
        <pt x="197" y="196" on="0"/>
        <pt x="271" y="140" on="0"/>
        <pt x="372" y="116" on="0"/>
        <pt x="431" y="116" on="1"/>
        <pt x="540" y="116" on="1"/>
        <pt x="610" y="116" on="0"/>
        <pt x="743" y="159" on="0"/>
        <pt x="791" y="213" on="1"/>
        <pt x="855" y="173" on="1"/>
        <pt x="827" y="134" on="0"/>
        <pt x="755" y="87" on="0"/>
        <pt x="673" y="63" on="0"/>
        <pt x="584" y="55" on="0"/>
        <pt x="540" y="55" on="1"/>
        <pt x="431" y="55" on="1"/>
        <pt x="358" y="55" on="0"/>
        <pt x="233" y="86" on="0"/>
        <pt x="142" y="157" on="0"/>
        <pt x="91" y="269" on="0"/>
        <pt x="91" y="350" on="1"/>
        <pt x="91" y="431" on="0"/>
        <pt x="142" y="543" on="0"/>
        <pt x="233" y="614" on="0"/>
        <pt x="358" y="645" on="0"/>
        <pt x="431" y="645" on="1"/>
        <pt x="540" y="645" on="1"/>
        <pt x="584" y="645" on="0"/>
        <pt x="673" y="637" on="0"/>
        <pt x="755" y="613" on="0"/>
        <pt x="827" y="566" on="0"/>
        <pt x="855" y="527" on="1"/>
        <pt x="791" y="487" on="1"/>
        <pt x="743" y="541" on="0"/>
        <pt x="610" y="584" on="0"/>
        <pt x="540" y="584" on="1"/>
      </contour>
      <contour>
        <pt x="540" y="528" on="1"/>
        <pt x="612" y="528" on="0"/>
        <pt x="732" y="475" on="0"/>
        <pt x="774" y="415" on="1"/>
        <pt x="933" y="509" on="1"/>
        <pt x="899" y="567" on="0"/>
        <pt x="815" y="642" on="0"/>
        <pt x="716" y="685" on="0"/>
        <pt x="603" y="701" on="0"/>
        <pt x="540" y="701" on="1"/>
        <pt x="431" y="701" on="1"/>
        <pt x="344" y="701" on="0"/>
        <pt x="199" y="662" on="0"/>
        <pt x="94" y="578" on="0"/>
        <pt x="35" y="445" on="0"/>
        <pt x="35" y="350" on="1"/>
        <pt x="35" y="255" on="0"/>
        <pt x="94" y="122" on="0"/>
        <pt x="199" y="38" on="0"/>
        <pt x="344" y="-1" on="0"/>
        <pt x="431" y="-1" on="1"/>
        <pt x="540" y="-1" on="1"/>
        <pt x="603" y="-1" on="0"/>
        <pt x="716" y="15" on="0"/>
        <pt x="815" y="58" on="0"/>
        <pt x="899" y="132" on="0"/>
        <pt x="933" y="191" on="1"/>
        <pt x="774" y="285" on="1"/>
        <pt x="732" y="225" on="0"/>
        <pt x="612" y="172" on="0"/>
        <pt x="540" y="172" on="1"/>
        <pt x="431" y="172" on="1"/>
        <pt x="386" y="172" on="0"/>
        <pt x="306" y="190" on="0"/>
        <pt x="246" y="231" on="0"/>
        <pt x="210" y="299" on="0"/>
        <pt x="210" y="350" on="1"/>
        <pt x="210" y="400" on="0"/>
        <pt x="246" y="468" on="0"/>
        <pt x="307" y="510" on="0"/>
        <pt x="387" y="528" on="0"/>
        <pt x="431" y="528" on="1"/>
      </contour>
      <contour>
        <pt x="185" y="-14" on="1"/>
        <pt x="128" y="36" on="0"/>
        <pt x="60" y="123" on="0"/>
        <pt x="22" y="208" on="0"/>
        <pt x="10" y="298" on="0"/>
        <pt x="10" y="350" on="1"/>
        <pt x="10" y="452" on="0"/>
        <pt x="72" y="595" on="0"/>
        <pt x="184" y="685" on="0"/>
        <pt x="339" y="726" on="0"/>
        <pt x="431" y="726" on="1"/>
        <pt x="540" y="726" on="1"/>
        <pt x="597" y="726" on="0"/>
        <pt x="702" y="717" on="0"/>
        <pt x="806" y="677" on="0"/>
        <pt x="914" y="597" on="0"/>
        <pt x="976" y="526" on="1"/>
        <pt x="986" y="515" on="0"/>
        <pt x="1010" y="485" on="0"/>
        <pt x="1032" y="451" on="0"/>
        <pt x="1054" y="416" on="0"/>
        <pt x="1063" y="401" on="1"/>
        <pt x="868" y="286" on="1"/>
        <pt x="792" y="362" on="1"/>
        <pt x="757" y="385" on="0"/>
        <pt x="681" y="406" on="0"/>
        <pt x="640" y="406" on="1"/>
        <pt x="531" y="406" on="1"/>
        <pt x="491" y="406" on="0"/>
        <pt x="419" y="390" on="0"/>
        <pt x="364" y="354" on="0"/>
        <pt x="332" y="294" on="0"/>
        <pt x="332" y="250" on="1"/>
        <pt x="332" y="226" on="0"/>
        <pt x="336" y="210" on="1"/>
        <pt x="357" y="203" on="0"/>
        <pt x="405" y="197" on="0"/>
        <pt x="431" y="197" on="1"/>
        <pt x="540" y="197" on="1"/>
        <pt x="606" y="197" on="0"/>
        <pt x="723" y="253" on="0"/>
        <pt x="768" y="318" on="1"/>
        <pt x="968" y="200" on="1"/>
        <pt x="1063" y="99" on="1"/>
        <pt x="1023" y="31" on="0"/>
        <pt x="930" y="-55" on="0"/>
        <pt x="824" y="-104" on="0"/>
        <pt x="706" y="-123" on="0"/>
        <pt x="640" y="-123" on="1"/>
        <pt x="531" y="-123" on="1"/>
        <pt x="480" y="-123" on="0"/>
        <pt x="381" y="-110" on="0"/>
        <pt x="290" y="-83" on="0"/>
        <pt x="213" y="-42" on="0"/>
      </contour>
    </TTGlyph>
    <TTGlyph name="Ccedilla" xMin="10" yMin="-379" xMax="1063" yMax="726">
      <contour>
        <pt x="536" y="-54" on="1"/>
        <pt x="554" y="-54" on="0"/>
        <pt x="590" y="-59" on="0"/>
        <pt x="620" y="-73" on="0"/>
        <pt x="639" y="-100" on="0"/>
        <pt x="639" y="-122" on="1"/>
        <pt x="639" y="-156" on="0"/>
        <pt x="597" y="-191" on="0"/>
        <pt x="538" y="-207" on="0"/>
        <pt x="473" y="-209" on="0"/>
        <pt x="450" y="-209" on="1"/>
        <pt x="450" y="-169" on="1"/>
        <pt x="462" y="-169" on="0"/>
        <pt x="508" y="-169" on="0"/>
        <pt x="554" y="-162" on="0"/>
        <pt x="588" y="-144" on="0"/>
        <pt x="588" y="-127" on="1"/>
        <pt x="588" y="-111" on="0"/>
        <pt x="555" y="-97" on="0"/>
        <pt x="512" y="-94" on="0"/>
        <pt x="468" y="-96" on="0"/>
        <pt x="457" y="-96" on="1"/>
        <pt x="457" y="54" on="1"/>
        <pt x="382" y="57" on="0"/>
        <pt x="248" y="82" on="0"/>
        <pt x="149" y="147" on="0"/>
        <pt x="91" y="260" on="0"/>
        <pt x="91" y="350" on="1"/>
        <pt x="91" y="431" on="0"/>
        <pt x="142" y="543" on="0"/>
        <pt x="233" y="614" on="0"/>
        <pt x="358" y="645" on="0"/>
        <pt x="431" y="645" on="1"/>
        <pt x="540" y="645" on="1"/>
        <pt x="584" y="645" on="0"/>
        <pt x="673" y="637" on="0"/>
        <pt x="755" y="613" on="0"/>
        <pt x="827" y="566" on="0"/>
        <pt x="855" y="527" on="1"/>
        <pt x="838" y="518" on="0"/>
        <pt x="807" y="498" on="0"/>
        <pt x="791" y="487" on="1"/>
        <pt x="743" y="541" on="0"/>
        <pt x="610" y="584" on="0"/>
        <pt x="540" y="584" on="1"/>
        <pt x="431" y="584" on="1"/>
        <pt x="372" y="584" on="0"/>
        <pt x="271" y="559" on="0"/>
        <pt x="197" y="504" on="0"/>
        <pt x="154" y="414" on="0"/>
        <pt x="154" y="350" on="1"/>
        <pt x="154" y="285" on="0"/>
        <pt x="197" y="196" on="0"/>
        <pt x="271" y="140" on="0"/>
        <pt x="372" y="116" on="0"/>
        <pt x="431" y="116" on="1"/>
        <pt x="540" y="116" on="1"/>
        <pt x="610" y="116" on="0"/>
        <pt x="743" y="159" on="0"/>
        <pt x="791" y="213" on="1"/>
        <pt x="855" y="173" on="1"/>
        <pt x="824" y="130" on="0"/>
        <pt x="744" y="82" on="0"/>
        <pt x="653" y="60" on="0"/>
        <pt x="556" y="55" on="0"/>
        <pt x="508" y="55" on="1"/>
        <pt x="508" y="-55" on="1"/>
      </contour>
      <contour>
        <pt x="407" y="-257" on="1"/>
        <pt x="432" y="-257" on="0"/>
        <pt x="494" y="-257" on="0"/>
        <pt x="556" y="-251" on="0"/>
        <pt x="614" y="-236" on="0"/>
        <pt x="659" y="-206" on="0"/>
        <pt x="686" y="-158" on="0"/>
        <pt x="686" y="-122" on="1"/>
        <pt x="686" y="-71" on="0"/>
        <pt x="633" y="-7" on="0"/>
        <pt x="582" y="0" on="1"/>
        <pt x="695" y="2" on="0"/>
        <pt x="874" y="90" on="0"/>
        <pt x="933" y="191" on="1"/>
        <pt x="774" y="285" on="1"/>
        <pt x="732" y="225" on="0"/>
        <pt x="612" y="172" on="0"/>
        <pt x="540" y="172" on="1"/>
        <pt x="431" y="172" on="1"/>
        <pt x="386" y="172" on="0"/>
        <pt x="306" y="190" on="0"/>
        <pt x="246" y="231" on="0"/>
        <pt x="210" y="299" on="0"/>
        <pt x="210" y="350" on="1"/>
        <pt x="210" y="400" on="0"/>
        <pt x="246" y="468" on="0"/>
        <pt x="307" y="510" on="0"/>
        <pt x="387" y="528" on="0"/>
        <pt x="431" y="528" on="1"/>
        <pt x="540" y="528" on="1"/>
        <pt x="612" y="528" on="0"/>
        <pt x="732" y="475" on="0"/>
        <pt x="774" y="415" on="1"/>
        <pt x="933" y="509" on="1"/>
        <pt x="899" y="567" on="0"/>
        <pt x="815" y="642" on="0"/>
        <pt x="716" y="685" on="0"/>
        <pt x="603" y="701" on="0"/>
        <pt x="540" y="701" on="1"/>
        <pt x="431" y="701" on="1"/>
        <pt x="344" y="701" on="0"/>
        <pt x="199" y="662" on="0"/>
        <pt x="94" y="578" on="0"/>
        <pt x="35" y="445" on="0"/>
        <pt x="35" y="350" on="1"/>
        <pt x="35" y="260" on="0"/>
        <pt x="88" y="130" on="0"/>
        <pt x="186" y="44" on="0"/>
        <pt x="323" y="2" on="0"/>
        <pt x="407" y="0" on="1"/>
      </contour>
      <contour>
        <pt x="382" y="-107" on="1"/>
        <pt x="355" y="-101" on="0"/>
        <pt x="301" y="-82" on="0"/>
        <pt x="251" y="-58" on="0"/>
        <pt x="206" y="-29" on="0"/>
        <pt x="190" y="-12" on="1"/>
        <pt x="134" y="36" on="0"/>
        <pt x="63" y="121" on="0"/>
        <pt x="24" y="206" on="0"/>
        <pt x="10" y="297" on="0"/>
        <pt x="10" y="350" on="1"/>
        <pt x="10" y="452" on="0"/>
        <pt x="72" y="595" on="0"/>
        <pt x="184" y="685" on="0"/>
        <pt x="339" y="726" on="0"/>
        <pt x="431" y="726" on="1"/>
        <pt x="540" y="726" on="1"/>
        <pt x="597" y="726" on="0"/>
        <pt x="704" y="715" on="0"/>
        <pt x="811" y="673" on="0"/>
        <pt x="922" y="591" on="0"/>
        <pt x="984" y="520" on="1"/>
        <pt x="1005" y="499" on="0"/>
        <pt x="1045" y="432" on="0"/>
        <pt x="1063" y="401" on="1"/>
        <pt x="868" y="286" on="1"/>
        <pt x="792" y="362" on="1"/>
        <pt x="757" y="385" on="0"/>
        <pt x="681" y="406" on="0"/>
        <pt x="640" y="406" on="1"/>
        <pt x="531" y="406" on="1"/>
        <pt x="491" y="406" on="0"/>
        <pt x="419" y="390" on="0"/>
        <pt x="364" y="354" on="0"/>
        <pt x="332" y="294" on="0"/>
        <pt x="332" y="250" on="1"/>
        <pt x="332" y="226" on="0"/>
        <pt x="336" y="210" on="1"/>
        <pt x="357" y="203" on="0"/>
        <pt x="405" y="197" on="0"/>
        <pt x="431" y="197" on="1"/>
        <pt x="540" y="197" on="1"/>
        <pt x="606" y="197" on="0"/>
        <pt x="723" y="253" on="0"/>
        <pt x="768" y="318" on="1"/>
        <pt x="968" y="200" on="1"/>
        <pt x="1063" y="99" on="1"/>
        <pt x="1006" y="2" on="0"/>
        <pt x="858" y="-100" on="0"/>
        <pt x="769" y="-115" on="1"/>
        <pt x="771" y="-117" on="1"/>
        <pt x="808" y="-154" on="0"/>
        <pt x="808" y="-222" on="1"/>
        <pt x="808" y="-281" on="0"/>
        <pt x="751" y="-345" on="0"/>
        <pt x="665" y="-374" on="0"/>
        <pt x="566" y="-379" on="0"/>
        <pt x="524" y="-379" on="1"/>
        <pt x="485" y="-379" on="1"/>
        <pt x="382" y="-282" on="1"/>
      </contour>
    </TTGlyph>
    <TTGlyph name="D" xMin="9" yMin="-123" xMax="1024" yMax="726">
      <contour>
        <pt x="506" y="116" on="1"/>
        <pt x="564" y="116" on="0"/>
        <pt x="666" y="140" on="0"/>
        <pt x="741" y="196" on="0"/>
        <pt x="784" y="285" on="0"/>
        <pt x="784" y="350" on="1"/>
        <pt x="784" y="415" on="0"/>
        <pt x="741" y="504" on="0"/>
        <pt x="666" y="560" on="0"/>
        <pt x="564" y="584" on="0"/>
        <pt x="506" y="584" on="1"/>
        <pt x="150" y="584" on="1"/>
        <pt x="150" y="116" on="1"/>
      </contour>
      <contour>
        <pt x="506" y="528" on="1"/>
        <pt x="551" y="528" on="0"/>
        <pt x="632" y="511" on="0"/>
        <pt x="693" y="469" on="0"/>
        <pt x="730" y="401" on="0"/>
        <pt x="730" y="350" on="1"/>
        <pt x="730" y="299" on="0"/>
        <pt x="694" y="230" on="0"/>
        <pt x="632" y="189" on="0"/>
        <pt x="551" y="172" on="0"/>
        <pt x="506" y="172" on="1"/>
        <pt x="204" y="172" on="1"/>
        <pt x="204" y="528" on="1"/>
      </contour>
      <contour>
        <pt x="506" y="645" on="1"/>
        <pt x="579" y="645" on="0"/>
        <pt x="703" y="614" on="0"/>
        <pt x="795" y="543" on="0"/>
        <pt x="847" y="431" on="0"/>
        <pt x="847" y="350" on="1"/>
        <pt x="847" y="269" on="0"/>
        <pt x="795" y="157" on="0"/>
        <pt x="703" y="86" on="0"/>
        <pt x="579" y="55" on="0"/>
        <pt x="506" y="55" on="1"/>
        <pt x="89" y="55" on="1"/>
        <pt x="89" y="645" on="1"/>
      </contour>
      <contour>
        <pt x="506" y="-1" on="1"/>
        <pt x="593" y="-1" on="0"/>
        <pt x="738" y="37" on="0"/>
        <pt x="843" y="121" on="0"/>
        <pt x="902" y="255" on="0"/>
        <pt x="902" y="350" on="1"/>
        <pt x="902" y="445" on="0"/>
        <pt x="843" y="579" on="0"/>
        <pt x="738" y="663" on="0"/>
        <pt x="593" y="701" on="0"/>
        <pt x="506" y="701" on="1"/>
        <pt x="34" y="701" on="1"/>
        <pt x="34" y="-1" on="1"/>
      </contour>
      <contour>
        <pt x="9" y="726" on="1"/>
        <pt x="506" y="726" on="1"/>
        <pt x="563" y="726" on="0"/>
        <pt x="669" y="715" on="0"/>
        <pt x="772" y="677" on="0"/>
        <pt x="875" y="603" on="0"/>
        <pt x="929" y="540" on="1"/>
        <pt x="974" y="495" on="0"/>
        <pt x="1024" y="340" on="0"/>
        <pt x="1024" y="250" on="1"/>
        <pt x="1024" y="149" on="0"/>
        <pt x="962" y="7" on="0"/>
        <pt x="851" y="-82" on="0"/>
        <pt x="697" y="-123" on="0"/>
        <pt x="606" y="-123" on="1"/>
        <pt x="112" y="-123" on="1"/>
        <pt x="9" y="-26" on="1"/>
      </contour>
      <contour>
        <pt x="326" y="197" on="1"/>
        <pt x="506" y="197" on="1"/>
        <pt x="546" y="197" on="0"/>
        <pt x="618" y="212" on="0"/>
        <pt x="673" y="247" on="0"/>
        <pt x="705" y="306" on="0"/>
        <pt x="705" y="350" on="1"/>
        <pt x="705" y="372" on="0"/>
        <pt x="700" y="394" on="1"/>
        <pt x="656" y="406" on="0"/>
        <pt x="606" y="406" on="1"/>
        <pt x="326" y="406" on="1"/>
      </contour>
    </TTGlyph>
    <TTGlyph name="E" xMin="1" yMin="-123" xMax="935" yMax="726">
      <contour>
        <pt x="144" y="380" on="1"/>
        <pt x="653" y="380" on="1"/>
        <pt x="653" y="320" on="1"/>
        <pt x="144" y="320" on="1"/>
        <pt x="144" y="116" on="1"/>
        <pt x="757" y="116" on="1"/>
        <pt x="757" y="55" on="1"/>
        <pt x="82" y="55" on="1"/>
        <pt x="82" y="645" on="1"/>
        <pt x="756" y="645" on="1"/>
        <pt x="756" y="584" on="1"/>
        <pt x="144" y="584" on="1"/>
      </contour>
      <contour>
        <pt x="199" y="528" on="1"/>
        <pt x="812" y="528" on="1"/>
        <pt x="812" y="701" on="1"/>
        <pt x="26" y="701" on="1"/>
        <pt x="26" y="-1" on="1"/>
        <pt x="813" y="-1" on="1"/>
        <pt x="813" y="172" on="1"/>
        <pt x="199" y="172" on="1"/>
        <pt x="199" y="265" on="1"/>
        <pt x="708" y="265" on="1"/>
        <pt x="708" y="435" on="1"/>
        <pt x="199" y="435" on="1"/>
      </contour>
      <contour>
        <pt x="1" y="-26" on="1"/>
        <pt x="1" y="726" on="1"/>
        <pt x="837" y="726" on="1"/>
        <pt x="934" y="623" on="1"/>
        <pt x="934" y="406" on="1"/>
        <pt x="781" y="406" on="1"/>
        <pt x="830" y="357" on="1"/>
        <pt x="830" y="197" on="1"/>
        <pt x="935" y="94" on="1"/>
        <pt x="935" y="-123" on="1"/>
        <pt x="104" y="-123" on="1"/>
      </contour>
    </TTGlyph>
    <TTGlyph name="Eacute" xMin="1" yMin="-123" xMax="935" yMax="940">
      <contour>
        <pt x="532" y="879" on="1"/>
        <pt x="500" y="856" on="0"/>
        <pt x="437" y="808" on="0"/>
        <pt x="405" y="785" on="1"/>
        <pt x="336" y="785" on="1"/>
        <pt x="462" y="879" on="1"/>
      </contour>
      <contour>
        <pt x="219" y="749" on="1"/>
        <pt x="422" y="749" on="1"/>
        <pt x="643" y="915" on="1"/>
        <pt x="435" y="915" on="1"/>
      </contour>
      <contour>
        <pt x="653" y="380" on="1"/>
        <pt x="653" y="320" on="1"/>
        <pt x="144" y="320" on="1"/>
        <pt x="144" y="116" on="1"/>
        <pt x="757" y="116" on="1"/>
        <pt x="757" y="55" on="1"/>
        <pt x="82" y="55" on="1"/>
        <pt x="82" y="645" on="1"/>
        <pt x="756" y="645" on="1"/>
        <pt x="756" y="584" on="1"/>
        <pt x="144" y="584" on="1"/>
        <pt x="144" y="380" on="1"/>
      </contour>
      <contour>
        <pt x="812" y="528" on="1"/>
        <pt x="812" y="701" on="1"/>
        <pt x="26" y="701" on="1"/>
        <pt x="26" y="-1" on="1"/>
        <pt x="813" y="-1" on="1"/>
        <pt x="813" y="172" on="1"/>
        <pt x="199" y="172" on="1"/>
        <pt x="199" y="265" on="1"/>
        <pt x="708" y="265" on="1"/>
        <pt x="708" y="435" on="1"/>
        <pt x="199" y="435" on="1"/>
        <pt x="199" y="528" on="1"/>
      </contour>
      <contour>
        <pt x="718" y="940" on="1"/>
        <pt x="809" y="837" on="1"/>
        <pt x="661" y="726" on="1"/>
        <pt x="837" y="726" on="1"/>
        <pt x="934" y="623" on="1"/>
        <pt x="934" y="406" on="1"/>
        <pt x="781" y="406" on="1"/>
        <pt x="830" y="357" on="1"/>
        <pt x="830" y="197" on="1"/>
        <pt x="838" y="197" on="1"/>
        <pt x="935" y="94" on="1"/>
        <pt x="935" y="-123" on="1"/>
        <pt x="104" y="-123" on="1"/>
        <pt x="1" y="-26" on="1"/>
        <pt x="1" y="726" on="1"/>
        <pt x="148" y="726" on="1"/>
        <pt x="428" y="940" on="1"/>
      </contour>
    </TTGlyph>
    <TTGlyph name="Ecircumflex" xMin="1" yMin="-123" xMax="935" yMax="974">
      <contour>
        <pt x="449" y="901" on="1"/>
        <pt x="491" y="872" on="0"/>
        <pt x="573" y="815" on="0"/>
        <pt x="615" y="786" on="1"/>
        <pt x="559" y="786" on="1"/>
        <pt x="427" y="870" on="1"/>
        <pt x="294" y="786" on="1"/>
        <pt x="239" y="786" on="1"/>
        <pt x="405" y="901" on="1"/>
      </contour>
      <contour>
        <pt x="95" y="751" on="1"/>
        <pt x="323" y="751" on="1"/>
        <pt x="427" y="821" on="1"/>
        <pt x="530" y="751" on="1"/>
        <pt x="758" y="751" on="1"/>
        <pt x="464" y="949" on="1"/>
        <pt x="390" y="949" on="1"/>
      </contour>
      <contour>
        <pt x="653" y="380" on="1"/>
        <pt x="653" y="320" on="1"/>
        <pt x="144" y="320" on="1"/>
        <pt x="144" y="116" on="1"/>
        <pt x="757" y="116" on="1"/>
        <pt x="757" y="55" on="1"/>
        <pt x="82" y="55" on="1"/>
        <pt x="82" y="645" on="1"/>
        <pt x="756" y="645" on="1"/>
        <pt x="756" y="584" on="1"/>
        <pt x="144" y="584" on="1"/>
        <pt x="144" y="380" on="1"/>
      </contour>
      <contour>
        <pt x="812" y="528" on="1"/>
        <pt x="812" y="701" on="1"/>
        <pt x="26" y="701" on="1"/>
        <pt x="26" y="-1" on="1"/>
        <pt x="813" y="-1" on="1"/>
        <pt x="813" y="172" on="1"/>
        <pt x="199" y="172" on="1"/>
        <pt x="199" y="265" on="1"/>
        <pt x="708" y="265" on="1"/>
        <pt x="708" y="435" on="1"/>
        <pt x="199" y="435" on="1"/>
        <pt x="199" y="528" on="1"/>
      </contour>
      <contour>
        <pt x="471" y="974" on="1"/>
        <pt x="838" y="726" on="1"/>
        <pt x="934" y="623" on="1"/>
        <pt x="934" y="406" on="1"/>
        <pt x="781" y="406" on="1"/>
        <pt x="830" y="357" on="1"/>
        <pt x="830" y="197" on="1"/>
        <pt x="838" y="197" on="1"/>
        <pt x="935" y="94" on="1"/>
        <pt x="935" y="-123" on="1"/>
        <pt x="104" y="-123" on="1"/>
        <pt x="1" y="-26" on="1"/>
        <pt x="1" y="726" on="1"/>
        <pt x="383" y="974" on="1"/>
      </contour>
    </TTGlyph>
    <TTGlyph name="Edieresis" xMin="1" yMin="-123" xMax="935" yMax="943">
      <contour>
        <pt x="520" y="863" on="1"/>
        <pt x="583" y="863" on="1"/>
        <pt x="583" y="806" on="1"/>
        <pt x="520" y="806" on="1"/>
      </contour>
      <contour>
        <pt x="639" y="918" on="1"/>
        <pt x="464" y="918" on="1"/>
        <pt x="464" y="751" on="1"/>
        <pt x="639" y="751" on="1"/>
      </contour>
      <contour>
        <pt x="278" y="863" on="1"/>
        <pt x="341" y="863" on="1"/>
        <pt x="341" y="806" on="1"/>
        <pt x="278" y="806" on="1"/>
      </contour>
      <contour>
        <pt x="396" y="918" on="1"/>
        <pt x="222" y="918" on="1"/>
        <pt x="222" y="751" on="1"/>
        <pt x="396" y="751" on="1"/>
      </contour>
      <contour>
        <pt x="653" y="380" on="1"/>
        <pt x="653" y="320" on="1"/>
        <pt x="144" y="320" on="1"/>
        <pt x="144" y="116" on="1"/>
        <pt x="757" y="116" on="1"/>
        <pt x="757" y="55" on="1"/>
        <pt x="82" y="55" on="1"/>
        <pt x="82" y="645" on="1"/>
        <pt x="756" y="645" on="1"/>
        <pt x="756" y="584" on="1"/>
        <pt x="144" y="584" on="1"/>
        <pt x="144" y="380" on="1"/>
      </contour>
      <contour>
        <pt x="812" y="528" on="1"/>
        <pt x="812" y="701" on="1"/>
        <pt x="26" y="701" on="1"/>
        <pt x="26" y="-1" on="1"/>
        <pt x="813" y="-1" on="1"/>
        <pt x="813" y="172" on="1"/>
        <pt x="199" y="172" on="1"/>
        <pt x="199" y="265" on="1"/>
        <pt x="708" y="265" on="1"/>
        <pt x="708" y="435" on="1"/>
        <pt x="199" y="435" on="1"/>
        <pt x="199" y="528" on="1"/>
      </contour>
      <contour>
        <pt x="761" y="726" on="1"/>
        <pt x="837" y="726" on="1"/>
        <pt x="934" y="623" on="1"/>
        <pt x="934" y="406" on="1"/>
        <pt x="781" y="406" on="1"/>
        <pt x="830" y="357" on="1"/>
        <pt x="830" y="197" on="1"/>
        <pt x="838" y="197" on="1"/>
        <pt x="935" y="94" on="1"/>
        <pt x="935" y="-123" on="1"/>
        <pt x="104" y="-123" on="1"/>
        <pt x="1" y="-26" on="1"/>
        <pt x="1" y="726" on="1"/>
        <pt x="197" y="726" on="1"/>
        <pt x="197" y="943" on="1"/>
        <pt x="421" y="943" on="1"/>
        <pt x="439" y="919" on="1"/>
        <pt x="439" y="943" on="1"/>
        <pt x="664" y="943" on="1"/>
        <pt x="761" y="840" on="1"/>
      </contour>
    </TTGlyph>
    <TTGlyph name="Egrave" xMin="1" yMin="-123" xMax="935" yMax="940">
      <contour>
        <pt x="509" y="785" on="1"/>
        <pt x="440" y="785" on="1"/>
        <pt x="408" y="808" on="0"/>
        <pt x="345" y="856" on="0"/>
        <pt x="313" y="879" on="1"/>
        <pt x="383" y="879" on="1"/>
      </contour>
      <contour>
        <pt x="423" y="749" on="1"/>
        <pt x="626" y="749" on="1"/>
        <pt x="410" y="915" on="1"/>
        <pt x="202" y="915" on="1"/>
      </contour>
      <contour>
        <pt x="653" y="380" on="1"/>
        <pt x="653" y="320" on="1"/>
        <pt x="144" y="320" on="1"/>
        <pt x="144" y="116" on="1"/>
        <pt x="757" y="116" on="1"/>
        <pt x="757" y="55" on="1"/>
        <pt x="82" y="55" on="1"/>
        <pt x="82" y="645" on="1"/>
        <pt x="756" y="645" on="1"/>
        <pt x="756" y="584" on="1"/>
        <pt x="144" y="584" on="1"/>
        <pt x="144" y="380" on="1"/>
      </contour>
      <contour>
        <pt x="812" y="528" on="1"/>
        <pt x="812" y="701" on="1"/>
        <pt x="26" y="701" on="1"/>
        <pt x="26" y="-1" on="1"/>
        <pt x="813" y="-1" on="1"/>
        <pt x="813" y="172" on="1"/>
        <pt x="199" y="172" on="1"/>
        <pt x="199" y="265" on="1"/>
        <pt x="708" y="265" on="1"/>
        <pt x="708" y="435" on="1"/>
        <pt x="199" y="435" on="1"/>
        <pt x="199" y="528" on="1"/>
      </contour>
      <contour>
        <pt x="417" y="940" on="1"/>
        <pt x="695" y="726" on="1"/>
        <pt x="837" y="726" on="1"/>
        <pt x="934" y="623" on="1"/>
        <pt x="934" y="406" on="1"/>
        <pt x="781" y="406" on="1"/>
        <pt x="830" y="357" on="1"/>
        <pt x="830" y="197" on="1"/>
        <pt x="838" y="197" on="1"/>
        <pt x="935" y="94" on="1"/>
        <pt x="935" y="-123" on="1"/>
        <pt x="104" y="-123" on="1"/>
        <pt x="1" y="-26" on="1"/>
        <pt x="1" y="726" on="1"/>
        <pt x="385" y="726" on="1"/>
        <pt x="113" y="940" on="1"/>
      </contour>
    </TTGlyph>
    <TTGlyph name="Eth" xMin="-36" yMin="-123" xMax="1106" yMax="726">
      <contour>
        <pt x="538" y="380" on="1"/>
        <pt x="538" y="320" on="1"/>
        <pt x="231" y="320" on="1"/>
        <pt x="231" y="116" on="1"/>
        <pt x="589" y="116" on="1"/>
        <pt x="647" y="116" on="0"/>
        <pt x="749" y="140" on="0"/>
        <pt x="823" y="196" on="0"/>
        <pt x="866" y="285" on="0"/>
        <pt x="866" y="350" on="1"/>
        <pt x="866" y="414" on="0"/>
        <pt x="823" y="504" on="0"/>
        <pt x="749" y="559" on="0"/>
        <pt x="647" y="584" on="0"/>
        <pt x="589" y="584" on="1"/>
        <pt x="231" y="584" on="1"/>
        <pt x="231" y="380" on="1"/>
      </contour>
      <contour>
        <pt x="589" y="528" on="1"/>
        <pt x="633" y="528" on="0"/>
        <pt x="713" y="510" on="0"/>
        <pt x="774" y="468" on="0"/>
        <pt x="810" y="400" on="0"/>
        <pt x="810" y="350" on="1"/>
        <pt x="810" y="299" on="0"/>
        <pt x="774" y="231" on="0"/>
        <pt x="714" y="190" on="0"/>
        <pt x="634" y="172" on="0"/>
        <pt x="589" y="172" on="1"/>
        <pt x="287" y="172" on="1"/>
        <pt x="287" y="265" on="1"/>
        <pt x="593" y="265" on="1"/>
        <pt x="593" y="435" on="1"/>
        <pt x="287" y="435" on="1"/>
        <pt x="287" y="528" on="1"/>
      </contour>
      <contour>
        <pt x="171" y="380" on="1"/>
        <pt x="171" y="645" on="1"/>
        <pt x="589" y="645" on="1"/>
        <pt x="662" y="645" on="0"/>
        <pt x="787" y="614" on="0"/>
        <pt x="878" y="543" on="0"/>
        <pt x="929" y="431" on="0"/>
        <pt x="929" y="350" on="1"/>
        <pt x="929" y="269" on="0"/>
        <pt x="878" y="157" on="0"/>
        <pt x="787" y="86" on="0"/>
        <pt x="662" y="55" on="0"/>
        <pt x="589" y="55" on="1"/>
        <pt x="171" y="55" on="1"/>
        <pt x="171" y="320" on="1"/>
        <pt x="44" y="320" on="1"/>
        <pt x="44" y="380" on="1"/>
      </contour>
      <contour>
        <pt x="116" y="265" on="1"/>
        <pt x="116" y="-1" on="1"/>
        <pt x="589" y="-1" on="1"/>
        <pt x="676" y="-1" on="0"/>
        <pt x="821" y="38" on="0"/>
        <pt x="926" y="122" on="0"/>
        <pt x="984" y="255" on="0"/>
        <pt x="984" y="350" on="1"/>
        <pt x="984" y="445" on="0"/>
        <pt x="926" y="578" on="0"/>
        <pt x="821" y="662" on="0"/>
        <pt x="676" y="701" on="0"/>
        <pt x="589" y="701" on="1"/>
        <pt x="116" y="701" on="1"/>
        <pt x="116" y="435" on="1"/>
        <pt x="-11" y="435" on="1"/>
        <pt x="-11" y="265" on="1"/>
      </contour>
      <contour>
        <pt x="-36" y="460" on="1"/>
        <pt x="91" y="460" on="1"/>
        <pt x="91" y="726" on="1"/>
        <pt x="589" y="726" on="1"/>
        <pt x="646" y="726" on="0"/>
        <pt x="754" y="711" on="0"/>
        <pt x="859" y="669" on="0"/>
        <pt x="963" y="591" on="0"/>
        <pt x="1017" y="528" on="1"/>
        <pt x="1062" y="483" on="0"/>
        <pt x="1106" y="341" on="0"/>
        <pt x="1106" y="250" on="1"/>
        <pt x="1106" y="149" on="0"/>
        <pt x="1044" y="7" on="0"/>
        <pt x="934" y="-82" on="0"/>
        <pt x="780" y="-123" on="0"/>
        <pt x="689" y="-123" on="1"/>
        <pt x="194" y="-123" on="1"/>
        <pt x="91" y="-26" on="1"/>
        <pt x="91" y="143" on="1"/>
        <pt x="67" y="143" on="1"/>
        <pt x="-36" y="240" on="1"/>
      </contour>
      <contour>
        <pt x="715" y="223" on="1"/>
        <pt x="747" y="240" on="0"/>
        <pt x="785" y="302" on="0"/>
        <pt x="785" y="350" on="1"/>
        <pt x="785" y="373" on="0"/>
        <pt x="779" y="394" on="1"/>
        <pt x="737" y="406" on="0"/>
        <pt x="689" y="406" on="1"/>
        <pt x="666" y="406" on="1"/>
        <pt x="715" y="357" on="1"/>
      </contour>
    </TTGlyph>
    <TTGlyph name="Euro" xMin="-30" yMin="-123" xMax="805" yMax="726">
      <contour>
        <pt x="86" y="360" on="1"/>
        <pt x="85" y="360" on="0"/>
        <pt x="85" y="361" on="1"/>
        <pt x="86" y="361" on="1"/>
      </contour>
      <contour>
        <pt x="143" y="468" on="1"/>
        <pt x="165" y="520" on="0"/>
        <pt x="233" y="588" on="0"/>
        <pt x="317" y="629" on="0"/>
        <pt x="415" y="645" on="0"/>
        <pt x="467" y="645" on="1"/>
        <pt x="527" y="645" on="1"/>
        <pt x="558" y="645" on="0"/>
        <pt x="618" y="633" on="0"/>
        <pt x="647" y="624" on="1"/>
        <pt x="647" y="573" on="1"/>
        <pt x="618" y="581" on="0"/>
        <pt x="556" y="593" on="0"/>
        <pt x="527" y="593" on="1"/>
        <pt x="467" y="593" on="1"/>
        <pt x="434" y="593" on="0"/>
        <pt x="363" y="579" on="0"/>
        <pt x="300" y="549" on="0"/>
        <pt x="250" y="502" on="0"/>
        <pt x="237" y="468" on="1"/>
        <pt x="624" y="468" on="1"/>
        <pt x="624" y="416" on="1"/>
        <pt x="222" y="416" on="1"/>
        <pt x="214" y="399" on="0"/>
        <pt x="208" y="362" on="0"/>
        <pt x="208" y="343" on="1"/>
        <pt x="208" y="312" on="0"/>
        <pt x="217" y="284" on="1"/>
        <pt x="624" y="284" on="1"/>
        <pt x="624" y="232" on="1"/>
        <pt x="226" y="232" on="1"/>
        <pt x="241" y="200" on="0"/>
        <pt x="295" y="153" on="0"/>
        <pt x="362" y="122" on="0"/>
        <pt x="434" y="107" on="0"/>
        <pt x="467" y="107" on="1"/>
        <pt x="527" y="107" on="1"/>
        <pt x="585" y="107" on="0"/>
        <pt x="646" y="121" on="1"/>
        <pt x="646" y="68" on="1"/>
        <pt x="617" y="63" on="0"/>
        <pt x="556" y="55" on="0"/>
        <pt x="527" y="55" on="1"/>
        <pt x="467" y="55" on="1"/>
        <pt x="415" y="55" on="0"/>
        <pt x="317" y="71" on="0"/>
        <pt x="233" y="112" on="0"/>
        <pt x="165" y="180" on="0"/>
        <pt x="143" y="232" on="1"/>
        <pt x="51" y="232" on="1"/>
        <pt x="51" y="284" on="1"/>
        <pt x="136" y="284" on="1"/>
        <pt x="131" y="301" on="0"/>
        <pt x="125" y="334" on="0"/>
        <pt x="125" y="351" on="1"/>
        <pt x="125" y="368" on="0"/>
        <pt x="131" y="400" on="0"/>
        <pt x="136" y="416" on="1"/>
        <pt x="51" y="416" on="1"/>
        <pt x="51" y="468" on="1"/>
      </contour>
      <contour>
        <pt x="85" y="361" on="1"/>
        <pt x="85" y="363" on="1"/>
        <pt x="85" y="363" on="0"/>
        <pt x="85" y="361" on="1"/>
        <pt x="86" y="354" on="1"/>
        <pt x="86" y="339" on="1"/>
        <pt x="-5" y="339" on="1"/>
        <pt x="-5" y="178" on="1"/>
        <pt x="107" y="178" on="1"/>
        <pt x="137" y="114" on="0"/>
        <pt x="230" y="42" on="0"/>
        <pt x="341" y="7" on="0"/>
        <pt x="465" y="-1" on="0"/>
        <pt x="527" y="-1" on="1"/>
        <pt x="565" y="-1" on="0"/>
        <pt x="645" y="14" on="0"/>
        <pt x="683" y="24" on="1"/>
        <pt x="683" y="664" on="1"/>
        <pt x="629" y="687" on="0"/>
        <pt x="525" y="701" on="0"/>
        <pt x="467" y="701" on="1"/>
        <pt x="413" y="701" on="0"/>
        <pt x="305" y="685" on="0"/>
        <pt x="210" y="645" on="0"/>
        <pt x="132" y="576" on="0"/>
        <pt x="107" y="522" on="1"/>
        <pt x="-5" y="522" on="1"/>
        <pt x="-5" y="361" on="1"/>
      </contour>
      <contour>
        <pt x="-30" y="547" on="1"/>
        <pt x="91" y="547" on="1"/>
        <pt x="119" y="601" on="0"/>
        <pt x="202" y="670" on="0"/>
        <pt x="301" y="710" on="0"/>
        <pt x="411" y="726" on="0"/>
        <pt x="467" y="726" on="1"/>
        <pt x="526" y="726" on="0"/>
        <pt x="640" y="709" on="0"/>
        <pt x="708" y="680" on="1"/>
        <pt x="805" y="578" on="1"/>
        <pt x="805" y="-93" on="1"/>
        <pt x="760" y="-105" on="0"/>
        <pt x="668" y="-123" on="0"/>
        <pt x="627" y="-123" on="1"/>
        <pt x="576" y="-123" on="0"/>
        <pt x="471" y="-117" on="0"/>
        <pt x="373" y="-94" on="0"/>
        <pt x="283" y="-51" on="0"/>
        <pt x="247" y="-15" on="1"/>
        <pt x="221" y="10" on="0"/>
        <pt x="192" y="38" on="0"/>
        <pt x="178" y="52" on="0"/>
        <pt x="175" y="55" on="0"/>
        <pt x="174" y="56" on="1"/>
        <pt x="73" y="56" on="1"/>
        <pt x="-30" y="153" on="1"/>
      </contour>
    </TTGlyph>
    <TTGlyph name="F" xMin="1" yMin="-123" xMax="934" yMax="726">
      <contour>
        <pt x="144" y="380" on="1"/>
        <pt x="653" y="380" on="1"/>
        <pt x="653" y="320" on="1"/>
        <pt x="144" y="320" on="1"/>
        <pt x="144" y="55" on="1"/>
        <pt x="82" y="55" on="1"/>
        <pt x="82" y="645" on="1"/>
        <pt x="756" y="645" on="1"/>
        <pt x="756" y="584" on="1"/>
        <pt x="144" y="584" on="1"/>
      </contour>
      <contour>
        <pt x="199" y="528" on="1"/>
        <pt x="812" y="528" on="1"/>
        <pt x="812" y="701" on="1"/>
        <pt x="26" y="701" on="1"/>
        <pt x="26" y="-1" on="1"/>
        <pt x="199" y="-1" on="1"/>
        <pt x="199" y="265" on="1"/>
        <pt x="708" y="265" on="1"/>
        <pt x="708" y="435" on="1"/>
        <pt x="199" y="435" on="1"/>
      </contour>
      <contour>
        <pt x="1" y="-26" on="1"/>
        <pt x="1" y="726" on="1"/>
        <pt x="837" y="726" on="1"/>
        <pt x="934" y="623" on="1"/>
        <pt x="934" y="406" on="1"/>
        <pt x="781" y="406" on="1"/>
        <pt x="830" y="357" on="1"/>
        <pt x="830" y="143" on="1"/>
        <pt x="321" y="143" on="1"/>
        <pt x="321" y="-123" on="1"/>
        <pt x="104" y="-123" on="1"/>
      </contour>
    </TTGlyph>
    <TTGlyph name="G" xMin="13" yMin="-123" xMax="1077" yMax="726">
      <contour>
        <pt x="753" y="524" on="1"/>
        <pt x="708" y="558" on="0"/>
        <pt x="597" y="584" on="0"/>
        <pt x="541" y="584" on="1"/>
        <pt x="432" y="584" on="1"/>
        <pt x="374" y="584" on="0"/>
        <pt x="273" y="559" on="0"/>
        <pt x="199" y="504" on="0"/>
        <pt x="156" y="414" on="0"/>
        <pt x="156" y="350" on="1"/>
        <pt x="156" y="285" on="0"/>
        <pt x="198" y="196" on="0"/>
        <pt x="273" y="141" on="0"/>
        <pt x="373" y="116" on="0"/>
        <pt x="432" y="116" on="1"/>
        <pt x="541" y="116" on="1"/>
        <pt x="593" y="116" on="0"/>
        <pt x="688" y="139" on="0"/>
        <pt x="764" y="188" on="0"/>
        <pt x="818" y="265" on="0"/>
        <pt x="830" y="320" on="1"/>
        <pt x="554" y="320" on="1"/>
        <pt x="554" y="380" on="1"/>
        <pt x="900" y="380" on="1"/>
        <pt x="900" y="350" on="1"/>
        <pt x="900" y="267" on="0"/>
        <pt x="842" y="154" on="0"/>
        <pt x="744" y="85" on="0"/>
        <pt x="614" y="55" on="0"/>
        <pt x="541" y="55" on="1"/>
        <pt x="432" y="55" on="1"/>
        <pt x="359" y="55" on="0"/>
        <pt x="235" y="87" on="0"/>
        <pt x="144" y="157" on="0"/>
        <pt x="92" y="269" on="0"/>
        <pt x="92" y="350" on="1"/>
        <pt x="92" y="431" on="0"/>
        <pt x="144" y="543" on="0"/>
        <pt x="235" y="613" on="0"/>
        <pt x="359" y="645" on="0"/>
        <pt x="432" y="645" on="1"/>
        <pt x="541" y="645" on="1"/>
        <pt x="578" y="645" on="0"/>
        <pt x="652" y="640" on="0"/>
        <pt x="722" y="624" on="0"/>
        <pt x="789" y="595" on="0"/>
        <pt x="818" y="570" on="1"/>
      </contour>
      <contour>
        <pt x="903" y="556" on="1"/>
        <pt x="868" y="602" on="0"/>
        <pt x="786" y="658" on="0"/>
        <pt x="695" y="690" on="0"/>
        <pt x="595" y="701" on="0"/>
        <pt x="541" y="701" on="1"/>
        <pt x="432" y="701" on="1"/>
        <pt x="345" y="701" on="0"/>
        <pt x="201" y="662" on="0"/>
        <pt x="96" y="578" on="0"/>
        <pt x="38" y="445" on="0"/>
        <pt x="38" y="350" on="1"/>
        <pt x="38" y="255" on="0"/>
        <pt x="96" y="122" on="0"/>
        <pt x="201" y="38" on="0"/>
        <pt x="345" y="-1" on="0"/>
        <pt x="432" y="-1" on="1"/>
        <pt x="541" y="-1" on="1"/>
        <pt x="627" y="-1" on="0"/>
        <pt x="778" y="36" on="0"/>
        <pt x="890" y="119" on="0"/>
        <pt x="955" y="253" on="0"/>
        <pt x="955" y="350" on="1"/>
        <pt x="955" y="435" on="1"/>
        <pt x="498" y="435" on="1"/>
        <pt x="498" y="265" on="1"/>
        <pt x="758" y="265" on="1"/>
        <pt x="742" y="238" on="0"/>
        <pt x="692" y="202" on="0"/>
        <pt x="633" y="181" on="0"/>
        <pt x="570" y="172" on="0"/>
        <pt x="541" y="172" on="1"/>
        <pt x="432" y="172" on="1"/>
        <pt x="387" y="172" on="0"/>
        <pt x="307" y="190" on="0"/>
        <pt x="247" y="231" on="0"/>
        <pt x="211" y="299" on="0"/>
        <pt x="211" y="350" on="1"/>
        <pt x="211" y="400" on="0"/>
        <pt x="247" y="468" on="0"/>
        <pt x="308" y="510" on="0"/>
        <pt x="388" y="528" on="0"/>
        <pt x="432" y="528" on="1"/>
        <pt x="541" y="528" on="1"/>
        <pt x="600" y="528" on="0"/>
        <pt x="708" y="491" on="0"/>
        <pt x="750" y="447" on="1"/>
      </contour>
      <contour>
        <pt x="198" y="-16" on="1"/>
        <pt x="142" y="32" on="0"/>
        <pt x="70" y="118" on="0"/>
        <pt x="29" y="205" on="0"/>
        <pt x="13" y="296" on="0"/>
        <pt x="13" y="350" on="1"/>
        <pt x="13" y="452" on="0"/>
        <pt x="75" y="595" on="0"/>
        <pt x="186" y="685" on="0"/>
        <pt x="340" y="726" on="0"/>
        <pt x="432" y="726" on="1"/>
        <pt x="541" y="726" on="1"/>
        <pt x="596" y="726" on="0"/>
        <pt x="698" y="716" on="0"/>
        <pt x="794" y="685" on="0"/>
        <pt x="883" y="624" on="0"/>
        <pt x="925" y="573" on="1"/>
        <pt x="955" y="543" on="0"/>
        <pt x="993" y="503" on="0"/>
        <pt x="1016" y="475" on="0"/>
        <pt x="1029" y="458" on="0"/>
        <pt x="1034" y="451" on="1"/>
        <pt x="1004" y="430" on="1"/>
        <pt x="1077" y="357" on="1"/>
        <pt x="1077" y="250" on="1"/>
        <pt x="1077" y="147" on="0"/>
        <pt x="1009" y="5" on="0"/>
        <pt x="891" y="-84" on="0"/>
        <pt x="732" y="-123" on="0"/>
        <pt x="641" y="-123" on="1"/>
        <pt x="532" y="-123" on="1"/>
        <pt x="430" y="-123" on="0"/>
        <pt x="254" y="-72" on="0"/>
      </contour>
      <contour>
        <pt x="473" y="400" on="1"/>
        <pt x="443" y="395" on="0"/>
        <pt x="392" y="374" on="0"/>
        <pt x="354" y="338" on="0"/>
        <pt x="333" y="285" on="0"/>
        <pt x="333" y="250" on="1"/>
        <pt x="333" y="226" on="0"/>
        <pt x="337" y="210" on="1"/>
        <pt x="358" y="203" on="0"/>
        <pt x="406" y="197" on="0"/>
        <pt x="432" y="197" on="1"/>
        <pt x="522" y="197" on="1"/>
        <pt x="473" y="240" on="1"/>
      </contour>
    </TTGlyph>
    <TTGlyph name="H" xMin="2" yMin="-123" xMax="942" yMax="726">
      <contour>
        <pt x="702" y="55" on="1"/>
        <pt x="702" y="320" on="1"/>
        <pt x="144" y="320" on="1"/>
        <pt x="144" y="55" on="1"/>
        <pt x="83" y="55" on="1"/>
        <pt x="83" y="645" on="1"/>
        <pt x="144" y="645" on="1"/>
        <pt x="144" y="380" on="1"/>
        <pt x="702" y="380" on="1"/>
        <pt x="702" y="645" on="1"/>
        <pt x="764" y="645" on="1"/>
        <pt x="764" y="55" on="1"/>
      </contour>
      <contour>
        <pt x="820" y="-1" on="1"/>
        <pt x="820" y="701" on="1"/>
        <pt x="646" y="701" on="1"/>
        <pt x="646" y="435" on="1"/>
        <pt x="200" y="435" on="1"/>
        <pt x="200" y="701" on="1"/>
        <pt x="27" y="701" on="1"/>
        <pt x="27" y="-1" on="1"/>
        <pt x="200" y="-1" on="1"/>
        <pt x="200" y="265" on="1"/>
        <pt x="646" y="265" on="1"/>
        <pt x="646" y="-1" on="1"/>
      </contour>
      <contour>
        <pt x="322" y="460" on="1"/>
        <pt x="621" y="460" on="1"/>
        <pt x="621" y="726" on="1"/>
        <pt x="845" y="726" on="1"/>
        <pt x="942" y="623" on="1"/>
        <pt x="942" y="-123" on="1"/>
        <pt x="724" y="-123" on="1"/>
        <pt x="621" y="-26" on="1"/>
        <pt x="621" y="143" on="1"/>
        <pt x="322" y="143" on="1"/>
        <pt x="322" y="-123" on="1"/>
        <pt x="105" y="-123" on="1"/>
        <pt x="2" y="-26" on="1"/>
        <pt x="2" y="726" on="1"/>
        <pt x="225" y="726" on="1"/>
        <pt x="322" y="623" on="1"/>
      </contour>
    </TTGlyph>
    <TTGlyph name="I" xMin="-6" yMin="-123" xMax="311" yMax="726">
      <contour>
        <pt x="74" y="55" on="1"/>
        <pt x="74" y="645" on="1"/>
        <pt x="134" y="645" on="1"/>
        <pt x="134" y="55" on="1"/>
      </contour>
      <contour>
        <pt x="189" y="-1" on="1"/>
        <pt x="189" y="701" on="1"/>
        <pt x="19" y="701" on="1"/>
        <pt x="19" y="-1" on="1"/>
      </contour>
      <contour>
        <pt x="-6" y="-26" on="1"/>
        <pt x="-6" y="726" on="1"/>
        <pt x="214" y="726" on="1"/>
        <pt x="311" y="623" on="1"/>
        <pt x="311" y="-123" on="1"/>
        <pt x="97" y="-123" on="1"/>
      </contour>
    </TTGlyph>
    <TTGlyph name="Iacute" xMin="-186" yMin="-123" xMax="477" yMax="940">
      <contour>
        <pt x="200" y="879" on="1"/>
        <pt x="168" y="856" on="0"/>
        <pt x="105" y="808" on="0"/>
        <pt x="73" y="785" on="1"/>
        <pt x="4" y="785" on="1"/>
        <pt x="130" y="879" on="1"/>
      </contour>
      <contour>
        <pt x="-113" y="749" on="1"/>
        <pt x="90" y="749" on="1"/>
        <pt x="311" y="915" on="1"/>
        <pt x="103" y="915" on="1"/>
      </contour>
      <contour>
        <pt x="74" y="645" on="1"/>
        <pt x="134" y="645" on="1"/>
        <pt x="134" y="55" on="1"/>
        <pt x="74" y="55" on="1"/>
      </contour>
      <contour>
        <pt x="189" y="701" on="1"/>
        <pt x="19" y="701" on="1"/>
        <pt x="19" y="-1" on="1"/>
        <pt x="189" y="-1" on="1"/>
      </contour>
      <contour>
        <pt x="386" y="940" on="1"/>
        <pt x="477" y="837" on="1"/>
        <pt x="260" y="674" on="1"/>
        <pt x="311" y="623" on="1"/>
        <pt x="311" y="-123" on="1"/>
        <pt x="97" y="-123" on="1"/>
        <pt x="-6" y="-26" on="1"/>
        <pt x="-6" y="627" on="1"/>
        <pt x="-77" y="627" on="1"/>
        <pt x="-186" y="724" on="1"/>
        <pt x="96" y="940" on="1"/>
      </contour>
    </TTGlyph>
    <TTGlyph name="Icircumflex" xMin="-308" yMin="-123" xMax="607" yMax="974">
      <contour>
        <pt x="127" y="901" on="1"/>
        <pt x="169" y="872" on="0"/>
        <pt x="251" y="815" on="0"/>
        <pt x="293" y="786" on="1"/>
        <pt x="237" y="786" on="1"/>
        <pt x="105" y="870" on="1"/>
        <pt x="-28" y="786" on="1"/>
        <pt x="-83" y="786" on="1"/>
        <pt x="83" y="901" on="1"/>
      </contour>
      <contour>
        <pt x="-227" y="751" on="1"/>
        <pt x="1" y="751" on="1"/>
        <pt x="105" y="821" on="1"/>
        <pt x="208" y="751" on="1"/>
        <pt x="436" y="751" on="1"/>
        <pt x="142" y="949" on="1"/>
        <pt x="68" y="949" on="1"/>
      </contour>
      <contour>
        <pt x="74" y="645" on="1"/>
        <pt x="134" y="645" on="1"/>
        <pt x="134" y="55" on="1"/>
        <pt x="74" y="55" on="1"/>
      </contour>
      <contour>
        <pt x="189" y="701" on="1"/>
        <pt x="19" y="701" on="1"/>
        <pt x="19" y="-1" on="1"/>
        <pt x="189" y="-1" on="1"/>
      </contour>
      <contour>
        <pt x="149" y="974" on="1"/>
        <pt x="516" y="726" on="1"/>
        <pt x="607" y="629" on="1"/>
        <pt x="311" y="629" on="1"/>
        <pt x="311" y="623" on="1"/>
        <pt x="311" y="-123" on="1"/>
        <pt x="97" y="-123" on="1"/>
        <pt x="-6" y="-26" on="1"/>
        <pt x="-6" y="629" on="1"/>
        <pt x="-198" y="629" on="1"/>
        <pt x="-308" y="726" on="1"/>
        <pt x="61" y="974" on="1"/>
      </contour>
    </TTGlyph>
    <TTGlyph name="Idieresis" xMin="-132" yMin="-123" xMax="432" yMax="943">
      <contour>
        <pt x="191" y="863" on="1"/>
        <pt x="254" y="863" on="1"/>
        <pt x="254" y="806" on="1"/>
        <pt x="191" y="806" on="1"/>
      </contour>
      <contour>
        <pt x="310" y="918" on="1"/>
        <pt x="135" y="918" on="1"/>
        <pt x="135" y="751" on="1"/>
        <pt x="310" y="751" on="1"/>
      </contour>
      <contour>
        <pt x="-51" y="863" on="1"/>
        <pt x="12" y="863" on="1"/>
        <pt x="12" y="806" on="1"/>
        <pt x="-51" y="806" on="1"/>
      </contour>
      <contour>
        <pt x="67" y="918" on="1"/>
        <pt x="-107" y="918" on="1"/>
        <pt x="-107" y="751" on="1"/>
        <pt x="67" y="751" on="1"/>
      </contour>
      <contour>
        <pt x="74" y="645" on="1"/>
        <pt x="134" y="645" on="1"/>
        <pt x="134" y="55" on="1"/>
        <pt x="74" y="55" on="1"/>
      </contour>
      <contour>
        <pt x="189" y="701" on="1"/>
        <pt x="19" y="701" on="1"/>
        <pt x="19" y="-1" on="1"/>
        <pt x="189" y="-1" on="1"/>
      </contour>
      <contour>
        <pt x="-132" y="726" on="1"/>
        <pt x="-132" y="943" on="1"/>
        <pt x="92" y="943" on="1"/>
        <pt x="110" y="919" on="1"/>
        <pt x="110" y="943" on="1"/>
        <pt x="335" y="943" on="1"/>
        <pt x="432" y="840" on="1"/>
        <pt x="432" y="629" on="1"/>
        <pt x="311" y="629" on="1"/>
        <pt x="311" y="623" on="1"/>
        <pt x="311" y="-123" on="1"/>
        <pt x="97" y="-123" on="1"/>
        <pt x="-6" y="-26" on="1"/>
        <pt x="-6" y="629" on="1"/>
        <pt x="-29" y="629" on="1"/>
      </contour>
    </TTGlyph>
    <TTGlyph name="Igrave" xMin="-186" yMin="-123" xMax="477" yMax="940">
      <contour>
        <pt x="196" y="785" on="1"/>
        <pt x="127" y="785" on="1"/>
        <pt x="95" y="808" on="0"/>
        <pt x="32" y="856" on="0"/>
        <pt x="0" y="879" on="1"/>
        <pt x="70" y="879" on="1"/>
      </contour>
      <contour>
        <pt x="110" y="749" on="1"/>
        <pt x="313" y="749" on="1"/>
        <pt x="97" y="915" on="1"/>
        <pt x="-111" y="915" on="1"/>
      </contour>
      <contour>
        <pt x="74" y="645" on="1"/>
        <pt x="134" y="645" on="1"/>
        <pt x="134" y="55" on="1"/>
        <pt x="74" y="55" on="1"/>
      </contour>
      <contour>
        <pt x="189" y="701" on="1"/>
        <pt x="19" y="701" on="1"/>
        <pt x="19" y="-1" on="1"/>
        <pt x="189" y="-1" on="1"/>
      </contour>
      <contour>
        <pt x="-186" y="940" on="1"/>
        <pt x="104" y="940" on="1"/>
        <pt x="385" y="724" on="1"/>
        <pt x="477" y="627" on="1"/>
        <pt x="307" y="627" on="1"/>
        <pt x="311" y="623" on="1"/>
        <pt x="311" y="-123" on="1"/>
        <pt x="97" y="-123" on="1"/>
        <pt x="-6" y="-26" on="1"/>
        <pt x="-6" y="726" on="1"/>
        <pt x="80" y="726" on="1"/>
      </contour>
    </TTGlyph>
    <TTGlyph name="J" xMin="-32" yMin="-123" xMax="945" yMax="726">
      <contour>
        <pt x="429" y="116" on="1"/>
        <pt x="487" y="116" on="0"/>
        <pt x="588" y="141" on="0"/>
        <pt x="663" y="196" on="0"/>
        <pt x="705" y="285" on="0"/>
        <pt x="705" y="350" on="1"/>
        <pt x="705" y="645" on="1"/>
        <pt x="769" y="645" on="1"/>
        <pt x="769" y="350" on="1"/>
        <pt x="769" y="259" on="0"/>
        <pt x="709" y="144" on="0"/>
        <pt x="607" y="79" on="0"/>
        <pt x="470" y="55" on="0"/>
        <pt x="394" y="55" on="1"/>
        <pt x="350" y="55" on="0"/>
        <pt x="261" y="63" on="0"/>
        <pt x="179" y="87" on="0"/>
        <pt x="106" y="134" on="0"/>
        <pt x="78" y="173" on="1"/>
        <pt x="144" y="213" on="1"/>
        <pt x="171" y="180" on="0"/>
        <pt x="237" y="142" on="0"/>
        <pt x="311" y="122" on="0"/>
        <pt x="389" y="116" on="0"/>
      </contour>
      <contour>
        <pt x="394" y="172" on="1"/>
        <pt x="322" y="172" on="0"/>
        <pt x="201" y="225" on="0"/>
        <pt x="159" y="285" on="1"/>
        <pt x="2" y="191" on="1"/>
        <pt x="39" y="125" on="0"/>
        <pt x="131" y="49" on="0"/>
        <pt x="239" y="10" on="0"/>
        <pt x="361" y="-1" on="0"/>
        <pt x="429" y="-1" on="1"/>
        <pt x="516" y="-1" on="0"/>
        <pt x="660" y="38" on="0"/>
        <pt x="765" y="122" on="0"/>
        <pt x="823" y="255" on="0"/>
        <pt x="823" y="350" on="1"/>
        <pt x="823" y="701" on="1"/>
        <pt x="650" y="701" on="1"/>
        <pt x="650" y="350" on="1"/>
        <pt x="650" y="290" on="0"/>
        <pt x="606" y="220" on="0"/>
        <pt x="534" y="183" on="0"/>
        <pt x="442" y="172" on="0"/>
      </contour>
      <contour>
        <pt x="394" y="197" on="1"/>
        <pt x="437" y="197" on="0"/>
        <pt x="520" y="207" on="0"/>
        <pt x="585" y="238" on="0"/>
        <pt x="625" y="299" on="0"/>
        <pt x="625" y="350" on="1"/>
        <pt x="625" y="726" on="1"/>
        <pt x="848" y="726" on="1"/>
        <pt x="945" y="623" on="1"/>
        <pt x="945" y="250" on="1"/>
        <pt x="945" y="149" on="0"/>
        <pt x="884" y="7" on="0"/>
        <pt x="773" y="-82" on="0"/>
        <pt x="620" y="-123" on="0"/>
        <pt x="529" y="-123" on="1"/>
        <pt x="473" y="-123" on="0"/>
        <pt x="368" y="-116" on="0"/>
        <pt x="271" y="-92" on="0"/>
        <pt x="182" y="-47" on="0"/>
        <pt x="143" y="-8" on="1"/>
        <pt x="101" y="30" on="0"/>
        <pt x="46" y="88" on="0"/>
        <pt x="8" y="136" on="0"/>
        <pt x="-19" y="178" on="0"/>
        <pt x="-32" y="201" on="1"/>
        <pt x="165" y="318" on="1"/>
        <pt x="172" y="307" on="0"/>
        <pt x="181" y="296" on="1"/>
        <pt x="189" y="286" on="0"/>
        <pt x="210" y="262" on="0"/>
        <pt x="224" y="251" on="1"/>
        <pt x="260" y="223" on="0"/>
        <pt x="349" y="197" on="0"/>
      </contour>
    </TTGlyph>
    <TTGlyph name="K" xMin="4" yMin="-123" xMax="1194" yMax="726">
      <contour>
        <pt x="84" y="645" on="1"/>
        <pt x="145" y="645" on="1"/>
        <pt x="145" y="391" on="1"/>
        <pt x="642" y="645" on="1"/>
        <pt x="744" y="645" on="1"/>
        <pt x="160" y="350" on="1"/>
        <pt x="305" y="275" on="0"/>
        <pt x="592" y="130" on="0"/>
        <pt x="737" y="55" on="1"/>
        <pt x="642" y="55" on="1"/>
        <pt x="145" y="308" on="1"/>
        <pt x="145" y="55" on="1"/>
        <pt x="84" y="55" on="1"/>
      </contour>
      <contour>
        <pt x="201" y="217" on="1"/>
        <pt x="626" y="-1" on="1"/>
        <pt x="937" y="0" on="1"/>
        <pt x="769" y="87" on="0"/>
        <pt x="439" y="262" on="0"/>
        <pt x="271" y="350" on="1"/>
        <pt x="946" y="701" on="1"/>
        <pt x="626" y="701" on="1"/>
        <pt x="520" y="645" on="0"/>
        <pt x="308" y="538" on="0"/>
        <pt x="201" y="483" on="1"/>
        <pt x="201" y="701" on="1"/>
        <pt x="29" y="701" on="1"/>
        <pt x="29" y="-1" on="1"/>
        <pt x="201" y="-1" on="1"/>
      </contour>
      <contour>
        <pt x="467" y="274" on="1"/>
        <pt x="555" y="228" on="1"/>
        <pt x="603" y="203" on="0"/>
        <pt x="706" y="149" on="0"/>
        <pt x="810" y="95" on="0"/>
        <pt x="913" y="41" on="0"/>
        <pt x="960" y="17" on="1"/>
        <pt x="1194" y="-122" on="1"/>
        <pt x="720" y="-123" on="1"/>
        <pt x="323" y="81" on="1"/>
        <pt x="323" y="-123" on="1"/>
        <pt x="107" y="-123" on="1"/>
        <pt x="4" y="-26" on="1"/>
        <pt x="4" y="726" on="1"/>
        <pt x="226" y="726" on="1"/>
        <pt x="323" y="623" on="1"/>
        <pt x="323" y="574" on="1"/>
        <pt x="357" y="591" on="0"/>
        <pt x="422" y="624" on="0"/>
        <pt x="492" y="660" on="0"/>
        <pt x="571" y="701" on="0"/>
        <pt x="619" y="726" on="1"/>
        <pt x="958" y="726" on="1"/>
        <pt x="1084" y="595" on="1"/>
      </contour>
    </TTGlyph>
    <TTGlyph name="L" xMin="-1" yMin="-123" xMax="881" yMax="726">
      <contour>
        <pt x="79" y="645" on="1"/>
        <pt x="139" y="645" on="1"/>
        <pt x="139" y="116" on="1"/>
        <pt x="704" y="116" on="1"/>
        <pt x="704" y="55" on="1"/>
        <pt x="79" y="55" on="1"/>
      </contour>
      <contour>
        <pt x="24" y="-1" on="1"/>
        <pt x="759" y="-1" on="1"/>
        <pt x="759" y="172" on="1"/>
        <pt x="195" y="172" on="1"/>
        <pt x="195" y="701" on="1"/>
        <pt x="24" y="701" on="1"/>
      </contour>
      <contour>
        <pt x="-1" y="726" on="1"/>
        <pt x="220" y="726" on="1"/>
        <pt x="317" y="623" on="1"/>
        <pt x="317" y="197" on="1"/>
        <pt x="784" y="197" on="1"/>
        <pt x="881" y="94" on="1"/>
        <pt x="881" y="-123" on="1"/>
        <pt x="102" y="-123" on="1"/>
        <pt x="-1" y="-26" on="1"/>
      </contour>
    </TTGlyph>
    <TTGlyph name="Lslash" xMin="-90" yMin="-125" xMax="1112" yMax="731">
      <contour>
        <pt x="370" y="121" on="1"/>
        <pt x="935" y="121" on="1"/>
        <pt x="935" y="60" on="1"/>
        <pt x="310" y="60" on="1"/>
        <pt x="310" y="200" on="1"/>
        <pt x="174" y="53" on="1"/>
        <pt x="92" y="53" on="1"/>
        <pt x="310" y="290" on="1"/>
        <pt x="310" y="650" on="1"/>
        <pt x="370" y="650" on="1"/>
        <pt x="370" y="349" on="1"/>
        <pt x="509" y="499" on="1"/>
        <pt x="591" y="499" on="1"/>
        <pt x="535" y="439" on="0"/>
        <pt x="425" y="319" on="0"/>
        <pt x="370" y="259" on="1"/>
      </contour>
      <contour>
        <pt x="255" y="57" on="1"/>
        <pt x="255" y="4" on="1"/>
        <pt x="990" y="4" on="1"/>
        <pt x="990" y="177" on="1"/>
        <pt x="426" y="177" on="1"/>
        <pt x="426" y="242" on="1"/>
        <pt x="716" y="555" on="1"/>
        <pt x="484" y="555" on="1"/>
        <pt x="426" y="492" on="1"/>
        <pt x="426" y="706" on="1"/>
        <pt x="255" y="706" on="1"/>
        <pt x="255" y="308" on="1"/>
        <pt x="-33" y="-3" on="1"/>
        <pt x="199" y="-3" on="1"/>
      </contour>
      <contour>
        <pt x="611" y="202" on="1"/>
        <pt x="1015" y="202" on="1"/>
        <pt x="1112" y="99" on="1"/>
        <pt x="1112" y="-118" on="1"/>
        <pt x="333" y="-118" on="1"/>
        <pt x="324" y="-109" on="1"/>
        <pt x="309" y="-125" on="1"/>
        <pt x="17" y="-125" on="1"/>
        <pt x="-90" y="-28" on="1"/>
        <pt x="230" y="318" on="1"/>
        <pt x="230" y="731" on="1"/>
        <pt x="451" y="731" on="1"/>
        <pt x="548" y="628" on="1"/>
        <pt x="548" y="580" on="1"/>
        <pt x="773" y="580" on="1"/>
        <pt x="866" y="477" on="1"/>
      </contour>
    </TTGlyph>
    <TTGlyph name="M" xMin="12" yMin="-123" xMax="1064" yMax="726">
      <contour>
        <pt x="92" y="645" on="1"/>
        <pt x="144" y="645" on="1"/>
        <pt x="489" y="133" on="1"/>
        <pt x="574" y="263" on="0"/>
        <pt x="747" y="517" on="0"/>
        <pt x="835" y="645" on="1"/>
        <pt x="887" y="645" on="1"/>
        <pt x="887" y="55" on="1"/>
        <pt x="825" y="55" on="1"/>
        <pt x="825" y="519" on="1"/>
        <pt x="514" y="55" on="1"/>
        <pt x="465" y="55" on="1"/>
        <pt x="154" y="518" on="1"/>
        <pt x="154" y="55" on="1"/>
        <pt x="92" y="55" on="1"/>
      </contour>
      <contour>
        <pt x="209" y="336" on="1"/>
        <pt x="434" y="-1" on="1"/>
        <pt x="544" y="-1" on="1"/>
        <pt x="770" y="337" on="1"/>
        <pt x="770" y="-1" on="1"/>
        <pt x="942" y="-1" on="1"/>
        <pt x="942" y="701" on="1"/>
        <pt x="804" y="701" on="1"/>
        <pt x="488" y="233" on="1"/>
        <pt x="174" y="701" on="1"/>
        <pt x="37" y="701" on="1"/>
        <pt x="37" y="-1" on="1"/>
        <pt x="209" y="-1" on="1"/>
      </contour>
      <contour>
        <pt x="285" y="623" on="1"/>
        <pt x="502" y="298" on="1"/>
        <pt x="792" y="726" on="1"/>
        <pt x="967" y="726" on="1"/>
        <pt x="1064" y="623" on="1"/>
        <pt x="1064" y="-123" on="1"/>
        <pt x="848" y="-123" on="1"/>
        <pt x="745" y="-26" on="1"/>
        <pt x="745" y="11" on="1"/>
        <pt x="655" y="-123" on="1"/>
        <pt x="523" y="-123" on="1"/>
        <pt x="422" y="-26" on="1"/>
        <pt x="331" y="110" on="1"/>
        <pt x="331" y="-123" on="1"/>
        <pt x="115" y="-123" on="1"/>
        <pt x="12" y="-26" on="1"/>
        <pt x="12" y="726" on="1"/>
        <pt x="186" y="726" on="1"/>
      </contour>
    </TTGlyph>
    <TTGlyph name="N" xMin="-1" yMin="-123" xMax="906" yMax="726">
      <contour>
        <pt x="678" y="55" on="1"/>
        <pt x="139" y="550" on="1"/>
        <pt x="139" y="55" on="1"/>
        <pt x="80" y="55" on="1"/>
        <pt x="80" y="645" on="1"/>
        <pt x="131" y="645" on="1"/>
        <pt x="668" y="150" on="1"/>
        <pt x="668" y="645" on="1"/>
        <pt x="728" y="645" on="1"/>
        <pt x="728" y="55" on="1"/>
      </contour>
      <contour>
        <pt x="784" y="-1" on="1"/>
        <pt x="784" y="701" on="1"/>
        <pt x="613" y="701" on="1"/>
        <pt x="613" y="276" on="1"/>
        <pt x="150" y="701" on="1"/>
        <pt x="24" y="701" on="1"/>
        <pt x="24" y="-1" on="1"/>
        <pt x="195" y="-1" on="1"/>
        <pt x="195" y="425" on="1"/>
        <pt x="659" y="-1" on="1"/>
      </contour>
      <contour>
        <pt x="-1" y="-26" on="1"/>
        <pt x="-1" y="726" on="1"/>
        <pt x="159" y="726" on="1"/>
        <pt x="588" y="333" on="1"/>
        <pt x="588" y="726" on="1"/>
        <pt x="809" y="726" on="1"/>
        <pt x="906" y="623" on="1"/>
        <pt x="906" y="-123" on="1"/>
        <pt x="750" y="-123" on="1"/>
        <pt x="317" y="274" on="1"/>
        <pt x="317" y="-123" on="1"/>
        <pt x="102" y="-123" on="1"/>
      </contour>
    </TTGlyph>
    <TTGlyph name="Ntilde" xMin="-1" yMin="-123" xMax="906" yMax="982">
      <contour>
        <pt x="632" y="876" on="1"/>
        <pt x="621" y="864" on="0"/>
        <pt x="590" y="832" on="0"/>
        <pt x="554" y="805" on="0"/>
        <pt x="516" y="786" on="0"/>
        <pt x="499" y="786" on="1"/>
        <pt x="467" y="786" on="0"/>
        <pt x="423" y="809" on="0"/>
        <pt x="386" y="838" on="0"/>
        <pt x="352" y="861" on="0"/>
        <pt x="331" y="861" on="1"/>
        <pt x="309" y="861" on="0"/>
        <pt x="279" y="830" on="0"/>
        <pt x="268" y="814" on="1"/>
        <pt x="199" y="814" on="1"/>
        <pt x="210" y="826" on="0"/>
        <pt x="242" y="856" on="0"/>
        <pt x="278" y="883" on="0"/>
        <pt x="316" y="902" on="0"/>
        <pt x="333" y="902" on="1"/>
        <pt x="367" y="902" on="0"/>
        <pt x="411" y="879" on="0"/>
        <pt x="445" y="852" on="0"/>
        <pt x="478" y="830" on="0"/>
        <pt x="501" y="830" on="1"/>
        <pt x="522" y="830" on="0"/>
        <pt x="553" y="860" on="0"/>
        <pt x="564" y="876" on="1"/>
      </contour>
      <contour>
        <pt x="540" y="931" on="1"/>
        <pt x="538" y="926" on="0"/>
        <pt x="529" y="911" on="0"/>
        <pt x="519" y="896" on="0"/>
        <pt x="507" y="885" on="0"/>
        <pt x="501" y="885" on="1"/>
        <pt x="486" y="885" on="0"/>
        <pt x="451" y="907" on="0"/>
        <pt x="409" y="934" on="0"/>
        <pt x="361" y="957" on="0"/>
        <pt x="333" y="957" on="1"/>
        <pt x="298" y="957" on="0"/>
        <pt x="230" y="916" on="0"/>
        <pt x="171" y="856" on="0"/>
        <pt x="124" y="787" on="0"/>
        <pt x="109" y="759" on="1"/>
        <pt x="302" y="759" on="1"/>
        <pt x="307" y="770" on="0"/>
        <pt x="328" y="799" on="0"/>
        <pt x="342" y="799" on="1"/>
        <pt x="350" y="799" on="0"/>
        <pt x="374" y="780" on="0"/>
        <pt x="411" y="757" on="0"/>
        <pt x="463" y="738" on="0"/>
        <pt x="499" y="738" on="1"/>
        <pt x="534" y="738" on="0"/>
        <pt x="601" y="777" on="0"/>
        <pt x="660" y="835" on="0"/>
        <pt x="708" y="902" on="0"/>
        <pt x="723" y="931" on="1"/>
      </contour>
      <contour>
        <pt x="139" y="550" on="1"/>
        <pt x="139" y="55" on="1"/>
        <pt x="80" y="55" on="1"/>
        <pt x="80" y="645" on="1"/>
        <pt x="131" y="645" on="1"/>
        <pt x="668" y="150" on="1"/>
        <pt x="668" y="645" on="1"/>
        <pt x="728" y="645" on="1"/>
        <pt x="728" y="55" on="1"/>
        <pt x="678" y="55" on="1"/>
      </contour>
      <contour>
        <pt x="784" y="701" on="1"/>
        <pt x="613" y="701" on="1"/>
        <pt x="613" y="276" on="1"/>
        <pt x="150" y="701" on="1"/>
        <pt x="24" y="701" on="1"/>
        <pt x="24" y="-1" on="1"/>
        <pt x="195" y="-1" on="1"/>
        <pt x="195" y="425" on="1"/>
        <pt x="659" y="-1" on="1"/>
        <pt x="784" y="-1" on="1"/>
      </contour>
      <contour>
        <pt x="764" y="956" on="1"/>
        <pt x="859" y="853" on="1"/>
        <pt x="843" y="824" on="0"/>
        <pt x="800" y="757" on="0"/>
        <pt x="773" y="726" on="1"/>
        <pt x="809" y="726" on="1"/>
        <pt x="906" y="623" on="1"/>
        <pt x="906" y="-123" on="1"/>
        <pt x="750" y="-123" on="1"/>
        <pt x="317" y="274" on="1"/>
        <pt x="317" y="-123" on="1"/>
        <pt x="102" y="-123" on="1"/>
        <pt x="-1" y="-26" on="1"/>
        <pt x="-1" y="726" on="1"/>
        <pt x="84" y="726" on="1"/>
        <pt x="68" y="734" on="1"/>
        <pt x="86" y="770" on="0"/>
        <pt x="144" y="856" on="0"/>
        <pt x="214" y="931" on="0"/>
        <pt x="293" y="982" on="0"/>
        <pt x="333" y="982" on="1"/>
        <pt x="370" y="982" on="0"/>
        <pt x="431" y="950" on="0"/>
        <pt x="457" y="933" on="1"/>
        <pt x="471" y="924" on="0"/>
        <pt x="486" y="916" on="0"/>
        <pt x="494" y="916" on="1"/>
        <pt x="502" y="915" on="0"/>
        <pt x="513" y="927" on="0"/>
        <pt x="517" y="935" on="1"/>
        <pt x="521" y="944" on="0"/>
        <pt x="524" y="956" on="1"/>
      </contour>
      <contour>
        <pt x="256" y="637" on="1"/>
        <pt x="588" y="333" on="1"/>
        <pt x="588" y="616" on="1"/>
        <pt x="538" y="618" on="0"/>
        <pt x="476" y="652" on="0"/>
        <pt x="457" y="666" on="1"/>
        <pt x="453" y="668" on="0"/>
        <pt x="448" y="672" on="0"/>
        <pt x="446" y="674" on="1"/>
        <pt x="443" y="676" on="0"/>
        <pt x="442" y="677" on="1"/>
        <pt x="436" y="677" on="0"/>
        <pt x="421" y="648" on="0"/>
        <pt x="416" y="637" on="1"/>
      </contour>
    </TTGlyph>
    <TTGlyph name="O" xMin="16" yMin="-123" xMax="1063" yMax="726">
      <contour>
        <pt x="547" y="116" on="1"/>
        <pt x="605" y="116" on="0"/>
        <pt x="706" y="141" on="0"/>
        <pt x="781" y="196" on="0"/>
        <pt x="823" y="285" on="0"/>
        <pt x="823" y="350" on="1"/>
        <pt x="823" y="414" on="0"/>
        <pt x="780" y="504" on="0"/>
        <pt x="706" y="559" on="0"/>
        <pt x="605" y="584" on="0"/>
        <pt x="547" y="584" on="1"/>
        <pt x="437" y="584" on="1"/>
        <pt x="378" y="584" on="0"/>
        <pt x="277" y="559" on="0"/>
        <pt x="203" y="504" on="0"/>
        <pt x="160" y="414" on="0"/>
        <pt x="160" y="350" on="1"/>
        <pt x="160" y="285" on="0"/>
        <pt x="203" y="196" on="0"/>
        <pt x="277" y="140" on="0"/>
        <pt x="378" y="116" on="0"/>
        <pt x="437" y="116" on="1"/>
      </contour>
      <contour>
        <pt x="437" y="172" on="1"/>
        <pt x="392" y="172" on="0"/>
        <pt x="312" y="190" on="0"/>
        <pt x="252" y="231" on="0"/>
        <pt x="216" y="299" on="0"/>
        <pt x="216" y="350" on="1"/>
        <pt x="216" y="400" on="0"/>
        <pt x="252" y="468" on="0"/>
        <pt x="313" y="510" on="0"/>
        <pt x="393" y="528" on="0"/>
        <pt x="437" y="528" on="1"/>
        <pt x="547" y="528" on="1"/>
        <pt x="591" y="528" on="0"/>
        <pt x="671" y="510" on="0"/>
        <pt x="731" y="468" on="0"/>
        <pt x="767" y="400" on="0"/>
        <pt x="767" y="350" on="1"/>
        <pt x="767" y="300" on="0"/>
        <pt x="732" y="232" on="0"/>
        <pt x="672" y="190" on="0"/>
        <pt x="592" y="172" on="0"/>
        <pt x="547" y="172" on="1"/>
      </contour>
      <contour>
        <pt x="97" y="350" on="1"/>
        <pt x="97" y="431" on="0"/>
        <pt x="148" y="543" on="0"/>
        <pt x="239" y="614" on="0"/>
        <pt x="364" y="645" on="0"/>
        <pt x="437" y="645" on="1"/>
        <pt x="547" y="645" on="1"/>
        <pt x="620" y="645" on="0"/>
        <pt x="744" y="613" on="0"/>
        <pt x="835" y="543" on="0"/>
        <pt x="886" y="431" on="0"/>
        <pt x="886" y="350" on="1"/>
        <pt x="886" y="269" on="0"/>
        <pt x="835" y="157" on="0"/>
        <pt x="744" y="87" on="0"/>
        <pt x="620" y="55" on="0"/>
        <pt x="547" y="55" on="1"/>
        <pt x="437" y="55" on="1"/>
        <pt x="364" y="55" on="0"/>
        <pt x="239" y="86" on="0"/>
        <pt x="148" y="157" on="0"/>
        <pt x="97" y="269" on="0"/>
      </contour>
      <contour>
        <pt x="41" y="350" on="1"/>
        <pt x="41" y="255" on="0"/>
        <pt x="100" y="122" on="0"/>
        <pt x="205" y="38" on="0"/>
        <pt x="350" y="-1" on="0"/>
        <pt x="437" y="-1" on="1"/>
        <pt x="547" y="-1" on="1"/>
        <pt x="634" y="-1" on="0"/>
        <pt x="778" y="38" on="0"/>
        <pt x="883" y="122" on="0"/>
        <pt x="941" y="255" on="0"/>
        <pt x="941" y="350" on="1"/>
        <pt x="941" y="445" on="0"/>
        <pt x="883" y="578" on="0"/>
        <pt x="778" y="662" on="0"/>
        <pt x="634" y="701" on="0"/>
        <pt x="547" y="701" on="1"/>
        <pt x="437" y="701" on="1"/>
        <pt x="350" y="701" on="0"/>
        <pt x="205" y="662" on="0"/>
        <pt x="100" y="578" on="0"/>
        <pt x="41" y="445" on="0"/>
      </contour>
      <contour>
        <pt x="16" y="350" on="1"/>
        <pt x="16" y="452" on="0"/>
        <pt x="78" y="595" on="0"/>
        <pt x="190" y="685" on="0"/>
        <pt x="345" y="726" on="0"/>
        <pt x="437" y="726" on="1"/>
        <pt x="547" y="726" on="1"/>
        <pt x="605" y="726" on="0"/>
        <pt x="708" y="713" on="0"/>
        <pt x="808" y="672" on="0"/>
        <pt x="907" y="597" on="0"/>
        <pt x="960" y="534" on="1"/>
        <pt x="1005" y="489" on="0"/>
        <pt x="1063" y="341" on="0"/>
        <pt x="1063" y="250" on="1"/>
        <pt x="1063" y="149" on="0"/>
        <pt x="1002" y="7" on="0"/>
        <pt x="891" y="-82" on="0"/>
        <pt x="738" y="-123" on="0"/>
        <pt x="647" y="-123" on="1"/>
        <pt x="537" y="-123" on="1"/>
        <pt x="435" y="-123" on="0"/>
        <pt x="259" y="-77" on="0"/>
        <pt x="202" y="-21" on="1"/>
        <pt x="145" y="29" on="0"/>
        <pt x="73" y="118" on="0"/>
        <pt x="32" y="206" on="0"/>
        <pt x="16" y="298" on="0"/>
      </contour>
      <contour>
        <pt x="547" y="197" on="1"/>
        <pt x="586" y="197" on="0"/>
        <pt x="657" y="212" on="0"/>
        <pt x="711" y="248" on="0"/>
        <pt x="742" y="307" on="0"/>
        <pt x="742" y="350" on="1"/>
        <pt x="742" y="374" on="0"/>
        <pt x="736" y="394" on="1"/>
        <pt x="695" y="406" on="0"/>
        <pt x="647" y="406" on="1"/>
        <pt x="537" y="406" on="1"/>
        <pt x="497" y="406" on="0"/>
        <pt x="425" y="390" on="0"/>
        <pt x="370" y="354" on="0"/>
        <pt x="338" y="294" on="0"/>
        <pt x="338" y="250" on="1"/>
        <pt x="338" y="226" on="0"/>
        <pt x="342" y="210" on="1"/>
        <pt x="363" y="203" on="0"/>
        <pt x="411" y="197" on="0"/>
        <pt x="437" y="197" on="1"/>
      </contour>
    </TTGlyph>
    <TTGlyph name="OE" xMin="43" yMin="-123" xMax="1381" yMax="726">
      <contour>
        <pt x="187" y="350" on="1"/>
        <pt x="187" y="285" on="0"/>
        <pt x="229" y="196" on="0"/>
        <pt x="304" y="140" on="0"/>
        <pt x="404" y="116" on="0"/>
        <pt x="463" y="116" on="1"/>
        <pt x="623" y="116" on="1"/>
        <pt x="623" y="584" on="1"/>
        <pt x="463" y="584" on="1"/>
        <pt x="404" y="584" on="0"/>
        <pt x="304" y="559" on="0"/>
        <pt x="229" y="504" on="0"/>
        <pt x="187" y="414" on="0"/>
      </contour>
      <contour>
        <pt x="242" y="350" on="1"/>
        <pt x="242" y="400" on="0"/>
        <pt x="278" y="468" on="0"/>
        <pt x="339" y="510" on="0"/>
        <pt x="419" y="528" on="0"/>
        <pt x="463" y="528" on="1"/>
        <pt x="567" y="528" on="1"/>
        <pt x="567" y="172" on="1"/>
        <pt x="463" y="172" on="1"/>
        <pt x="418" y="172" on="0"/>
        <pt x="338" y="190" on="0"/>
        <pt x="278" y="231" on="0"/>
        <pt x="242" y="299" on="0"/>
      </contour>
      <contour>
        <pt x="1099" y="380" on="1"/>
        <pt x="1099" y="320" on="1"/>
        <pt x="684" y="320" on="1"/>
        <pt x="684" y="116" on="1"/>
        <pt x="1204" y="116" on="1"/>
        <pt x="1204" y="55" on="1"/>
        <pt x="463" y="55" on="1"/>
        <pt x="390" y="55" on="0"/>
        <pt x="266" y="86" on="0"/>
        <pt x="175" y="157" on="0"/>
        <pt x="123" y="269" on="0"/>
        <pt x="123" y="350" on="1"/>
        <pt x="123" y="431" on="0"/>
        <pt x="175" y="543" on="0"/>
        <pt x="266" y="614" on="0"/>
        <pt x="390" y="645" on="0"/>
        <pt x="463" y="645" on="1"/>
        <pt x="1203" y="645" on="1"/>
        <pt x="1203" y="584" on="1"/>
        <pt x="684" y="584" on="1"/>
        <pt x="684" y="380" on="1"/>
      </contour>
      <contour>
        <pt x="1258" y="528" on="1"/>
        <pt x="1258" y="701" on="1"/>
        <pt x="463" y="701" on="1"/>
        <pt x="376" y="701" on="0"/>
        <pt x="231" y="662" on="0"/>
        <pt x="126" y="578" on="0"/>
        <pt x="68" y="445" on="0"/>
        <pt x="68" y="350" on="1"/>
        <pt x="68" y="255" on="0"/>
        <pt x="126" y="122" on="0"/>
        <pt x="231" y="38" on="0"/>
        <pt x="376" y="-1" on="0"/>
        <pt x="463" y="-1" on="1"/>
        <pt x="1259" y="-1" on="1"/>
        <pt x="1259" y="172" on="1"/>
        <pt x="738" y="172" on="1"/>
        <pt x="738" y="265" on="1"/>
        <pt x="1155" y="265" on="1"/>
        <pt x="1155" y="435" on="1"/>
        <pt x="738" y="435" on="1"/>
        <pt x="738" y="528" on="1"/>
      </contour>
      <contour>
        <pt x="228" y="-28" on="1"/>
        <pt x="172" y="21" on="0"/>
        <pt x="100" y="112" on="0"/>
        <pt x="59" y="203" on="0"/>
        <pt x="43" y="297" on="0"/>
        <pt x="43" y="350" on="1"/>
        <pt x="43" y="452" on="0"/>
        <pt x="105" y="595" on="0"/>
        <pt x="216" y="685" on="0"/>
        <pt x="371" y="726" on="0"/>
        <pt x="463" y="726" on="1"/>
        <pt x="1283" y="726" on="1"/>
        <pt x="1380" y="623" on="1"/>
        <pt x="1380" y="406" on="1"/>
        <pt x="1228" y="406" on="1"/>
        <pt x="1277" y="357" on="1"/>
        <pt x="1277" y="197" on="1"/>
        <pt x="1284" y="197" on="1"/>
        <pt x="1381" y="94" on="1"/>
        <pt x="1381" y="-123" on="1"/>
        <pt x="563" y="-123" on="1"/>
        <pt x="512" y="-123" on="0"/>
        <pt x="416" y="-114" on="0"/>
        <pt x="329" y="-92" on="0"/>
        <pt x="256" y="-56" on="0"/>
      </contour>
      <contour>
        <pt x="364" y="250" on="1"/>
        <pt x="364" y="226" on="0"/>
        <pt x="368" y="210" on="1"/>
        <pt x="389" y="203" on="0"/>
        <pt x="437" y="197" on="0"/>
        <pt x="463" y="197" on="1"/>
        <pt x="542" y="197" on="1"/>
        <pt x="542" y="405" on="1"/>
        <pt x="505" y="403" on="0"/>
        <pt x="440" y="385" on="0"/>
        <pt x="392" y="348" on="0"/>
        <pt x="364" y="291" on="0"/>
      </contour>
    </TTGlyph>
    <TTGlyph name="Oacute" xMin="16" yMin="-123" xMax="1063" yMax="940">
      <contour>
        <pt x="580" y="879" on="1"/>
        <pt x="548" y="856" on="0"/>
        <pt x="485" y="808" on="0"/>
        <pt x="453" y="785" on="1"/>
        <pt x="384" y="785" on="1"/>
        <pt x="510" y="879" on="1"/>
      </contour>
      <contour>
        <pt x="267" y="749" on="1"/>
        <pt x="470" y="749" on="1"/>
        <pt x="691" y="915" on="1"/>
        <pt x="483" y="915" on="1"/>
      </contour>
      <contour>
        <pt x="547" y="116" on="1"/>
        <pt x="605" y="116" on="0"/>
        <pt x="706" y="141" on="0"/>
        <pt x="781" y="196" on="0"/>
        <pt x="823" y="285" on="0"/>
        <pt x="823" y="350" on="1"/>
        <pt x="823" y="414" on="0"/>
        <pt x="780" y="504" on="0"/>
        <pt x="706" y="559" on="0"/>
        <pt x="605" y="584" on="0"/>
        <pt x="547" y="584" on="1"/>
        <pt x="437" y="584" on="1"/>
        <pt x="378" y="584" on="0"/>
        <pt x="277" y="559" on="0"/>
        <pt x="203" y="504" on="0"/>
        <pt x="160" y="414" on="0"/>
        <pt x="160" y="350" on="1"/>
        <pt x="160" y="285" on="0"/>
        <pt x="203" y="196" on="0"/>
        <pt x="277" y="140" on="0"/>
        <pt x="378" y="116" on="0"/>
        <pt x="437" y="116" on="1"/>
      </contour>
      <contour>
        <pt x="437" y="172" on="1"/>
        <pt x="392" y="172" on="0"/>
        <pt x="312" y="190" on="0"/>
        <pt x="252" y="231" on="0"/>
        <pt x="216" y="299" on="0"/>
        <pt x="216" y="350" on="1"/>
        <pt x="216" y="400" on="0"/>
        <pt x="252" y="468" on="0"/>
        <pt x="313" y="510" on="0"/>
        <pt x="393" y="528" on="0"/>
        <pt x="437" y="528" on="1"/>
        <pt x="547" y="528" on="1"/>
        <pt x="591" y="528" on="0"/>
        <pt x="671" y="510" on="0"/>
        <pt x="731" y="468" on="0"/>
        <pt x="767" y="400" on="0"/>
        <pt x="767" y="350" on="1"/>
        <pt x="767" y="300" on="0"/>
        <pt x="732" y="232" on="0"/>
        <pt x="672" y="190" on="0"/>
        <pt x="592" y="172" on="0"/>
        <pt x="547" y="172" on="1"/>
      </contour>
      <contour>
        <pt x="97" y="350" on="1"/>
        <pt x="97" y="431" on="0"/>
        <pt x="148" y="543" on="0"/>
        <pt x="239" y="614" on="0"/>
        <pt x="364" y="645" on="0"/>
        <pt x="437" y="645" on="1"/>
        <pt x="547" y="645" on="1"/>
        <pt x="620" y="645" on="0"/>
        <pt x="744" y="613" on="0"/>
        <pt x="835" y="543" on="0"/>
        <pt x="886" y="431" on="0"/>
        <pt x="886" y="350" on="1"/>
        <pt x="886" y="269" on="0"/>
        <pt x="835" y="157" on="0"/>
        <pt x="744" y="87" on="0"/>
        <pt x="620" y="55" on="0"/>
        <pt x="547" y="55" on="1"/>
        <pt x="437" y="55" on="1"/>
        <pt x="364" y="55" on="0"/>
        <pt x="239" y="86" on="0"/>
        <pt x="148" y="157" on="0"/>
        <pt x="97" y="269" on="0"/>
      </contour>
      <contour>
        <pt x="41" y="350" on="1"/>
        <pt x="41" y="255" on="0"/>
        <pt x="100" y="122" on="0"/>
        <pt x="205" y="38" on="0"/>
        <pt x="350" y="-1" on="0"/>
        <pt x="437" y="-1" on="1"/>
        <pt x="547" y="-1" on="1"/>
        <pt x="634" y="-1" on="0"/>
        <pt x="778" y="38" on="0"/>
        <pt x="883" y="122" on="0"/>
        <pt x="941" y="255" on="0"/>
        <pt x="941" y="350" on="1"/>
        <pt x="941" y="445" on="0"/>
        <pt x="883" y="578" on="0"/>
        <pt x="778" y="662" on="0"/>
        <pt x="634" y="701" on="0"/>
        <pt x="547" y="701" on="1"/>
        <pt x="437" y="701" on="1"/>
        <pt x="350" y="701" on="0"/>
        <pt x="205" y="662" on="0"/>
        <pt x="100" y="578" on="0"/>
        <pt x="41" y="445" on="0"/>
      </contour>
      <contour>
        <pt x="766" y="940" on="1"/>
        <pt x="857" y="837" on="1"/>
        <pt x="690" y="712" on="1"/>
        <pt x="723" y="704" on="0"/>
        <pt x="786" y="684" on="0"/>
        <pt x="852" y="645" on="0"/>
        <pt x="926" y="581" on="0"/>
        <pt x="970" y="530" on="1"/>
        <pt x="1015" y="485" on="0"/>
        <pt x="1063" y="341" on="0"/>
        <pt x="1063" y="250" on="1"/>
        <pt x="1063" y="149" on="0"/>
        <pt x="1002" y="7" on="0"/>
        <pt x="891" y="-82" on="0"/>
        <pt x="738" y="-123" on="0"/>
        <pt x="647" y="-123" on="1"/>
        <pt x="537" y="-123" on="1"/>
        <pt x="486" y="-123" on="0"/>
        <pt x="389" y="-112" on="0"/>
        <pt x="302" y="-88" on="0"/>
        <pt x="228" y="-50" on="0"/>
        <pt x="200" y="-22" on="1"/>
        <pt x="143" y="28" on="0"/>
        <pt x="72" y="117" on="0"/>
        <pt x="31" y="206" on="0"/>
        <pt x="16" y="298" on="0"/>
        <pt x="16" y="350" on="1"/>
        <pt x="16" y="420" on="0"/>
        <pt x="46" y="532" on="0"/>
        <pt x="103" y="617" on="0"/>
        <pt x="184" y="677" on="0"/>
        <pt x="235" y="695" on="1"/>
        <pt x="194" y="724" on="1"/>
        <pt x="476" y="940" on="1"/>
      </contour>
      <contour>
        <pt x="547" y="197" on="1"/>
        <pt x="586" y="197" on="0"/>
        <pt x="657" y="212" on="0"/>
        <pt x="711" y="248" on="0"/>
        <pt x="742" y="307" on="0"/>
        <pt x="742" y="350" on="1"/>
        <pt x="742" y="374" on="0"/>
        <pt x="736" y="394" on="1"/>
        <pt x="695" y="406" on="0"/>
        <pt x="647" y="406" on="1"/>
        <pt x="537" y="406" on="1"/>
        <pt x="497" y="406" on="0"/>
        <pt x="425" y="390" on="0"/>
        <pt x="370" y="354" on="0"/>
        <pt x="338" y="294" on="0"/>
        <pt x="338" y="250" on="1"/>
        <pt x="338" y="226" on="0"/>
        <pt x="342" y="210" on="1"/>
        <pt x="363" y="203" on="0"/>
        <pt x="411" y="197" on="0"/>
        <pt x="437" y="197" on="1"/>
      </contour>
    </TTGlyph>
    <TTGlyph name="Ocircumflex" xMin="16" yMin="-123" xMax="1063" yMax="974">
      <contour>
        <pt x="513" y="901" on="1"/>
        <pt x="555" y="872" on="0"/>
        <pt x="637" y="815" on="0"/>
        <pt x="679" y="786" on="1"/>
        <pt x="623" y="786" on="1"/>
        <pt x="491" y="870" on="1"/>
        <pt x="358" y="786" on="1"/>
        <pt x="303" y="786" on="1"/>
        <pt x="469" y="901" on="1"/>
      </contour>
      <contour>
        <pt x="159" y="751" on="1"/>
        <pt x="387" y="751" on="1"/>
        <pt x="491" y="821" on="1"/>
        <pt x="594" y="751" on="1"/>
        <pt x="822" y="751" on="1"/>
        <pt x="528" y="949" on="1"/>
        <pt x="454" y="949" on="1"/>
      </contour>
      <contour>
        <pt x="547" y="116" on="1"/>
        <pt x="605" y="116" on="0"/>
        <pt x="706" y="141" on="0"/>
        <pt x="781" y="196" on="0"/>
        <pt x="823" y="285" on="0"/>
        <pt x="823" y="350" on="1"/>
        <pt x="823" y="414" on="0"/>
        <pt x="780" y="504" on="0"/>
        <pt x="706" y="559" on="0"/>
        <pt x="605" y="584" on="0"/>
        <pt x="547" y="584" on="1"/>
        <pt x="437" y="584" on="1"/>
        <pt x="378" y="584" on="0"/>
        <pt x="277" y="559" on="0"/>
        <pt x="203" y="504" on="0"/>
        <pt x="160" y="414" on="0"/>
        <pt x="160" y="350" on="1"/>
        <pt x="160" y="285" on="0"/>
        <pt x="203" y="196" on="0"/>
        <pt x="277" y="140" on="0"/>
        <pt x="378" y="116" on="0"/>
        <pt x="437" y="116" on="1"/>
      </contour>
      <contour>
        <pt x="437" y="172" on="1"/>
        <pt x="392" y="172" on="0"/>
        <pt x="312" y="190" on="0"/>
        <pt x="252" y="231" on="0"/>
        <pt x="216" y="299" on="0"/>
        <pt x="216" y="350" on="1"/>
        <pt x="216" y="400" on="0"/>
        <pt x="252" y="468" on="0"/>
        <pt x="313" y="510" on="0"/>
        <pt x="393" y="528" on="0"/>
        <pt x="437" y="528" on="1"/>
        <pt x="547" y="528" on="1"/>
        <pt x="591" y="528" on="0"/>
        <pt x="671" y="510" on="0"/>
        <pt x="731" y="468" on="0"/>
        <pt x="767" y="400" on="0"/>
        <pt x="767" y="350" on="1"/>
        <pt x="767" y="300" on="0"/>
        <pt x="732" y="232" on="0"/>
        <pt x="672" y="190" on="0"/>
        <pt x="592" y="172" on="0"/>
        <pt x="547" y="172" on="1"/>
      </contour>
      <contour>
        <pt x="97" y="350" on="1"/>
        <pt x="97" y="431" on="0"/>
        <pt x="148" y="543" on="0"/>
        <pt x="239" y="614" on="0"/>
        <pt x="364" y="645" on="0"/>
        <pt x="437" y="645" on="1"/>
        <pt x="547" y="645" on="1"/>
        <pt x="620" y="645" on="0"/>
        <pt x="744" y="613" on="0"/>
        <pt x="835" y="543" on="0"/>
        <pt x="886" y="431" on="0"/>
        <pt x="886" y="350" on="1"/>
        <pt x="886" y="269" on="0"/>
        <pt x="835" y="157" on="0"/>
        <pt x="744" y="87" on="0"/>
        <pt x="620" y="55" on="0"/>
        <pt x="547" y="55" on="1"/>
        <pt x="437" y="55" on="1"/>
        <pt x="364" y="55" on="0"/>
        <pt x="239" y="86" on="0"/>
        <pt x="148" y="157" on="0"/>
        <pt x="97" y="269" on="0"/>
      </contour>
      <contour>
        <pt x="41" y="350" on="1"/>
        <pt x="41" y="255" on="0"/>
        <pt x="100" y="122" on="0"/>
        <pt x="205" y="38" on="0"/>
        <pt x="350" y="-1" on="0"/>
        <pt x="437" y="-1" on="1"/>
        <pt x="547" y="-1" on="1"/>
        <pt x="634" y="-1" on="0"/>
        <pt x="778" y="38" on="0"/>
        <pt x="883" y="122" on="0"/>
        <pt x="941" y="255" on="0"/>
        <pt x="941" y="350" on="1"/>
        <pt x="941" y="445" on="0"/>
        <pt x="883" y="578" on="0"/>
        <pt x="778" y="662" on="0"/>
        <pt x="634" y="701" on="0"/>
        <pt x="547" y="701" on="1"/>
        <pt x="437" y="701" on="1"/>
        <pt x="350" y="701" on="0"/>
        <pt x="205" y="662" on="0"/>
        <pt x="100" y="578" on="0"/>
        <pt x="41" y="445" on="0"/>
      </contour>
      <contour>
        <pt x="535" y="974" on="1"/>
        <pt x="902" y="726" on="1"/>
        <pt x="993" y="629" on="1"/>
        <pt x="861" y="629" on="1"/>
        <pt x="866" y="624" on="0"/>
        <pt x="882" y="611" on="0"/>
        <pt x="909" y="586" on="0"/>
        <pt x="950" y="546" on="0"/>
        <pt x="980" y="514" on="1"/>
        <pt x="1025" y="469" on="0"/>
        <pt x="1063" y="341" on="0"/>
        <pt x="1063" y="250" on="1"/>
        <pt x="1063" y="149" on="0"/>
        <pt x="1002" y="7" on="0"/>
        <pt x="891" y="-82" on="0"/>
        <pt x="738" y="-123" on="0"/>
        <pt x="647" y="-123" on="1"/>
        <pt x="537" y="-123" on="1"/>
        <pt x="435" y="-123" on="0"/>
        <pt x="259" y="-76" on="0"/>
        <pt x="202" y="-20" on="1"/>
        <pt x="145" y="30" on="0"/>
        <pt x="73" y="119" on="0"/>
        <pt x="32" y="207" on="0"/>
        <pt x="16" y="298" on="0"/>
        <pt x="16" y="350" on="1"/>
        <pt x="16" y="462" on="0"/>
        <pt x="91" y="613" on="0"/>
        <pt x="158" y="657" on="1"/>
        <pt x="78" y="726" on="1"/>
        <pt x="447" y="974" on="1"/>
      </contour>
      <contour>
        <pt x="547" y="197" on="1"/>
        <pt x="586" y="197" on="0"/>
        <pt x="657" y="212" on="0"/>
        <pt x="711" y="248" on="0"/>
        <pt x="742" y="307" on="0"/>
        <pt x="742" y="350" on="1"/>
        <pt x="742" y="374" on="0"/>
        <pt x="736" y="394" on="1"/>
        <pt x="695" y="406" on="0"/>
        <pt x="647" y="406" on="1"/>
        <pt x="537" y="406" on="1"/>
        <pt x="497" y="406" on="0"/>
        <pt x="425" y="390" on="0"/>
        <pt x="370" y="354" on="0"/>
        <pt x="338" y="294" on="0"/>
        <pt x="338" y="250" on="1"/>
        <pt x="338" y="226" on="0"/>
        <pt x="342" y="210" on="1"/>
        <pt x="363" y="203" on="0"/>
        <pt x="411" y="197" on="0"/>
        <pt x="437" y="197" on="1"/>
      </contour>
    </TTGlyph>
    <TTGlyph name="Odieresis" xMin="16" yMin="-123" xMax="1063" yMax="943">
      <contour>
        <pt x="565" y="863" on="1"/>
        <pt x="628" y="863" on="1"/>
        <pt x="628" y="806" on="1"/>
        <pt x="565" y="806" on="1"/>
      </contour>
      <contour>
        <pt x="684" y="918" on="1"/>
        <pt x="509" y="918" on="1"/>
        <pt x="509" y="751" on="1"/>
        <pt x="684" y="751" on="1"/>
      </contour>
      <contour>
        <pt x="323" y="863" on="1"/>
        <pt x="386" y="863" on="1"/>
        <pt x="386" y="806" on="1"/>
        <pt x="323" y="806" on="1"/>
      </contour>
      <contour>
        <pt x="441" y="918" on="1"/>
        <pt x="267" y="918" on="1"/>
        <pt x="267" y="751" on="1"/>
        <pt x="441" y="751" on="1"/>
      </contour>
      <contour>
        <pt x="547" y="116" on="1"/>
        <pt x="605" y="116" on="0"/>
        <pt x="706" y="141" on="0"/>
        <pt x="781" y="196" on="0"/>
        <pt x="823" y="285" on="0"/>
        <pt x="823" y="350" on="1"/>
        <pt x="823" y="414" on="0"/>
        <pt x="780" y="504" on="0"/>
        <pt x="706" y="559" on="0"/>
        <pt x="605" y="584" on="0"/>
        <pt x="547" y="584" on="1"/>
        <pt x="437" y="584" on="1"/>
        <pt x="378" y="584" on="0"/>
        <pt x="277" y="559" on="0"/>
        <pt x="203" y="504" on="0"/>
        <pt x="160" y="414" on="0"/>
        <pt x="160" y="350" on="1"/>
        <pt x="160" y="285" on="0"/>
        <pt x="203" y="196" on="0"/>
        <pt x="277" y="140" on="0"/>
        <pt x="378" y="116" on="0"/>
        <pt x="437" y="116" on="1"/>
      </contour>
      <contour>
        <pt x="437" y="172" on="1"/>
        <pt x="392" y="172" on="0"/>
        <pt x="312" y="190" on="0"/>
        <pt x="252" y="231" on="0"/>
        <pt x="216" y="299" on="0"/>
        <pt x="216" y="350" on="1"/>
        <pt x="216" y="400" on="0"/>
        <pt x="252" y="468" on="0"/>
        <pt x="313" y="510" on="0"/>
        <pt x="393" y="528" on="0"/>
        <pt x="437" y="528" on="1"/>
        <pt x="547" y="528" on="1"/>
        <pt x="591" y="528" on="0"/>
        <pt x="671" y="510" on="0"/>
        <pt x="731" y="468" on="0"/>
        <pt x="767" y="400" on="0"/>
        <pt x="767" y="350" on="1"/>
        <pt x="767" y="300" on="0"/>
        <pt x="732" y="232" on="0"/>
        <pt x="672" y="190" on="0"/>
        <pt x="592" y="172" on="0"/>
        <pt x="547" y="172" on="1"/>
      </contour>
      <contour>
        <pt x="97" y="350" on="1"/>
        <pt x="97" y="431" on="0"/>
        <pt x="148" y="543" on="0"/>
        <pt x="239" y="614" on="0"/>
        <pt x="364" y="645" on="0"/>
        <pt x="437" y="645" on="1"/>
        <pt x="547" y="645" on="1"/>
        <pt x="620" y="645" on="0"/>
        <pt x="744" y="613" on="0"/>
        <pt x="835" y="543" on="0"/>
        <pt x="886" y="431" on="0"/>
        <pt x="886" y="350" on="1"/>
        <pt x="886" y="269" on="0"/>
        <pt x="835" y="157" on="0"/>
        <pt x="744" y="87" on="0"/>
        <pt x="620" y="55" on="0"/>
        <pt x="547" y="55" on="1"/>
        <pt x="437" y="55" on="1"/>
        <pt x="364" y="55" on="0"/>
        <pt x="239" y="86" on="0"/>
        <pt x="148" y="157" on="0"/>
        <pt x="97" y="269" on="0"/>
      </contour>
      <contour>
        <pt x="41" y="350" on="1"/>
        <pt x="41" y="255" on="0"/>
        <pt x="100" y="122" on="0"/>
        <pt x="205" y="38" on="0"/>
        <pt x="350" y="-1" on="0"/>
        <pt x="437" y="-1" on="1"/>
        <pt x="547" y="-1" on="1"/>
        <pt x="634" y="-1" on="0"/>
        <pt x="778" y="38" on="0"/>
        <pt x="883" y="122" on="0"/>
        <pt x="941" y="255" on="0"/>
        <pt x="941" y="350" on="1"/>
        <pt x="941" y="445" on="0"/>
        <pt x="883" y="578" on="0"/>
        <pt x="778" y="662" on="0"/>
        <pt x="634" y="701" on="0"/>
        <pt x="547" y="701" on="1"/>
        <pt x="437" y="701" on="1"/>
        <pt x="350" y="701" on="0"/>
        <pt x="205" y="662" on="0"/>
        <pt x="100" y="578" on="0"/>
        <pt x="41" y="445" on="0"/>
      </contour>
      <contour>
        <pt x="806" y="668" on="1"/>
        <pt x="819" y="660" on="0"/>
        <pt x="847" y="643" on="0"/>
        <pt x="884" y="613" on="0"/>
        <pt x="934" y="565" on="0"/>
        <pt x="970" y="526" on="1"/>
        <pt x="1015" y="481" on="0"/>
        <pt x="1063" y="341" on="0"/>
        <pt x="1063" y="250" on="1"/>
        <pt x="1063" y="149" on="0"/>
        <pt x="1002" y="7" on="0"/>
        <pt x="891" y="-82" on="0"/>
        <pt x="738" y="-123" on="0"/>
        <pt x="647" y="-123" on="1"/>
        <pt x="537" y="-123" on="1"/>
        <pt x="486" y="-123" on="0"/>
        <pt x="388" y="-111" on="0"/>
        <pt x="300" y="-86" on="0"/>
        <pt x="224" y="-47" on="0"/>
        <pt x="196" y="-19" on="1"/>
        <pt x="139" y="31" on="0"/>
        <pt x="69" y="120" on="0"/>
        <pt x="30" y="207" on="0"/>
        <pt x="16" y="298" on="0"/>
        <pt x="16" y="350" on="1"/>
        <pt x="16" y="426" on="0"/>
        <pt x="51" y="545" on="0"/>
        <pt x="117" y="632" on="0"/>
        <pt x="210" y="690" on="0"/>
        <pt x="268" y="706" on="1"/>
        <pt x="242" y="726" on="1"/>
        <pt x="242" y="943" on="1"/>
        <pt x="466" y="943" on="1"/>
        <pt x="484" y="919" on="1"/>
        <pt x="484" y="943" on="1"/>
        <pt x="709" y="943" on="1"/>
        <pt x="806" y="840" on="1"/>
      </contour>
      <contour>
        <pt x="547" y="197" on="1"/>
        <pt x="586" y="197" on="0"/>
        <pt x="657" y="212" on="0"/>
        <pt x="711" y="248" on="0"/>
        <pt x="742" y="307" on="0"/>
        <pt x="742" y="350" on="1"/>
        <pt x="742" y="374" on="0"/>
        <pt x="736" y="394" on="1"/>
        <pt x="695" y="406" on="0"/>
        <pt x="647" y="406" on="1"/>
        <pt x="537" y="406" on="1"/>
        <pt x="497" y="406" on="0"/>
        <pt x="425" y="390" on="0"/>
        <pt x="370" y="354" on="0"/>
        <pt x="338" y="294" on="0"/>
        <pt x="338" y="250" on="1"/>
        <pt x="338" y="226" on="0"/>
        <pt x="342" y="210" on="1"/>
        <pt x="363" y="203" on="0"/>
        <pt x="411" y="197" on="0"/>
        <pt x="437" y="197" on="1"/>
      </contour>
    </TTGlyph>
    <TTGlyph name="Ograve" xMin="16" yMin="-123" xMax="1063" yMax="940">
      <contour>
        <pt x="574" y="785" on="1"/>
        <pt x="505" y="785" on="1"/>
        <pt x="473" y="808" on="0"/>
        <pt x="410" y="856" on="0"/>
        <pt x="378" y="879" on="1"/>
        <pt x="448" y="879" on="1"/>
      </contour>
      <contour>
        <pt x="488" y="749" on="1"/>
        <pt x="691" y="749" on="1"/>
        <pt x="475" y="915" on="1"/>
        <pt x="267" y="915" on="1"/>
      </contour>
      <contour>
        <pt x="547" y="116" on="1"/>
        <pt x="605" y="116" on="0"/>
        <pt x="706" y="141" on="0"/>
        <pt x="781" y="196" on="0"/>
        <pt x="823" y="285" on="0"/>
        <pt x="823" y="350" on="1"/>
        <pt x="823" y="414" on="0"/>
        <pt x="780" y="504" on="0"/>
        <pt x="706" y="559" on="0"/>
        <pt x="605" y="584" on="0"/>
        <pt x="547" y="584" on="1"/>
        <pt x="437" y="584" on="1"/>
        <pt x="378" y="584" on="0"/>
        <pt x="277" y="559" on="0"/>
        <pt x="203" y="504" on="0"/>
        <pt x="160" y="414" on="0"/>
        <pt x="160" y="350" on="1"/>
        <pt x="160" y="285" on="0"/>
        <pt x="203" y="196" on="0"/>
        <pt x="277" y="140" on="0"/>
        <pt x="378" y="116" on="0"/>
        <pt x="437" y="116" on="1"/>
      </contour>
      <contour>
        <pt x="437" y="172" on="1"/>
        <pt x="392" y="172" on="0"/>
        <pt x="312" y="190" on="0"/>
        <pt x="252" y="231" on="0"/>
        <pt x="216" y="299" on="0"/>
        <pt x="216" y="350" on="1"/>
        <pt x="216" y="400" on="0"/>
        <pt x="252" y="468" on="0"/>
        <pt x="313" y="510" on="0"/>
        <pt x="393" y="528" on="0"/>
        <pt x="437" y="528" on="1"/>
        <pt x="547" y="528" on="1"/>
        <pt x="591" y="528" on="0"/>
        <pt x="671" y="510" on="0"/>
        <pt x="731" y="468" on="0"/>
        <pt x="767" y="400" on="0"/>
        <pt x="767" y="350" on="1"/>
        <pt x="767" y="300" on="0"/>
        <pt x="732" y="232" on="0"/>
        <pt x="672" y="190" on="0"/>
        <pt x="592" y="172" on="0"/>
        <pt x="547" y="172" on="1"/>
      </contour>
      <contour>
        <pt x="97" y="350" on="1"/>
        <pt x="97" y="431" on="0"/>
        <pt x="148" y="543" on="0"/>
        <pt x="239" y="614" on="0"/>
        <pt x="364" y="645" on="0"/>
        <pt x="437" y="645" on="1"/>
        <pt x="547" y="645" on="1"/>
        <pt x="620" y="645" on="0"/>
        <pt x="744" y="613" on="0"/>
        <pt x="835" y="543" on="0"/>
        <pt x="886" y="431" on="0"/>
        <pt x="886" y="350" on="1"/>
        <pt x="886" y="269" on="0"/>
        <pt x="835" y="157" on="0"/>
        <pt x="744" y="87" on="0"/>
        <pt x="620" y="55" on="0"/>
        <pt x="547" y="55" on="1"/>
        <pt x="437" y="55" on="1"/>
        <pt x="364" y="55" on="0"/>
        <pt x="239" y="86" on="0"/>
        <pt x="148" y="157" on="0"/>
        <pt x="97" y="269" on="0"/>
      </contour>
      <contour>
        <pt x="41" y="350" on="1"/>
        <pt x="41" y="255" on="0"/>
        <pt x="100" y="122" on="0"/>
        <pt x="205" y="38" on="0"/>
        <pt x="350" y="-1" on="0"/>
        <pt x="437" y="-1" on="1"/>
        <pt x="547" y="-1" on="1"/>
        <pt x="634" y="-1" on="0"/>
        <pt x="778" y="38" on="0"/>
        <pt x="883" y="122" on="0"/>
        <pt x="941" y="255" on="0"/>
        <pt x="941" y="350" on="1"/>
        <pt x="941" y="445" on="0"/>
        <pt x="883" y="578" on="0"/>
        <pt x="778" y="662" on="0"/>
        <pt x="634" y="701" on="0"/>
        <pt x="547" y="701" on="1"/>
        <pt x="437" y="701" on="1"/>
        <pt x="350" y="701" on="0"/>
        <pt x="205" y="662" on="0"/>
        <pt x="100" y="578" on="0"/>
        <pt x="41" y="445" on="0"/>
      </contour>
      <contour>
        <pt x="482" y="940" on="1"/>
        <pt x="763" y="724" on="1"/>
        <pt x="797" y="691" on="0"/>
        <pt x="845" y="649" on="0"/>
        <pt x="889" y="610" on="0"/>
        <pt x="937" y="563" on="0"/>
        <pt x="971" y="527" on="1"/>
        <pt x="1016" y="482" on="0"/>
        <pt x="1063" y="341" on="0"/>
        <pt x="1063" y="250" on="1"/>
        <pt x="1063" y="149" on="0"/>
        <pt x="1002" y="7" on="0"/>
        <pt x="891" y="-82" on="0"/>
        <pt x="738" y="-123" on="0"/>
        <pt x="647" y="-123" on="1"/>
        <pt x="537" y="-123" on="1"/>
        <pt x="435" y="-123" on="0"/>
        <pt x="266" y="-76" on="0"/>
        <pt x="209" y="-20" on="1"/>
        <pt x="152" y="30" on="0"/>
        <pt x="78" y="119" on="0"/>
        <pt x="34" y="207" on="0"/>
        <pt x="16" y="298" on="0"/>
        <pt x="16" y="350" on="1"/>
        <pt x="16" y="452" on="0"/>
        <pt x="78" y="595" on="0"/>
        <pt x="190" y="685" on="0"/>
        <pt x="345" y="726" on="0"/>
        <pt x="437" y="726" on="1"/>
        <pt x="448" y="726" on="1"/>
        <pt x="176" y="940" on="1"/>
      </contour>
      <contour>
        <pt x="547" y="197" on="1"/>
        <pt x="586" y="197" on="0"/>
        <pt x="657" y="212" on="0"/>
        <pt x="711" y="248" on="0"/>
        <pt x="742" y="307" on="0"/>
        <pt x="742" y="350" on="1"/>
        <pt x="742" y="374" on="0"/>
        <pt x="736" y="394" on="1"/>
        <pt x="695" y="406" on="0"/>
        <pt x="647" y="406" on="1"/>
        <pt x="537" y="406" on="1"/>
        <pt x="497" y="406" on="0"/>
        <pt x="425" y="390" on="0"/>
        <pt x="370" y="354" on="0"/>
        <pt x="338" y="294" on="0"/>
        <pt x="338" y="250" on="1"/>
        <pt x="338" y="226" on="0"/>
        <pt x="342" y="210" on="1"/>
        <pt x="363" y="203" on="0"/>
        <pt x="411" y="197" on="0"/>
        <pt x="437" y="197" on="1"/>
      </contour>
    </TTGlyph>
    <TTGlyph name="Oslash" xMin="16" yMin="-123" xMax="1063" yMax="726">
      <contour>
        <pt x="886" y="350" on="1"/>
        <pt x="886" y="269" on="0"/>
        <pt x="835" y="157" on="0"/>
        <pt x="744" y="87" on="0"/>
        <pt x="620" y="55" on="0"/>
        <pt x="547" y="55" on="1"/>
        <pt x="437" y="55" on="1"/>
        <pt x="363" y="55" on="0"/>
        <pt x="239" y="87" on="0"/>
        <pt x="148" y="158" on="0"/>
        <pt x="97" y="270" on="0"/>
        <pt x="97" y="350" on="1"/>
        <pt x="97" y="431" on="0"/>
        <pt x="148" y="543" on="0"/>
        <pt x="239" y="614" on="0"/>
        <pt x="364" y="645" on="0"/>
        <pt x="437" y="645" on="1"/>
        <pt x="547" y="645" on="1"/>
        <pt x="621" y="645" on="0"/>
        <pt x="745" y="612" on="0"/>
        <pt x="835" y="541" on="0"/>
        <pt x="886" y="429" on="0"/>
      </contour>
      <contour>
        <pt x="346" y="124" on="1"/>
        <pt x="362" y="122" on="0"/>
        <pt x="396" y="116" on="0"/>
        <pt x="412" y="116" on="1"/>
        <pt x="547" y="116" on="1"/>
        <pt x="605" y="116" on="0"/>
        <pt x="706" y="141" on="0"/>
        <pt x="781" y="196" on="0"/>
        <pt x="823" y="285" on="0"/>
        <pt x="823" y="350" on="1"/>
        <pt x="823" y="426" on="0"/>
        <pt x="765" y="522" on="0"/>
        <pt x="699" y="557" on="1"/>
      </contour>
      <contour>
        <pt x="437" y="584" on="1"/>
        <pt x="378" y="584" on="0"/>
        <pt x="277" y="559" on="0"/>
        <pt x="203" y="504" on="0"/>
        <pt x="160" y="414" on="0"/>
        <pt x="160" y="350" on="1"/>
        <pt x="160" y="311" on="0"/>
        <pt x="173" y="251" on="0"/>
        <pt x="203" y="201" on="0"/>
        <pt x="250" y="161" on="0"/>
        <pt x="283" y="143" on="1"/>
        <pt x="371" y="252" on="0"/>
        <pt x="548" y="467" on="0"/>
        <pt x="636" y="576" on="1"/>
        <pt x="613" y="578" on="0"/>
        <pt x="570" y="584" on="0"/>
        <pt x="547" y="584" on="1"/>
      </contour>
      <contour>
        <pt x="216" y="350" on="1"/>
        <pt x="216" y="400" on="0"/>
        <pt x="252" y="468" on="0"/>
        <pt x="313" y="510" on="0"/>
        <pt x="393" y="528" on="0"/>
        <pt x="437" y="528" on="1"/>
        <pt x="524" y="528" on="1"/>
        <pt x="271" y="218" on="1"/>
        <pt x="241" y="242" on="0"/>
        <pt x="216" y="312" on="0"/>
      </contour>
      <contour>
        <pt x="457" y="172" on="1"/>
        <pt x="710" y="482" on="1"/>
        <pt x="740" y="458" on="0"/>
        <pt x="767" y="388" on="0"/>
        <pt x="767" y="350" on="1"/>
        <pt x="767" y="300" on="0"/>
        <pt x="732" y="232" on="0"/>
        <pt x="672" y="190" on="0"/>
        <pt x="592" y="172" on="0"/>
        <pt x="547" y="172" on="1"/>
      </contour>
      <contour>
        <pt x="323" y="8" on="1"/>
        <pt x="380" y="-1" on="0"/>
        <pt x="437" y="-1" on="1"/>
        <pt x="547" y="-1" on="1"/>
        <pt x="634" y="-1" on="0"/>
        <pt x="778" y="38" on="0"/>
        <pt x="883" y="122" on="0"/>
        <pt x="941" y="255" on="0"/>
        <pt x="941" y="350" on="1"/>
        <pt x="941" y="389" on="0"/>
        <pt x="929" y="466" on="0"/>
        <pt x="902" y="537" on="0"/>
        <pt x="858" y="599" on="0"/>
        <pt x="826" y="624" on="1"/>
        <pt x="889" y="701" on="1"/>
        <pt x="666" y="701" on="1"/>
        <pt x="659" y="692" on="1"/>
        <pt x="603" y="701" on="0"/>
        <pt x="547" y="701" on="1"/>
        <pt x="437" y="701" on="1"/>
        <pt x="350" y="701" on="0"/>
        <pt x="205" y="662" on="0"/>
        <pt x="100" y="578" on="0"/>
        <pt x="41" y="445" on="0"/>
        <pt x="41" y="350" on="1"/>
        <pt x="41" y="311" on="0"/>
        <pt x="53" y="234" on="0"/>
        <pt x="80" y="163" on="0"/>
        <pt x="124" y="101" on="0"/>
        <pt x="156" y="76" on="1"/>
        <pt x="93" y="-1" on="1"/>
        <pt x="316" y="-1" on="1"/>
      </contour>
      <contour>
        <pt x="40" y="-26" on="1"/>
        <pt x="121" y="74" on="1"/>
        <pt x="64" y="128" on="0"/>
        <pt x="16" y="274" on="0"/>
        <pt x="16" y="350" on="1"/>
        <pt x="16" y="452" on="0"/>
        <pt x="78" y="595" on="0"/>
        <pt x="190" y="685" on="0"/>
        <pt x="345" y="726" on="0"/>
        <pt x="437" y="726" on="1"/>
        <pt x="547" y="726" on="1"/>
        <pt x="573" y="726" on="0"/>
        <pt x="625" y="722" on="0"/>
        <pt x="649" y="719" on="1"/>
        <pt x="653" y="726" on="1"/>
        <pt x="942" y="726" on="1"/>
        <pt x="1036" y="623" on="1"/>
        <pt x="957" y="526" on="1"/>
        <pt x="965" y="518" on="1"/>
        <pt x="1018" y="464" on="0"/>
        <pt x="1063" y="323" on="0"/>
        <pt x="1063" y="250" on="1"/>
        <pt x="1063" y="149" on="0"/>
        <pt x="1002" y="7" on="0"/>
        <pt x="891" y="-82" on="0"/>
        <pt x="738" y="-123" on="0"/>
        <pt x="647" y="-123" on="1"/>
        <pt x="537" y="-123" on="1"/>
        <pt x="511" y="-123" on="0"/>
        <pt x="457" y="-119" on="0"/>
        <pt x="432" y="-116" on="1"/>
        <pt x="427" y="-123" on="1"/>
        <pt x="146" y="-123" on="1"/>
      </contour>
    </TTGlyph>
    <TTGlyph name="Otilde" xMin="16" yMin="-123" xMax="1063" yMax="982">
      <contour>
        <pt x="693" y="876" on="1"/>
        <pt x="682" y="864" on="0"/>
        <pt x="651" y="832" on="0"/>
        <pt x="615" y="805" on="0"/>
        <pt x="577" y="786" on="0"/>
        <pt x="560" y="786" on="1"/>
        <pt x="528" y="786" on="0"/>
        <pt x="484" y="809" on="0"/>
        <pt x="447" y="838" on="0"/>
        <pt x="413" y="861" on="0"/>
        <pt x="392" y="861" on="1"/>
        <pt x="370" y="861" on="0"/>
        <pt x="340" y="830" on="0"/>
        <pt x="329" y="814" on="1"/>
        <pt x="260" y="814" on="1"/>
        <pt x="271" y="826" on="0"/>
        <pt x="303" y="856" on="0"/>
        <pt x="339" y="883" on="0"/>
        <pt x="377" y="902" on="0"/>
        <pt x="394" y="902" on="1"/>
        <pt x="428" y="902" on="0"/>
        <pt x="472" y="879" on="0"/>
        <pt x="506" y="852" on="0"/>
        <pt x="539" y="830" on="0"/>
        <pt x="562" y="830" on="1"/>
        <pt x="583" y="830" on="0"/>
        <pt x="614" y="860" on="0"/>
        <pt x="625" y="876" on="1"/>
      </contour>
      <contour>
        <pt x="601" y="931" on="1"/>
        <pt x="599" y="926" on="0"/>
        <pt x="590" y="911" on="0"/>
        <pt x="580" y="896" on="0"/>
        <pt x="568" y="885" on="0"/>
        <pt x="562" y="885" on="1"/>
        <pt x="547" y="885" on="0"/>
        <pt x="512" y="907" on="0"/>
        <pt x="470" y="934" on="0"/>
        <pt x="422" y="957" on="0"/>
        <pt x="394" y="957" on="1"/>
        <pt x="359" y="957" on="0"/>
        <pt x="291" y="916" on="0"/>
        <pt x="232" y="856" on="0"/>
        <pt x="185" y="787" on="0"/>
        <pt x="170" y="759" on="1"/>
        <pt x="363" y="759" on="1"/>
        <pt x="368" y="770" on="0"/>
        <pt x="389" y="799" on="0"/>
        <pt x="403" y="799" on="1"/>
        <pt x="411" y="799" on="0"/>
        <pt x="435" y="780" on="0"/>
        <pt x="472" y="757" on="0"/>
        <pt x="524" y="738" on="0"/>
        <pt x="560" y="738" on="1"/>
        <pt x="595" y="738" on="0"/>
        <pt x="662" y="777" on="0"/>
        <pt x="721" y="835" on="0"/>
        <pt x="769" y="902" on="0"/>
        <pt x="784" y="931" on="1"/>
      </contour>
      <contour>
        <pt x="547" y="116" on="1"/>
        <pt x="605" y="116" on="0"/>
        <pt x="706" y="141" on="0"/>
        <pt x="781" y="196" on="0"/>
        <pt x="823" y="285" on="0"/>
        <pt x="823" y="350" on="1"/>
        <pt x="823" y="414" on="0"/>
        <pt x="780" y="504" on="0"/>
        <pt x="706" y="559" on="0"/>
        <pt x="605" y="584" on="0"/>
        <pt x="547" y="584" on="1"/>
        <pt x="437" y="584" on="1"/>
        <pt x="378" y="584" on="0"/>
        <pt x="277" y="559" on="0"/>
        <pt x="203" y="504" on="0"/>
        <pt x="160" y="414" on="0"/>
        <pt x="160" y="350" on="1"/>
        <pt x="160" y="285" on="0"/>
        <pt x="203" y="196" on="0"/>
        <pt x="277" y="140" on="0"/>
        <pt x="378" y="116" on="0"/>
        <pt x="437" y="116" on="1"/>
      </contour>
      <contour>
        <pt x="437" y="172" on="1"/>
        <pt x="392" y="172" on="0"/>
        <pt x="312" y="190" on="0"/>
        <pt x="252" y="231" on="0"/>
        <pt x="216" y="299" on="0"/>
        <pt x="216" y="350" on="1"/>
        <pt x="216" y="400" on="0"/>
        <pt x="252" y="468" on="0"/>
        <pt x="313" y="510" on="0"/>
        <pt x="393" y="528" on="0"/>
        <pt x="437" y="528" on="1"/>
        <pt x="547" y="528" on="1"/>
        <pt x="591" y="528" on="0"/>
        <pt x="671" y="510" on="0"/>
        <pt x="731" y="468" on="0"/>
        <pt x="767" y="400" on="0"/>
        <pt x="767" y="350" on="1"/>
        <pt x="767" y="300" on="0"/>
        <pt x="732" y="232" on="0"/>
        <pt x="672" y="190" on="0"/>
        <pt x="592" y="172" on="0"/>
        <pt x="547" y="172" on="1"/>
      </contour>
      <contour>
        <pt x="97" y="350" on="1"/>
        <pt x="97" y="431" on="0"/>
        <pt x="148" y="543" on="0"/>
        <pt x="239" y="614" on="0"/>
        <pt x="364" y="645" on="0"/>
        <pt x="437" y="645" on="1"/>
        <pt x="547" y="645" on="1"/>
        <pt x="620" y="645" on="0"/>
        <pt x="744" y="613" on="0"/>
        <pt x="835" y="543" on="0"/>
        <pt x="886" y="431" on="0"/>
        <pt x="886" y="350" on="1"/>
        <pt x="886" y="269" on="0"/>
        <pt x="835" y="157" on="0"/>
        <pt x="744" y="87" on="0"/>
        <pt x="620" y="55" on="0"/>
        <pt x="547" y="55" on="1"/>
        <pt x="437" y="55" on="1"/>
        <pt x="364" y="55" on="0"/>
        <pt x="239" y="86" on="0"/>
        <pt x="148" y="157" on="0"/>
        <pt x="97" y="269" on="0"/>
      </contour>
      <contour>
        <pt x="41" y="350" on="1"/>
        <pt x="41" y="255" on="0"/>
        <pt x="100" y="122" on="0"/>
        <pt x="205" y="38" on="0"/>
        <pt x="350" y="-1" on="0"/>
        <pt x="437" y="-1" on="1"/>
        <pt x="547" y="-1" on="1"/>
        <pt x="634" y="-1" on="0"/>
        <pt x="778" y="38" on="0"/>
        <pt x="883" y="122" on="0"/>
        <pt x="941" y="255" on="0"/>
        <pt x="941" y="350" on="1"/>
        <pt x="941" y="445" on="0"/>
        <pt x="883" y="578" on="0"/>
        <pt x="778" y="662" on="0"/>
        <pt x="634" y="701" on="0"/>
        <pt x="547" y="701" on="1"/>
        <pt x="437" y="701" on="1"/>
        <pt x="350" y="701" on="0"/>
        <pt x="205" y="662" on="0"/>
        <pt x="100" y="578" on="0"/>
        <pt x="41" y="445" on="0"/>
      </contour>
      <contour>
        <pt x="825" y="956" on="1"/>
        <pt x="920" y="853" on="1"/>
        <pt x="909" y="833" on="0"/>
        <pt x="881" y="787" on="0"/>
        <pt x="847" y="741" on="0"/>
        <pt x="809" y="696" on="0"/>
        <pt x="788" y="677" on="1"/>
        <pt x="804" y="669" on="0"/>
        <pt x="839" y="650" on="0"/>
        <pt x="881" y="617" on="0"/>
        <pt x="936" y="565" on="0"/>
        <pt x="974" y="524" on="1"/>
        <pt x="1019" y="479" on="0"/>
        <pt x="1063" y="341" on="0"/>
        <pt x="1063" y="250" on="1"/>
        <pt x="1063" y="149" on="0"/>
        <pt x="1002" y="7" on="0"/>
        <pt x="891" y="-82" on="0"/>
        <pt x="738" y="-123" on="0"/>
        <pt x="647" y="-123" on="1"/>
        <pt x="537" y="-123" on="1"/>
        <pt x="486" y="-123" on="0"/>
        <pt x="391" y="-114" on="0"/>
        <pt x="305" y="-92" on="0"/>
        <pt x="232" y="-55" on="0"/>
        <pt x="204" y="-27" on="1"/>
        <pt x="147" y="23" on="0"/>
        <pt x="74" y="114" on="0"/>
        <pt x="32" y="204" on="0"/>
        <pt x="16" y="298" on="0"/>
        <pt x="16" y="350" on="1"/>
        <pt x="16" y="477" on="0"/>
        <pt x="110" y="635" on="0"/>
        <pt x="193" y="677" on="1"/>
        <pt x="129" y="734" on="1"/>
        <pt x="147" y="770" on="0"/>
        <pt x="205" y="856" on="0"/>
        <pt x="275" y="931" on="0"/>
        <pt x="354" y="982" on="0"/>
        <pt x="394" y="982" on="1"/>
        <pt x="431" y="982" on="0"/>
        <pt x="492" y="950" on="0"/>
        <pt x="518" y="933" on="1"/>
        <pt x="532" y="924" on="0"/>
        <pt x="554" y="910" on="0"/>
        <pt x="562" y="910" on="1"/>
        <pt x="585" y="956" on="1"/>
      </contour>
      <contour>
        <pt x="547" y="197" on="1"/>
        <pt x="586" y="197" on="0"/>
        <pt x="657" y="212" on="0"/>
        <pt x="711" y="248" on="0"/>
        <pt x="742" y="307" on="0"/>
        <pt x="742" y="350" on="1"/>
        <pt x="742" y="374" on="0"/>
        <pt x="736" y="394" on="1"/>
        <pt x="695" y="406" on="0"/>
        <pt x="647" y="406" on="1"/>
        <pt x="537" y="406" on="1"/>
        <pt x="497" y="406" on="0"/>
        <pt x="425" y="390" on="0"/>
        <pt x="370" y="354" on="0"/>
        <pt x="338" y="294" on="0"/>
        <pt x="338" y="250" on="1"/>
        <pt x="338" y="226" on="0"/>
        <pt x="342" y="210" on="1"/>
        <pt x="363" y="203" on="0"/>
        <pt x="411" y="197" on="0"/>
        <pt x="437" y="197" on="1"/>
      </contour>
    </TTGlyph>
    <TTGlyph name="P" xMin="2" yMin="-123" xMax="940" yMax="726">
      <contour>
        <pt x="571" y="528" on="1"/>
        <pt x="583" y="528" on="0"/>
        <pt x="608" y="524" on="0"/>
        <pt x="629" y="514" on="0"/>
        <pt x="643" y="496" on="0"/>
        <pt x="643" y="481" on="1"/>
        <pt x="643" y="467" on="0"/>
        <pt x="628" y="449" on="0"/>
        <pt x="606" y="439" on="0"/>
        <pt x="580" y="435" on="0"/>
        <pt x="570" y="435" on="1"/>
        <pt x="200" y="435" on="1"/>
        <pt x="200" y="528" on="1"/>
      </contour>
      <contour>
        <pt x="570" y="380" on="1"/>
        <pt x="594" y="380" on="0"/>
        <pt x="641" y="391" on="0"/>
        <pt x="677" y="415" on="0"/>
        <pt x="699" y="454" on="0"/>
        <pt x="699" y="481" on="1"/>
        <pt x="699" y="509" on="0"/>
        <pt x="678" y="548" on="0"/>
        <pt x="643" y="573" on="0"/>
        <pt x="596" y="584" on="0"/>
        <pt x="571" y="584" on="1"/>
        <pt x="144" y="584" on="1"/>
        <pt x="144" y="380" on="1"/>
      </contour>
      <contour>
        <pt x="144" y="55" on="1"/>
        <pt x="83" y="55" on="1"/>
        <pt x="83" y="645" on="1"/>
        <pt x="571" y="645" on="1"/>
        <pt x="612" y="645" on="0"/>
        <pt x="682" y="626" on="0"/>
        <pt x="733" y="587" on="0"/>
        <pt x="762" y="524" on="0"/>
        <pt x="762" y="481" on="1"/>
        <pt x="762" y="426" on="0"/>
        <pt x="711" y="355" on="0"/>
        <pt x="661" y="335" on="1"/>
        <pt x="661" y="334" on="1"/>
        <pt x="638" y="326" on="0"/>
        <pt x="556" y="318" on="0"/>
        <pt x="455" y="315" on="0"/>
        <pt x="345" y="315" on="0"/>
        <pt x="245" y="318" on="0"/>
        <pt x="165" y="320" on="0"/>
        <pt x="144" y="320" on="1"/>
      </contour>
      <contour>
        <pt x="818" y="481" on="1"/>
        <pt x="818" y="538" on="0"/>
        <pt x="782" y="621" on="0"/>
        <pt x="717" y="675" on="0"/>
        <pt x="626" y="701" on="0"/>
        <pt x="571" y="701" on="1"/>
        <pt x="27" y="701" on="1"/>
        <pt x="27" y="-1" on="1"/>
        <pt x="200" y="-1" on="1"/>
        <pt x="200" y="265" on="1"/>
        <pt x="224" y="265" on="0"/>
        <pt x="301" y="263" on="0"/>
        <pt x="391" y="260" on="0"/>
        <pt x="489" y="260" on="0"/>
        <pt x="580" y="264" on="0"/>
        <pt x="658" y="274" on="0"/>
        <pt x="684" y="283" on="1"/>
        <pt x="684" y="284" on="1"/>
        <pt x="750" y="312" on="0"/>
        <pt x="818" y="408" on="0"/>
      </contour>
      <contour>
        <pt x="2" y="-26" on="1"/>
        <pt x="2" y="726" on="1"/>
        <pt x="571" y="726" on="1"/>
        <pt x="610" y="726" on="0"/>
        <pt x="685" y="715" on="0"/>
        <pt x="762" y="680" on="0"/>
        <pt x="844" y="616" on="0"/>
        <pt x="889" y="563" on="1"/>
        <pt x="918" y="534" on="0"/>
        <pt x="940" y="438" on="0"/>
        <pt x="940" y="381" on="1"/>
        <pt x="940" y="300" on="0"/>
        <pt x="865" y="194" on="0"/>
        <pt x="792" y="162" on="1"/>
        <pt x="772" y="155" on="0"/>
        <pt x="717" y="146" on="0"/>
        <pt x="651" y="140" on="0"/>
        <pt x="578" y="138" on="0"/>
        <pt x="541" y="138" on="1"/>
        <pt x="487" y="138" on="0"/>
        <pt x="381" y="138" on="0"/>
        <pt x="322" y="139" on="1"/>
        <pt x="322" y="-123" on="1"/>
        <pt x="105" y="-123" on="1"/>
      </contour>
    </TTGlyph>
    <TTGlyph name="Q" xMin="17" yMin="-123" xMax="1374" yMax="726">
      <contour>
        <pt x="559" y="172" on="1"/>
        <pt x="438" y="172" on="1"/>
        <pt x="393" y="172" on="0"/>
        <pt x="313" y="190" on="0"/>
        <pt x="252" y="231" on="0"/>
        <pt x="216" y="299" on="0"/>
        <pt x="216" y="350" on="1"/>
        <pt x="216" y="401" on="0"/>
        <pt x="252" y="469" on="0"/>
        <pt x="313" y="510" on="0"/>
        <pt x="393" y="528" on="0"/>
        <pt x="438" y="528" on="1"/>
        <pt x="547" y="528" on="1"/>
        <pt x="591" y="528" on="0"/>
        <pt x="671" y="510" on="0"/>
        <pt x="732" y="468" on="0"/>
        <pt x="768" y="400" on="0"/>
        <pt x="768" y="350" on="1"/>
        <pt x="768" y="321" on="0"/>
        <pt x="753" y="267" on="0"/>
        <pt x="739" y="242" on="1"/>
        <pt x="639" y="296" on="1"/>
        <pt x="349" y="296" on="1"/>
      </contour>
      <contour>
        <pt x="753" y="173" on="1"/>
        <pt x="786" y="208" on="0"/>
        <pt x="823" y="301" on="0"/>
        <pt x="823" y="350" on="1"/>
        <pt x="823" y="414" on="0"/>
        <pt x="781" y="504" on="0"/>
        <pt x="706" y="559" on="0"/>
        <pt x="605" y="584" on="0"/>
        <pt x="547" y="584" on="1"/>
        <pt x="438" y="584" on="1"/>
        <pt x="380" y="584" on="0"/>
        <pt x="279" y="559" on="0"/>
        <pt x="204" y="503" on="0"/>
        <pt x="161" y="414" on="0"/>
        <pt x="161" y="350" on="1"/>
        <pt x="161" y="285" on="0"/>
        <pt x="204" y="196" on="0"/>
        <pt x="279" y="141" on="0"/>
        <pt x="380" y="116" on="0"/>
        <pt x="438" y="116" on="1"/>
        <pt x="547" y="116" on="1"/>
        <pt x="561" y="116" on="0"/>
        <pt x="605" y="122" on="0"/>
        <pt x="652" y="132" on="0"/>
        <pt x="695" y="143" on="0"/>
        <pt x="709" y="148" on="1"/>
        <pt x="534" y="242" on="1"/>
        <pt x="627" y="241" on="1"/>
      </contour>
      <contour>
        <pt x="98" y="350" on="1"/>
        <pt x="98" y="431" on="0"/>
        <pt x="149" y="543" on="0"/>
        <pt x="240" y="614" on="0"/>
        <pt x="365" y="645" on="0"/>
        <pt x="438" y="645" on="1"/>
        <pt x="547" y="645" on="1"/>
        <pt x="620" y="645" on="0"/>
        <pt x="744" y="613" on="0"/>
        <pt x="835" y="543" on="0"/>
        <pt x="887" y="431" on="0"/>
        <pt x="887" y="350" on="1"/>
        <pt x="887" y="295" on="0"/>
        <pt x="842" y="194" on="0"/>
        <pt x="812" y="149" on="1"/>
        <pt x="986" y="55" on="1"/>
        <pt x="902" y="55" on="1"/>
        <pt x="783" y="120" on="1"/>
        <pt x="732" y="91" on="0"/>
        <pt x="605" y="55" on="0"/>
        <pt x="547" y="55" on="1"/>
        <pt x="438" y="55" on="1"/>
        <pt x="365" y="55" on="0"/>
        <pt x="240" y="86" on="0"/>
        <pt x="149" y="157" on="0"/>
        <pt x="98" y="269" on="0"/>
      </contour>
      <contour>
        <pt x="42" y="350" on="1"/>
        <pt x="42" y="267" on="0"/>
        <pt x="81" y="150" on="0"/>
        <pt x="151" y="72" on="0"/>
        <pt x="246" y="28" on="0"/>
        <pt x="358" y="5" on="0"/>
        <pt x="483" y="-1" on="0"/>
        <pt x="547" y="-1" on="1"/>
        <pt x="605" y="-1" on="0"/>
        <pt x="732" y="31" on="0"/>
        <pt x="784" y="57" on="1"/>
        <pt x="891" y="0" on="1"/>
        <pt x="1179" y="0" on="1"/>
        <pt x="892" y="169" on="1"/>
        <pt x="915" y="211" on="0"/>
        <pt x="941" y="302" on="0"/>
        <pt x="941" y="350" on="1"/>
        <pt x="941" y="433" on="0"/>
        <pt x="902" y="550" on="0"/>
        <pt x="833" y="628" on="0"/>
        <pt x="739" y="673" on="0"/>
        <pt x="627" y="695" on="0"/>
        <pt x="502" y="701" on="0"/>
        <pt x="438" y="701" on="1"/>
        <pt x="351" y="701" on="0"/>
        <pt x="206" y="662" on="0"/>
        <pt x="101" y="578" on="0"/>
        <pt x="42" y="445" on="0"/>
      </contour>
      <contour>
        <pt x="17" y="350" on="1"/>
        <pt x="17" y="452" on="0"/>
        <pt x="79" y="595" on="0"/>
        <pt x="191" y="685" on="0"/>
        <pt x="346" y="726" on="0"/>
        <pt x="438" y="726" on="1"/>
        <pt x="509" y="726" on="0"/>
        <pt x="648" y="721" on="0"/>
        <pt x="783" y="686" on="0"/>
        <pt x="913" y="607" on="0"/>
        <pt x="974" y="532" on="1"/>
        <pt x="1016" y="490" on="0"/>
        <pt x="1063" y="347" on="0"/>
        <pt x="1063" y="250" on="1"/>
        <pt x="1063" y="215" on="0"/>
        <pt x="1047" y="147" on="0"/>
        <pt x="1035" y="114" on="1"/>
        <pt x="1272" y="-25" on="1"/>
        <pt x="1374" y="-122" on="1"/>
        <pt x="986" y="-122" on="1"/>
        <pt x="885" y="-68" on="1"/>
        <pt x="832" y="-93" on="0"/>
        <pt x="705" y="-123" on="0"/>
        <pt x="647" y="-123" on="1"/>
        <pt x="582" y="-123" on="0"/>
        <pt x="453" y="-119" on="0"/>
        <pt x="334" y="-99" on="0"/>
        <pt x="231" y="-57" on="0"/>
        <pt x="194" y="-20" on="1"/>
        <pt x="140" y="26" on="0"/>
        <pt x="71" y="110" on="0"/>
        <pt x="32" y="197" on="0"/>
        <pt x="17" y="293" on="0"/>
      </contour>
      <contour>
        <pt x="538" y="406" on="1"/>
        <pt x="476" y="406" on="0"/>
        <pt x="375" y="368" on="0"/>
        <pt x="352" y="321" on="1"/>
        <pt x="645" y="321" on="1"/>
        <pt x="729" y="276" on="1"/>
        <pt x="743" y="313" on="0"/>
        <pt x="743" y="350" on="1"/>
        <pt x="743" y="373" on="0"/>
        <pt x="737" y="394" on="1"/>
        <pt x="695" y="406" on="0"/>
        <pt x="647" y="406" on="1"/>
      </contour>
    </TTGlyph>
    <TTGlyph name="R" xMin="12" yMin="-123" xMax="1102" yMax="726">
      <contour>
        <pt x="579" y="528" on="1"/>
        <pt x="591" y="528" on="0"/>
        <pt x="617" y="524" on="0"/>
        <pt x="639" y="514" on="0"/>
        <pt x="654" y="496" on="0"/>
        <pt x="654" y="481" on="1"/>
        <pt x="654" y="467" on="0"/>
        <pt x="638" y="449" on="0"/>
        <pt x="615" y="439" on="0"/>
        <pt x="588" y="435" on="0"/>
        <pt x="578" y="435" on="1"/>
        <pt x="208" y="435" on="1"/>
        <pt x="208" y="528" on="1"/>
      </contour>
      <contour>
        <pt x="578" y="380" on="1"/>
        <pt x="602" y="380" on="0"/>
        <pt x="649" y="391" on="0"/>
        <pt x="687" y="415" on="0"/>
        <pt x="710" y="454" on="0"/>
        <pt x="710" y="481" on="1"/>
        <pt x="710" y="509" on="0"/>
        <pt x="688" y="549" on="0"/>
        <pt x="651" y="573" on="0"/>
        <pt x="604" y="584" on="0"/>
        <pt x="579" y="584" on="1"/>
        <pt x="153" y="584" on="1"/>
        <pt x="153" y="380" on="1"/>
      </contour>
      <contour>
        <pt x="669" y="335" on="1"/>
        <pt x="655" y="327" on="0"/>
        <pt x="621" y="319" on="0"/>
        <pt x="606" y="315" on="1"/>
        <pt x="662" y="249" on="0"/>
        <pt x="775" y="121" on="0"/>
        <pt x="832" y="55" on="1"/>
        <pt x="751" y="55" on="1"/>
        <pt x="520" y="320" on="1"/>
        <pt x="153" y="320" on="1"/>
        <pt x="153" y="55" on="1"/>
        <pt x="91" y="55" on="1"/>
        <pt x="91" y="645" on="1"/>
        <pt x="579" y="645" on="1"/>
        <pt x="620" y="645" on="0"/>
        <pt x="691" y="627" on="0"/>
        <pt x="742" y="587" on="0"/>
        <pt x="771" y="525" on="0"/>
        <pt x="771" y="481" on="1"/>
        <pt x="771" y="426" on="0"/>
        <pt x="721" y="355" on="0"/>
        <pt x="670" y="335" on="1"/>
      </contour>
      <contour>
        <pt x="827" y="481" on="1"/>
        <pt x="827" y="538" on="0"/>
        <pt x="791" y="621" on="0"/>
        <pt x="725" y="675" on="0"/>
        <pt x="634" y="701" on="0"/>
        <pt x="579" y="701" on="1"/>
        <pt x="37" y="701" on="1"/>
        <pt x="37" y="-1" on="1"/>
        <pt x="208" y="-1" on="1"/>
        <pt x="208" y="265" on="1"/>
        <pt x="494" y="265" on="1"/>
        <pt x="724" y="-1" on="1"/>
        <pt x="954" y="-1" on="1"/>
        <pt x="702" y="288" on="1"/>
        <pt x="827" y="343" on="0"/>
      </contour>
      <contour>
        <pt x="12" y="-26" on="1"/>
        <pt x="12" y="726" on="1"/>
        <pt x="579" y="726" on="1"/>
        <pt x="618" y="726" on="0"/>
        <pt x="690" y="715" on="0"/>
        <pt x="763" y="681" on="0"/>
        <pt x="842" y="617" on="0"/>
        <pt x="887" y="564" on="1"/>
        <pt x="916" y="535" on="0"/>
        <pt x="949" y="438" on="0"/>
        <pt x="949" y="381" on="1"/>
        <pt x="949" y="315" on="0"/>
        <pt x="892" y="213" on="0"/>
        <pt x="838" y="181" on="1"/>
        <pt x="869" y="145" on="0"/>
        <pt x="937" y="67" on="0"/>
        <pt x="1005" y="-12" on="0"/>
        <pt x="1072" y="-89" on="0"/>
        <pt x="1102" y="-123" on="1"/>
        <pt x="814" y="-123" on="1"/>
        <pt x="713" y="-26" on="1"/>
        <pt x="567" y="143" on="1"/>
        <pt x="330" y="143" on="1"/>
        <pt x="330" y="-123" on="1"/>
        <pt x="115" y="-123" on="1"/>
      </contour>
    </TTGlyph>
    <TTGlyph name="S" xMin="4" yMin="-123" xMax="1038" yMax="726">
      <contour>
        <pt x="183" y="192" on="1"/>
        <pt x="215" y="161" on="0"/>
        <pt x="293" y="129" on="0"/>
        <pt x="377" y="116" on="0"/>
        <pt x="465" y="115" on="0"/>
        <pt x="506" y="115" on="1"/>
        <pt x="521" y="115" on="0"/>
        <pt x="572" y="117" on="0"/>
        <pt x="631" y="124" on="0"/>
        <pt x="691" y="137" on="0"/>
        <pt x="740" y="159" on="0"/>
        <pt x="771" y="190" on="0"/>
        <pt x="771" y="212" on="1"/>
        <pt x="771" y="234" on="0"/>
        <pt x="738" y="267" on="0"/>
        <pt x="686" y="291" on="0"/>
        <pt x="621" y="308" on="0"/>
        <pt x="557" y="317" on="0"/>
        <pt x="502" y="321" on="0"/>
        <pt x="485" y="321" on="1"/>
        <pt x="486" y="321" on="1"/>
        <pt x="462" y="322" on="0"/>
        <pt x="392" y="330" on="0"/>
        <pt x="316" y="346" on="0"/>
        <pt x="240" y="371" on="0"/>
        <pt x="180" y="407" on="0"/>
        <pt x="142" y="456" on="0"/>
        <pt x="142" y="488" on="1"/>
        <pt x="142" y="523" on="0"/>
        <pt x="179" y="573" on="0"/>
        <pt x="238" y="608" on="0"/>
        <pt x="312" y="629" on="0"/>
        <pt x="388" y="641" on="0"/>
        <pt x="457" y="645" on="0"/>
        <pt x="481" y="645" on="1"/>
        <pt x="520" y="645" on="0"/>
        <pt x="601" y="638" on="0"/>
        <pt x="679" y="620" on="0"/>
        <pt x="753" y="589" on="0"/>
        <pt x="784" y="565" on="1"/>
        <pt x="731" y="527" on="1"/>
        <pt x="702" y="547" on="0"/>
        <pt x="638" y="570" on="0"/>
        <pt x="570" y="582" on="0"/>
        <pt x="500" y="585" on="0"/>
        <pt x="467" y="585" on="1"/>
        <pt x="444" y="585" on="0"/>
        <pt x="365" y="579" on="0"/>
        <pt x="288" y="560" on="0"/>
        <pt x="232" y="521" on="0"/>
        <pt x="232" y="488" on="1"/>
        <pt x="232" y="456" on="0"/>
        <pt x="286" y="417" on="0"/>
        <pt x="374" y="394" on="0"/>
        <pt x="487" y="381" on="0"/>
        <pt x="605" y="367" on="0"/>
        <pt x="718" y="348" on="0"/>
        <pt x="806" y="313" on="0"/>
        <pt x="860" y="256" on="0"/>
        <pt x="860" y="212" on="1"/>
        <pt x="860" y="181" on="0"/>
        <pt x="823" y="133" on="0"/>
        <pt x="763" y="98" on="0"/>
        <pt x="688" y="75" on="0"/>
        <pt x="613" y="61" on="0"/>
        <pt x="545" y="55" on="0"/>
        <pt x="523" y="55" on="1"/>
        <pt x="448" y="55" on="1"/>
        <pt x="407" y="55" on="0"/>
        <pt x="317" y="61" on="0"/>
        <pt x="231" y="82" on="0"/>
        <pt x="153" y="120" on="0"/>
        <pt x="123" y="153" on="1"/>
      </contour>
      <contour>
        <pt x="40" y="174" on="1"/>
        <pt x="80" y="109" on="0"/>
        <pt x="190" y="38" on="0"/>
        <pt x="318" y="5" on="0"/>
        <pt x="455" y="-1" on="0"/>
        <pt x="523" y="-1" on="1"/>
        <pt x="553" y="-1" on="0"/>
        <pt x="635" y="8" on="0"/>
        <pt x="723" y="28" on="0"/>
        <pt x="808" y="61" on="0"/>
        <pt x="875" y="108" on="0"/>
        <pt x="916" y="171" on="0"/>
        <pt x="916" y="212" on="1"/>
        <pt x="916" y="261" on="0"/>
        <pt x="873" y="330" on="0"/>
        <pt x="804" y="377" on="0"/>
        <pt x="715" y="406" on="0"/>
        <pt x="621" y="422" on="0"/>
        <pt x="531" y="430" on="0"/>
        <pt x="496" y="433" on="1"/>
        <pt x="484" y="434" on="0"/>
        <pt x="416" y="441" on="0"/>
        <pt x="344" y="454" on="0"/>
        <pt x="288" y="474" on="0"/>
        <pt x="288" y="488" on="1"/>
        <pt x="288" y="504" on="0"/>
        <pt x="340" y="520" on="0"/>
        <pt x="407" y="528" on="0"/>
        <pt x="470" y="529" on="0"/>
        <pt x="481" y="529" on="1"/>
        <pt x="513" y="529" on="0"/>
        <pt x="579" y="524" on="0"/>
        <pt x="642" y="508" on="0"/>
        <pt x="699" y="478" on="0"/>
        <pt x="723" y="454" on="1"/>
        <pt x="869" y="552" on="1"/>
        <pt x="831" y="604" on="0"/>
        <pt x="735" y="663" on="0"/>
        <pt x="627" y="693" on="0"/>
        <pt x="510" y="701" on="0"/>
        <pt x="451" y="701" on="1"/>
        <pt x="420" y="701" on="0"/>
        <pt x="341" y="692" on="0"/>
        <pt x="260" y="672" on="0"/>
        <pt x="183" y="640" on="0"/>
        <pt x="123" y="592" on="0"/>
        <pt x="87" y="529" on="0"/>
        <pt x="87" y="488" on="1"/>
        <pt x="87" y="441" on="0"/>
        <pt x="133" y="373" on="0"/>
        <pt x="209" y="325" on="0"/>
        <pt x="305" y="295" on="0"/>
        <pt x="404" y="276" on="0"/>
        <pt x="497" y="265" on="0"/>
        <pt x="532" y="261" on="1"/>
        <pt x="542" y="260" on="0"/>
        <pt x="601" y="254" on="0"/>
        <pt x="665" y="243" on="0"/>
        <pt x="715" y="225" on="0"/>
        <pt x="715" y="212" on="1"/>
        <pt x="715" y="201" on="0"/>
        <pt x="683" y="186" on="0"/>
        <pt x="633" y="177" on="0"/>
        <pt x="573" y="173" on="0"/>
        <pt x="516" y="171" on="0"/>
        <pt x="471" y="171" on="0"/>
        <pt x="462" y="171" on="1"/>
        <pt x="424" y="171" on="0"/>
        <pt x="350" y="178" on="0"/>
        <pt x="280" y="199" on="0"/>
        <pt x="218" y="237" on="0"/>
        <pt x="193" y="269" on="1"/>
      </contour>
      <contour>
        <pt x="185" y="294" on="1"/>
        <pt x="137" y="343" on="1"/>
        <pt x="102" y="369" on="0"/>
        <pt x="62" y="440" on="0"/>
        <pt x="62" y="488" on="1"/>
        <pt x="62" y="534" on="0"/>
        <pt x="101" y="605" on="0"/>
        <pt x="165" y="657" on="0"/>
        <pt x="247" y="694" on="0"/>
        <pt x="333" y="716" on="0"/>
        <pt x="417" y="726" on="0"/>
        <pt x="451" y="726" on="1"/>
        <pt x="510" y="726" on="0"/>
        <pt x="630" y="719" on="0"/>
        <pt x="745" y="689" on="0"/>
        <pt x="851" y="627" on="0"/>
        <pt x="897" y="571" on="1"/>
        <pt x="928" y="540" on="0"/>
        <pt x="964" y="499" on="0"/>
        <pt x="985" y="471" on="0"/>
        <pt x="995" y="454" on="0"/>
        <pt x="1000" y="447" on="1"/>
        <pt x="872" y="361" on="1"/>
        <pt x="877" y="356" on="0"/>
        <pt x="890" y="349" on="0"/>
        <pt x="914" y="329" on="0"/>
        <pt x="953" y="292" on="0"/>
        <pt x="986" y="258" on="1"/>
        <pt x="1010" y="233" on="0"/>
        <pt x="1038" y="155" on="0"/>
        <pt x="1038" y="112" on="1"/>
        <pt x="1038" y="67" on="0"/>
        <pt x="994" y="-3" on="0"/>
        <pt x="924" y="-55" on="0"/>
        <pt x="834" y="-91" on="0"/>
        <pt x="742" y="-113" on="0"/>
        <pt x="655" y="-123" on="0"/>
        <pt x="623" y="-123" on="1"/>
        <pt x="564" y="-123" on="0"/>
        <pt x="442" y="-123" on="0"/>
        <pt x="325" y="-103" on="0"/>
        <pt x="215" y="-57" on="0"/>
        <pt x="169" y="-10" on="1"/>
        <pt x="130" y="26" on="0"/>
        <pt x="77" y="81" on="0"/>
        <pt x="40" y="126" on="0"/>
        <pt x="15" y="164" on="0"/>
        <pt x="4" y="182" on="1"/>
      </contour>
    </TTGlyph>
    <TTGlyph name="Scaron" xMin="4" yMin="-123" xMax="1038" yMax="974">
      <contour>
        <pt x="288" y="914" on="1"/>
        <pt x="343" y="914" on="1"/>
        <pt x="476" y="830" on="1"/>
        <pt x="608" y="914" on="1"/>
        <pt x="664" y="914" on="1"/>
        <pt x="622" y="885" on="0"/>
        <pt x="540" y="828" on="0"/>
        <pt x="498" y="799" on="1"/>
        <pt x="454" y="799" on="1"/>
      </contour>
      <contour>
        <pt x="807" y="949" on="1"/>
        <pt x="579" y="949" on="1"/>
        <pt x="476" y="879" on="1"/>
        <pt x="372" y="949" on="1"/>
        <pt x="144" y="949" on="1"/>
        <pt x="439" y="751" on="1"/>
        <pt x="513" y="751" on="1"/>
      </contour>
      <contour>
        <pt x="183" y="192" on="1"/>
        <pt x="215" y="161" on="0"/>
        <pt x="293" y="129" on="0"/>
        <pt x="377" y="116" on="0"/>
        <pt x="465" y="115" on="0"/>
        <pt x="506" y="115" on="1"/>
        <pt x="521" y="115" on="0"/>
        <pt x="572" y="117" on="0"/>
        <pt x="631" y="124" on="0"/>
        <pt x="691" y="137" on="0"/>
        <pt x="740" y="159" on="0"/>
        <pt x="771" y="190" on="0"/>
        <pt x="771" y="212" on="1"/>
        <pt x="771" y="234" on="0"/>
        <pt x="738" y="267" on="0"/>
        <pt x="686" y="291" on="0"/>
        <pt x="621" y="308" on="0"/>
        <pt x="557" y="317" on="0"/>
        <pt x="502" y="321" on="0"/>
        <pt x="485" y="321" on="1"/>
        <pt x="486" y="321" on="1"/>
        <pt x="462" y="322" on="0"/>
        <pt x="392" y="330" on="0"/>
        <pt x="316" y="346" on="0"/>
        <pt x="240" y="371" on="0"/>
        <pt x="180" y="407" on="0"/>
        <pt x="142" y="456" on="0"/>
        <pt x="142" y="488" on="1"/>
        <pt x="142" y="523" on="0"/>
        <pt x="179" y="573" on="0"/>
        <pt x="238" y="608" on="0"/>
        <pt x="312" y="629" on="0"/>
        <pt x="388" y="641" on="0"/>
        <pt x="457" y="645" on="0"/>
        <pt x="481" y="645" on="1"/>
        <pt x="520" y="645" on="0"/>
        <pt x="601" y="638" on="0"/>
        <pt x="679" y="620" on="0"/>
        <pt x="753" y="589" on="0"/>
        <pt x="784" y="565" on="1"/>
        <pt x="731" y="527" on="1"/>
        <pt x="702" y="547" on="0"/>
        <pt x="638" y="570" on="0"/>
        <pt x="570" y="582" on="0"/>
        <pt x="500" y="585" on="0"/>
        <pt x="467" y="585" on="1"/>
        <pt x="444" y="585" on="0"/>
        <pt x="365" y="579" on="0"/>
        <pt x="288" y="560" on="0"/>
        <pt x="232" y="521" on="0"/>
        <pt x="232" y="488" on="1"/>
        <pt x="232" y="456" on="0"/>
        <pt x="286" y="417" on="0"/>
        <pt x="374" y="394" on="0"/>
        <pt x="487" y="381" on="0"/>
        <pt x="605" y="367" on="0"/>
        <pt x="718" y="348" on="0"/>
        <pt x="806" y="313" on="0"/>
        <pt x="860" y="256" on="0"/>
        <pt x="860" y="212" on="1"/>
        <pt x="860" y="181" on="0"/>
        <pt x="823" y="133" on="0"/>
        <pt x="763" y="98" on="0"/>
        <pt x="688" y="75" on="0"/>
        <pt x="613" y="61" on="0"/>
        <pt x="545" y="55" on="0"/>
        <pt x="523" y="55" on="1"/>
        <pt x="448" y="55" on="1"/>
        <pt x="407" y="55" on="0"/>
        <pt x="317" y="61" on="0"/>
        <pt x="231" y="82" on="0"/>
        <pt x="153" y="120" on="0"/>
        <pt x="123" y="153" on="1"/>
      </contour>
      <contour>
        <pt x="40" y="174" on="1"/>
        <pt x="80" y="109" on="0"/>
        <pt x="190" y="38" on="0"/>
        <pt x="318" y="5" on="0"/>
        <pt x="455" y="-1" on="0"/>
        <pt x="523" y="-1" on="1"/>
        <pt x="553" y="-1" on="0"/>
        <pt x="635" y="8" on="0"/>
        <pt x="723" y="28" on="0"/>
        <pt x="808" y="61" on="0"/>
        <pt x="875" y="108" on="0"/>
        <pt x="916" y="171" on="0"/>
        <pt x="916" y="212" on="1"/>
        <pt x="916" y="261" on="0"/>
        <pt x="873" y="330" on="0"/>
        <pt x="804" y="377" on="0"/>
        <pt x="715" y="406" on="0"/>
        <pt x="621" y="422" on="0"/>
        <pt x="531" y="430" on="0"/>
        <pt x="496" y="433" on="1"/>
        <pt x="484" y="434" on="0"/>
        <pt x="416" y="441" on="0"/>
        <pt x="344" y="454" on="0"/>
        <pt x="288" y="474" on="0"/>
        <pt x="288" y="488" on="1"/>
        <pt x="288" y="504" on="0"/>
        <pt x="340" y="520" on="0"/>
        <pt x="407" y="528" on="0"/>
        <pt x="470" y="529" on="0"/>
        <pt x="481" y="529" on="1"/>
        <pt x="513" y="529" on="0"/>
        <pt x="579" y="524" on="0"/>
        <pt x="642" y="508" on="0"/>
        <pt x="699" y="478" on="0"/>
        <pt x="723" y="454" on="1"/>
        <pt x="869" y="552" on="1"/>
        <pt x="831" y="604" on="0"/>
        <pt x="735" y="663" on="0"/>
        <pt x="627" y="693" on="0"/>
        <pt x="510" y="701" on="0"/>
        <pt x="451" y="701" on="1"/>
        <pt x="420" y="701" on="0"/>
        <pt x="341" y="692" on="0"/>
        <pt x="260" y="672" on="0"/>
        <pt x="183" y="640" on="0"/>
        <pt x="123" y="592" on="0"/>
        <pt x="87" y="529" on="0"/>
        <pt x="87" y="488" on="1"/>
        <pt x="87" y="441" on="0"/>
        <pt x="133" y="373" on="0"/>
        <pt x="209" y="325" on="0"/>
        <pt x="305" y="295" on="0"/>
        <pt x="404" y="276" on="0"/>
        <pt x="497" y="265" on="0"/>
        <pt x="532" y="261" on="1"/>
        <pt x="542" y="260" on="0"/>
        <pt x="601" y="254" on="0"/>
        <pt x="665" y="243" on="0"/>
        <pt x="715" y="225" on="0"/>
        <pt x="715" y="212" on="1"/>
        <pt x="715" y="201" on="0"/>
        <pt x="683" y="186" on="0"/>
        <pt x="633" y="177" on="0"/>
        <pt x="573" y="173" on="0"/>
        <pt x="516" y="171" on="0"/>
        <pt x="471" y="171" on="0"/>
        <pt x="462" y="171" on="1"/>
        <pt x="424" y="171" on="0"/>
        <pt x="350" y="178" on="0"/>
        <pt x="280" y="199" on="0"/>
        <pt x="218" y="237" on="0"/>
        <pt x="193" y="269" on="1"/>
      </contour>
      <contour>
        <pt x="872" y="361" on="1"/>
        <pt x="877" y="356" on="0"/>
        <pt x="890" y="349" on="0"/>
        <pt x="914" y="329" on="0"/>
        <pt x="953" y="292" on="0"/>
        <pt x="986" y="258" on="1"/>
        <pt x="1010" y="233" on="0"/>
        <pt x="1038" y="155" on="0"/>
        <pt x="1038" y="112" on="1"/>
        <pt x="1038" y="67" on="0"/>
        <pt x="994" y="-3" on="0"/>
        <pt x="924" y="-55" on="0"/>
        <pt x="834" y="-91" on="0"/>
        <pt x="742" y="-113" on="0"/>
        <pt x="655" y="-123" on="0"/>
        <pt x="623" y="-123" on="1"/>
        <pt x="564" y="-123" on="0"/>
        <pt x="441" y="-121" on="0"/>
        <pt x="322" y="-101" on="0"/>
        <pt x="211" y="-53" on="0"/>
        <pt x="165" y="-6" on="1"/>
        <pt x="126" y="30" on="0"/>
        <pt x="74" y="83" on="0"/>
        <pt x="39" y="127" on="0"/>
        <pt x="15" y="164" on="0"/>
        <pt x="4" y="182" on="1"/>
        <pt x="185" y="294" on="1"/>
        <pt x="137" y="343" on="1"/>
        <pt x="102" y="369" on="0"/>
        <pt x="62" y="440" on="0"/>
        <pt x="62" y="488" on="1"/>
        <pt x="62" y="548" on="0"/>
        <pt x="130" y="638" on="0"/>
        <pt x="232" y="697" on="0"/>
        <pt x="353" y="725" on="0"/>
        <pt x="407" y="723" on="1"/>
        <pt x="43" y="974" on="1"/>
        <pt x="379" y="974" on="1"/>
        <pt x="476" y="909" on="1"/>
        <pt x="499" y="925" on="0"/>
        <pt x="549" y="958" on="0"/>
        <pt x="572" y="974" on="1"/>
        <pt x="887" y="974" on="1"/>
        <pt x="978" y="871" on="1"/>
        <pt x="711" y="691" on="1"/>
        <pt x="754" y="680" on="0"/>
        <pt x="834" y="629" on="0"/>
        <pt x="906" y="561" on="0"/>
        <pt x="971" y="484" on="0"/>
        <pt x="1000" y="447" on="1"/>
      </contour>
    </TTGlyph>
    <TTGlyph name="T" xMin="7" yMin="-123" xMax="995" yMax="726">
      <contour>
        <pt x="422" y="55" on="1"/>
        <pt x="422" y="584" on="1"/>
        <pt x="87" y="584" on="1"/>
        <pt x="87" y="645" on="1"/>
        <pt x="818" y="645" on="1"/>
        <pt x="818" y="584" on="1"/>
        <pt x="482" y="584" on="1"/>
        <pt x="482" y="55" on="1"/>
      </contour>
      <contour>
        <pt x="537" y="-1" on="1"/>
        <pt x="537" y="528" on="1"/>
        <pt x="873" y="528" on="1"/>
        <pt x="873" y="701" on="1"/>
        <pt x="32" y="701" on="1"/>
        <pt x="32" y="528" on="1"/>
        <pt x="367" y="528" on="1"/>
        <pt x="367" y="-1" on="1"/>
      </contour>
      <contour>
        <pt x="7" y="503" on="1"/>
        <pt x="7" y="726" on="1"/>
        <pt x="898" y="726" on="1"/>
        <pt x="995" y="623" on="1"/>
        <pt x="995" y="406" on="1"/>
        <pt x="659" y="406" on="1"/>
        <pt x="659" y="-123" on="1"/>
        <pt x="445" y="-123" on="1"/>
        <pt x="342" y="-26" on="1"/>
        <pt x="342" y="406" on="1"/>
        <pt x="110" y="406" on="1"/>
      </contour>
    </TTGlyph>
    <TTGlyph name="Thorn" xMin="5" yMin="-123" xMax="972" yMax="726">
      <contour>
        <pt x="146" y="215" on="1"/>
        <pt x="562" y="215" on="1"/>
        <pt x="597" y="215" on="0"/>
        <pt x="658" y="230" on="0"/>
        <pt x="704" y="263" on="0"/>
        <pt x="731" y="317" on="0"/>
        <pt x="731" y="356" on="1"/>
        <pt x="731" y="395" on="0"/>
        <pt x="704" y="448" on="0"/>
        <pt x="658" y="481" on="0"/>
        <pt x="597" y="496" on="0"/>
        <pt x="562" y="496" on="1"/>
        <pt x="146" y="496" on="1"/>
      </contour>
      <contour>
        <pt x="562" y="440" on="1"/>
        <pt x="583" y="440" on="0"/>
        <pt x="624" y="433" on="0"/>
        <pt x="656" y="414" on="0"/>
        <pt x="676" y="381" on="0"/>
        <pt x="676" y="356" on="1"/>
        <pt x="676" y="331" on="0"/>
        <pt x="656" y="298" on="0"/>
        <pt x="624" y="278" on="0"/>
        <pt x="583" y="270" on="0"/>
        <pt x="562" y="270" on="1"/>
        <pt x="201" y="270" on="1"/>
        <pt x="201" y="440" on="1"/>
      </contour>
      <contour>
        <pt x="84" y="645" on="1"/>
        <pt x="146" y="645" on="1"/>
        <pt x="146" y="559" on="1"/>
        <pt x="562" y="559" on="1"/>
        <pt x="612" y="559" on="0"/>
        <pt x="698" y="537" on="0"/>
        <pt x="761" y="489" on="0"/>
        <pt x="796" y="412" on="0"/>
        <pt x="796" y="356" on="1"/>
        <pt x="796" y="300" on="0"/>
        <pt x="761" y="223" on="0"/>
        <pt x="698" y="175" on="0"/>
        <pt x="612" y="153" on="0"/>
        <pt x="562" y="153" on="1"/>
        <pt x="146" y="153" on="1"/>
        <pt x="146" y="55" on="1"/>
        <pt x="84" y="55" on="1"/>
      </contour>
      <contour>
        <pt x="201" y="97" on="1"/>
        <pt x="562" y="97" on="1"/>
        <pt x="626" y="97" on="0"/>
        <pt x="732" y="126" on="0"/>
        <pt x="808" y="188" on="0"/>
        <pt x="850" y="286" on="0"/>
        <pt x="850" y="356" on="1"/>
        <pt x="850" y="426" on="0"/>
        <pt x="808" y="524" on="0"/>
        <pt x="732" y="586" on="0"/>
        <pt x="626" y="614" on="0"/>
        <pt x="562" y="614" on="1"/>
        <pt x="201" y="614" on="1"/>
        <pt x="201" y="701" on="1"/>
        <pt x="30" y="701" on="1"/>
        <pt x="30" y="-1" on="1"/>
        <pt x="201" y="-1" on="1"/>
      </contour>
      <contour>
        <pt x="5" y="-26" on="1"/>
        <pt x="5" y="726" on="1"/>
        <pt x="226" y="726" on="1"/>
        <pt x="307" y="639" on="1"/>
        <pt x="562" y="639" on="1"/>
        <pt x="605" y="639" on="0"/>
        <pt x="686" y="628" on="0"/>
        <pt x="768" y="592" on="0"/>
        <pt x="854" y="525" on="0"/>
        <pt x="903" y="469" on="1"/>
        <pt x="937" y="435" on="0"/>
        <pt x="972" y="325" on="0"/>
        <pt x="972" y="256" on="1"/>
        <pt x="972" y="180" on="0"/>
        <pt x="927" y="73" on="0"/>
        <pt x="845" y="6" on="0"/>
        <pt x="731" y="-25" on="0"/>
        <pt x="662" y="-25" on="1"/>
        <pt x="323" y="-25" on="1"/>
        <pt x="323" y="-123" on="1"/>
        <pt x="108" y="-123" on="1"/>
      </contour>
      <contour>
        <pt x="323" y="295" on="1"/>
        <pt x="562" y="295" on="1"/>
        <pt x="584" y="295" on="0"/>
        <pt x="624" y="304" on="0"/>
        <pt x="637" y="318" on="1"/>
        <pt x="323" y="318" on="1"/>
      </contour>
    </TTGlyph>
    <TTGlyph name="U" xMin="13" yMin="-123" xMax="1060" yMax="726">
      <contour>
        <pt x="157" y="645" on="1"/>
        <pt x="157" y="350" on="1"/>
        <pt x="157" y="285" on="0"/>
        <pt x="199" y="196" on="0"/>
        <pt x="274" y="141" on="0"/>
        <pt x="374" y="116" on="0"/>
        <pt x="433" y="116" on="1"/>
        <pt x="543" y="116" on="1"/>
        <pt x="601" y="116" on="0"/>
        <pt x="702" y="141" on="0"/>
        <pt x="777" y="196" on="0"/>
        <pt x="820" y="285" on="0"/>
        <pt x="820" y="350" on="1"/>
        <pt x="820" y="645" on="1"/>
        <pt x="883" y="645" on="1"/>
        <pt x="883" y="350" on="1"/>
        <pt x="883" y="269" on="0"/>
        <pt x="831" y="157" on="0"/>
        <pt x="740" y="86" on="0"/>
        <pt x="616" y="55" on="0"/>
        <pt x="543" y="55" on="1"/>
        <pt x="433" y="55" on="1"/>
        <pt x="360" y="55" on="0"/>
        <pt x="235" y="86" on="0"/>
        <pt x="144" y="157" on="0"/>
        <pt x="93" y="269" on="0"/>
        <pt x="93" y="350" on="1"/>
        <pt x="93" y="645" on="1"/>
      </contour>
      <contour>
        <pt x="38" y="350" on="1"/>
        <pt x="38" y="255" on="0"/>
        <pt x="96" y="122" on="0"/>
        <pt x="201" y="38" on="0"/>
        <pt x="346" y="-1" on="0"/>
        <pt x="433" y="-1" on="1"/>
        <pt x="543" y="-1" on="1"/>
        <pt x="630" y="-1" on="0"/>
        <pt x="775" y="38" on="0"/>
        <pt x="880" y="122" on="0"/>
        <pt x="938" y="255" on="0"/>
        <pt x="938" y="350" on="1"/>
        <pt x="938" y="701" on="1"/>
        <pt x="764" y="701" on="1"/>
        <pt x="764" y="350" on="1"/>
        <pt x="764" y="299" on="0"/>
        <pt x="728" y="231" on="0"/>
        <pt x="668" y="190" on="0"/>
        <pt x="588" y="172" on="0"/>
        <pt x="543" y="172" on="1"/>
        <pt x="433" y="172" on="1"/>
        <pt x="388" y="172" on="0"/>
        <pt x="308" y="190" on="0"/>
        <pt x="248" y="232" on="0"/>
        <pt x="213" y="300" on="0"/>
        <pt x="213" y="350" on="1"/>
        <pt x="213" y="701" on="1"/>
        <pt x="38" y="701" on="1"/>
      </contour>
      <contour>
        <pt x="13" y="726" on="1"/>
        <pt x="238" y="726" on="1"/>
        <pt x="335" y="623" on="1"/>
        <pt x="335" y="250" on="1"/>
        <pt x="335" y="239" on="0"/>
        <pt x="336" y="219" on="0"/>
        <pt x="338" y="210" on="1"/>
        <pt x="380" y="197" on="0"/>
        <pt x="433" y="197" on="1"/>
        <pt x="543" y="197" on="1"/>
        <pt x="582" y="197" on="0"/>
        <pt x="653" y="212" on="0"/>
        <pt x="707" y="248" on="0"/>
        <pt x="739" y="306" on="0"/>
        <pt x="739" y="350" on="1"/>
        <pt x="739" y="726" on="1"/>
        <pt x="963" y="726" on="1"/>
        <pt x="1060" y="623" on="1"/>
        <pt x="1060" y="250" on="1"/>
        <pt x="1060" y="149" on="0"/>
        <pt x="998" y="7" on="0"/>
        <pt x="888" y="-82" on="0"/>
        <pt x="734" y="-123" on="0"/>
        <pt x="643" y="-123" on="1"/>
        <pt x="533" y="-123" on="1"/>
        <pt x="482" y="-123" on="0"/>
        <pt x="387" y="-113" on="0"/>
        <pt x="302" y="-90" on="0"/>
        <pt x="230" y="-52" on="0"/>
        <pt x="202" y="-24" on="1"/>
        <pt x="145" y="25" on="0"/>
        <pt x="72" y="114" on="0"/>
        <pt x="30" y="204" on="0"/>
        <pt x="13" y="297" on="0"/>
        <pt x="13" y="350" on="1"/>
      </contour>
    </TTGlyph>
    <TTGlyph name="Uacute" xMin="13" yMin="-123" xMax="1060" yMax="940">
      <contour>
        <pt x="601" y="879" on="1"/>
        <pt x="569" y="856" on="0"/>
        <pt x="506" y="808" on="0"/>
        <pt x="474" y="785" on="1"/>
        <pt x="405" y="785" on="1"/>
        <pt x="531" y="879" on="1"/>
      </contour>
      <contour>
        <pt x="288" y="749" on="1"/>
        <pt x="491" y="749" on="1"/>
        <pt x="712" y="915" on="1"/>
        <pt x="504" y="915" on="1"/>
      </contour>
      <contour>
        <pt x="157" y="645" on="1"/>
        <pt x="157" y="350" on="1"/>
        <pt x="157" y="285" on="0"/>
        <pt x="199" y="196" on="0"/>
        <pt x="274" y="141" on="0"/>
        <pt x="374" y="116" on="0"/>
        <pt x="433" y="116" on="1"/>
        <pt x="543" y="116" on="1"/>
        <pt x="601" y="116" on="0"/>
        <pt x="702" y="141" on="0"/>
        <pt x="777" y="196" on="0"/>
        <pt x="820" y="285" on="0"/>
        <pt x="820" y="350" on="1"/>
        <pt x="820" y="645" on="1"/>
        <pt x="883" y="645" on="1"/>
        <pt x="883" y="350" on="1"/>
        <pt x="883" y="269" on="0"/>
        <pt x="831" y="157" on="0"/>
        <pt x="740" y="86" on="0"/>
        <pt x="616" y="55" on="0"/>
        <pt x="543" y="55" on="1"/>
        <pt x="433" y="55" on="1"/>
        <pt x="360" y="55" on="0"/>
        <pt x="235" y="86" on="0"/>
        <pt x="144" y="157" on="0"/>
        <pt x="93" y="269" on="0"/>
        <pt x="93" y="350" on="1"/>
        <pt x="93" y="645" on="1"/>
      </contour>
      <contour>
        <pt x="38" y="350" on="1"/>
        <pt x="38" y="255" on="0"/>
        <pt x="96" y="122" on="0"/>
        <pt x="201" y="38" on="0"/>
        <pt x="346" y="-1" on="0"/>
        <pt x="433" y="-1" on="1"/>
        <pt x="543" y="-1" on="1"/>
        <pt x="630" y="-1" on="0"/>
        <pt x="775" y="38" on="0"/>
        <pt x="880" y="122" on="0"/>
        <pt x="938" y="255" on="0"/>
        <pt x="938" y="350" on="1"/>
        <pt x="938" y="701" on="1"/>
        <pt x="764" y="701" on="1"/>
        <pt x="764" y="350" on="1"/>
        <pt x="764" y="299" on="0"/>
        <pt x="728" y="231" on="0"/>
        <pt x="668" y="190" on="0"/>
        <pt x="588" y="172" on="0"/>
        <pt x="543" y="172" on="1"/>
        <pt x="433" y="172" on="1"/>
        <pt x="388" y="172" on="0"/>
        <pt x="308" y="190" on="0"/>
        <pt x="248" y="232" on="0"/>
        <pt x="213" y="300" on="0"/>
        <pt x="213" y="350" on="1"/>
        <pt x="213" y="701" on="1"/>
        <pt x="38" y="701" on="1"/>
      </contour>
      <contour>
        <pt x="787" y="940" on="1"/>
        <pt x="878" y="837" on="1"/>
        <pt x="599" y="627" on="1"/>
        <pt x="331" y="627" on="1"/>
        <pt x="335" y="623" on="1"/>
        <pt x="335" y="250" on="1"/>
        <pt x="335" y="239" on="0"/>
        <pt x="336" y="219" on="0"/>
        <pt x="338" y="210" on="1"/>
        <pt x="380" y="197" on="0"/>
        <pt x="433" y="197" on="1"/>
        <pt x="543" y="197" on="1"/>
        <pt x="582" y="197" on="0"/>
        <pt x="653" y="212" on="0"/>
        <pt x="707" y="248" on="0"/>
        <pt x="739" y="306" on="0"/>
        <pt x="739" y="350" on="1"/>
        <pt x="739" y="726" on="1"/>
        <pt x="963" y="726" on="1"/>
        <pt x="1060" y="623" on="1"/>
        <pt x="1060" y="250" on="1"/>
        <pt x="1060" y="149" on="0"/>
        <pt x="998" y="7" on="0"/>
        <pt x="888" y="-82" on="0"/>
        <pt x="734" y="-123" on="0"/>
        <pt x="643" y="-123" on="1"/>
        <pt x="533" y="-123" on="1"/>
        <pt x="482" y="-123" on="0"/>
        <pt x="387" y="-114" on="0"/>
        <pt x="302" y="-91" on="0"/>
        <pt x="230" y="-54" on="0"/>
        <pt x="202" y="-26" on="1"/>
        <pt x="145" y="23" on="0"/>
        <pt x="72" y="113" on="0"/>
        <pt x="30" y="203" on="0"/>
        <pt x="13" y="297" on="0"/>
        <pt x="13" y="350" on="1"/>
        <pt x="13" y="726" on="1"/>
        <pt x="217" y="726" on="1"/>
        <pt x="497" y="940" on="1"/>
      </contour>
    </TTGlyph>
    <TTGlyph name="Ucircumflex" xMin="13" yMin="-123" xMax="1060" yMax="974">
      <contour>
        <pt x="507" y="901" on="1"/>
        <pt x="549" y="872" on="0"/>
        <pt x="631" y="815" on="0"/>
        <pt x="673" y="786" on="1"/>
        <pt x="617" y="786" on="1"/>
        <pt x="485" y="870" on="1"/>
        <pt x="352" y="786" on="1"/>
        <pt x="297" y="786" on="1"/>
        <pt x="463" y="901" on="1"/>
      </contour>
      <contour>
        <pt x="153" y="751" on="1"/>
        <pt x="381" y="751" on="1"/>
        <pt x="485" y="821" on="1"/>
        <pt x="588" y="751" on="1"/>
        <pt x="816" y="751" on="1"/>
        <pt x="522" y="949" on="1"/>
        <pt x="448" y="949" on="1"/>
      </contour>
      <contour>
        <pt x="157" y="645" on="1"/>
        <pt x="157" y="350" on="1"/>
        <pt x="157" y="285" on="0"/>
        <pt x="199" y="196" on="0"/>
        <pt x="274" y="141" on="0"/>
        <pt x="374" y="116" on="0"/>
        <pt x="433" y="116" on="1"/>
        <pt x="543" y="116" on="1"/>
        <pt x="601" y="116" on="0"/>
        <pt x="702" y="141" on="0"/>
        <pt x="777" y="196" on="0"/>
        <pt x="820" y="285" on="0"/>
        <pt x="820" y="350" on="1"/>
        <pt x="820" y="645" on="1"/>
        <pt x="883" y="645" on="1"/>
        <pt x="883" y="350" on="1"/>
        <pt x="883" y="269" on="0"/>
        <pt x="831" y="157" on="0"/>
        <pt x="740" y="86" on="0"/>
        <pt x="616" y="55" on="0"/>
        <pt x="543" y="55" on="1"/>
        <pt x="433" y="55" on="1"/>
        <pt x="360" y="55" on="0"/>
        <pt x="235" y="86" on="0"/>
        <pt x="144" y="157" on="0"/>
        <pt x="93" y="269" on="0"/>
        <pt x="93" y="350" on="1"/>
        <pt x="93" y="645" on="1"/>
      </contour>
      <contour>
        <pt x="38" y="350" on="1"/>
        <pt x="38" y="255" on="0"/>
        <pt x="96" y="122" on="0"/>
        <pt x="201" y="38" on="0"/>
        <pt x="346" y="-1" on="0"/>
        <pt x="433" y="-1" on="1"/>
        <pt x="543" y="-1" on="1"/>
        <pt x="630" y="-1" on="0"/>
        <pt x="775" y="38" on="0"/>
        <pt x="880" y="122" on="0"/>
        <pt x="938" y="255" on="0"/>
        <pt x="938" y="350" on="1"/>
        <pt x="938" y="701" on="1"/>
        <pt x="764" y="701" on="1"/>
        <pt x="764" y="350" on="1"/>
        <pt x="764" y="299" on="0"/>
        <pt x="728" y="231" on="0"/>
        <pt x="668" y="190" on="0"/>
        <pt x="588" y="172" on="0"/>
        <pt x="543" y="172" on="1"/>
        <pt x="433" y="172" on="1"/>
        <pt x="388" y="172" on="0"/>
        <pt x="308" y="190" on="0"/>
        <pt x="248" y="232" on="0"/>
        <pt x="213" y="300" on="0"/>
        <pt x="213" y="350" on="1"/>
        <pt x="213" y="701" on="1"/>
        <pt x="38" y="701" on="1"/>
      </contour>
      <contour>
        <pt x="529" y="974" on="1"/>
        <pt x="896" y="726" on="1"/>
        <pt x="963" y="726" on="1"/>
        <pt x="963" y="720" on="1"/>
        <pt x="1060" y="623" on="1"/>
        <pt x="1060" y="250" on="1"/>
        <pt x="1060" y="149" on="0"/>
        <pt x="998" y="7" on="0"/>
        <pt x="888" y="-82" on="0"/>
        <pt x="734" y="-123" on="0"/>
        <pt x="643" y="-123" on="1"/>
        <pt x="533" y="-123" on="1"/>
        <pt x="431" y="-123" on="0"/>
        <pt x="266" y="-73" on="0"/>
        <pt x="210" y="-17" on="1"/>
        <pt x="139" y="53" on="1"/>
        <pt x="79" y="98" on="0"/>
        <pt x="13" y="244" on="0"/>
        <pt x="13" y="350" on="1"/>
        <pt x="13" y="726" on="1"/>
        <pt x="72" y="726" on="1"/>
        <pt x="441" y="974" on="1"/>
      </contour>
      <contour>
        <pt x="739" y="629" on="1"/>
        <pt x="682" y="629" on="1"/>
        <pt x="585" y="695" on="1"/>
        <pt x="487" y="629" on="1"/>
        <pt x="329" y="629" on="1"/>
        <pt x="335" y="623" on="1"/>
        <pt x="335" y="250" on="1"/>
        <pt x="335" y="239" on="0"/>
        <pt x="336" y="219" on="0"/>
        <pt x="338" y="210" on="1"/>
        <pt x="380" y="197" on="0"/>
        <pt x="433" y="197" on="1"/>
        <pt x="543" y="197" on="1"/>
        <pt x="582" y="197" on="0"/>
        <pt x="653" y="212" on="0"/>
        <pt x="707" y="248" on="0"/>
        <pt x="739" y="306" on="0"/>
        <pt x="739" y="350" on="1"/>
      </contour>
      <contour>
        <pt x="241" y="120" on="1"/>
        <pt x="245" y="118" on="0"/>
        <pt x="252" y="114" on="0"/>
        <pt x="257" y="112" on="1"/>
        <pt x="234" y="134" on="1"/>
      </contour>
    </TTGlyph>
    <TTGlyph name="Udieresis" xMin="13" yMin="-123" xMax="1060" yMax="943">
      <contour>
        <pt x="583" y="863" on="1"/>
        <pt x="646" y="863" on="1"/>
        <pt x="646" y="806" on="1"/>
        <pt x="583" y="806" on="1"/>
      </contour>
      <contour>
        <pt x="702" y="918" on="1"/>
        <pt x="527" y="918" on="1"/>
        <pt x="527" y="751" on="1"/>
        <pt x="702" y="751" on="1"/>
      </contour>
      <contour>
        <pt x="341" y="863" on="1"/>
        <pt x="404" y="863" on="1"/>
        <pt x="404" y="806" on="1"/>
        <pt x="341" y="806" on="1"/>
      </contour>
      <contour>
        <pt x="459" y="918" on="1"/>
        <pt x="285" y="918" on="1"/>
        <pt x="285" y="751" on="1"/>
        <pt x="459" y="751" on="1"/>
      </contour>
      <contour>
        <pt x="157" y="645" on="1"/>
        <pt x="157" y="350" on="1"/>
        <pt x="157" y="285" on="0"/>
        <pt x="199" y="196" on="0"/>
        <pt x="274" y="141" on="0"/>
        <pt x="374" y="116" on="0"/>
        <pt x="433" y="116" on="1"/>
        <pt x="543" y="116" on="1"/>
        <pt x="601" y="116" on="0"/>
        <pt x="702" y="141" on="0"/>
        <pt x="777" y="196" on="0"/>
        <pt x="820" y="285" on="0"/>
        <pt x="820" y="350" on="1"/>
        <pt x="820" y="645" on="1"/>
        <pt x="883" y="645" on="1"/>
        <pt x="883" y="350" on="1"/>
        <pt x="883" y="269" on="0"/>
        <pt x="831" y="157" on="0"/>
        <pt x="740" y="86" on="0"/>
        <pt x="616" y="55" on="0"/>
        <pt x="543" y="55" on="1"/>
        <pt x="433" y="55" on="1"/>
        <pt x="360" y="55" on="0"/>
        <pt x="235" y="86" on="0"/>
        <pt x="144" y="157" on="0"/>
        <pt x="93" y="269" on="0"/>
        <pt x="93" y="350" on="1"/>
        <pt x="93" y="645" on="1"/>
      </contour>
      <contour>
        <pt x="38" y="350" on="1"/>
        <pt x="38" y="255" on="0"/>
        <pt x="96" y="122" on="0"/>
        <pt x="201" y="38" on="0"/>
        <pt x="346" y="-1" on="0"/>
        <pt x="433" y="-1" on="1"/>
        <pt x="543" y="-1" on="1"/>
        <pt x="630" y="-1" on="0"/>
        <pt x="775" y="38" on="0"/>
        <pt x="880" y="122" on="0"/>
        <pt x="938" y="255" on="0"/>
        <pt x="938" y="350" on="1"/>
        <pt x="938" y="701" on="1"/>
        <pt x="764" y="701" on="1"/>
        <pt x="764" y="350" on="1"/>
        <pt x="764" y="299" on="0"/>
        <pt x="728" y="231" on="0"/>
        <pt x="668" y="190" on="0"/>
        <pt x="588" y="172" on="0"/>
        <pt x="543" y="172" on="1"/>
        <pt x="433" y="172" on="1"/>
        <pt x="388" y="172" on="0"/>
        <pt x="308" y="190" on="0"/>
        <pt x="248" y="232" on="0"/>
        <pt x="213" y="300" on="0"/>
        <pt x="213" y="350" on="1"/>
        <pt x="213" y="701" on="1"/>
        <pt x="38" y="701" on="1"/>
      </contour>
      <contour>
        <pt x="13" y="726" on="1"/>
        <pt x="238" y="726" on="1"/>
        <pt x="335" y="623" on="1"/>
        <pt x="335" y="250" on="1"/>
        <pt x="335" y="239" on="0"/>
        <pt x="336" y="219" on="0"/>
        <pt x="338" y="210" on="1"/>
        <pt x="380" y="197" on="0"/>
        <pt x="433" y="197" on="1"/>
        <pt x="543" y="197" on="1"/>
        <pt x="582" y="197" on="0"/>
        <pt x="653" y="212" on="0"/>
        <pt x="707" y="248" on="0"/>
        <pt x="739" y="306" on="0"/>
        <pt x="739" y="350" on="1"/>
        <pt x="739" y="629" on="1"/>
        <pt x="605" y="629" on="1"/>
        <pt x="581" y="653" on="1"/>
        <pt x="581" y="629" on="1"/>
        <pt x="363" y="629" on="1"/>
        <pt x="260" y="726" on="1"/>
        <pt x="260" y="943" on="1"/>
        <pt x="484" y="943" on="1"/>
        <pt x="502" y="919" on="1"/>
        <pt x="502" y="943" on="1"/>
        <pt x="727" y="943" on="1"/>
        <pt x="824" y="840" on="1"/>
        <pt x="824" y="726" on="1"/>
        <pt x="963" y="726" on="1"/>
        <pt x="1060" y="623" on="1"/>
        <pt x="1060" y="250" on="1"/>
        <pt x="1060" y="149" on="0"/>
        <pt x="998" y="7" on="0"/>
        <pt x="888" y="-82" on="0"/>
        <pt x="734" y="-123" on="0"/>
        <pt x="643" y="-123" on="1"/>
        <pt x="533" y="-123" on="1"/>
        <pt x="482" y="-123" on="0"/>
        <pt x="386" y="-112" on="0"/>
        <pt x="299" y="-88" on="0"/>
        <pt x="226" y="-50" on="0"/>
        <pt x="198" y="-22" on="1"/>
        <pt x="141" y="27" on="0"/>
        <pt x="69" y="116" on="0"/>
        <pt x="28" y="204" on="0"/>
        <pt x="13" y="297" on="0"/>
        <pt x="13" y="350" on="1"/>
      </contour>
    </TTGlyph>
    <TTGlyph name="Ugrave" xMin="13" yMin="-123" xMax="1060" yMax="940">
      <contour>
        <pt x="559" y="785" on="1"/>
        <pt x="490" y="785" on="1"/>
        <pt x="458" y="808" on="0"/>
        <pt x="395" y="856" on="0"/>
        <pt x="363" y="879" on="1"/>
        <pt x="433" y="879" on="1"/>
      </contour>
      <contour>
        <pt x="473" y="749" on="1"/>
        <pt x="676" y="749" on="1"/>
        <pt x="460" y="915" on="1"/>
        <pt x="252" y="915" on="1"/>
      </contour>
      <contour>
        <pt x="157" y="645" on="1"/>
        <pt x="157" y="350" on="1"/>
        <pt x="157" y="285" on="0"/>
        <pt x="199" y="196" on="0"/>
        <pt x="274" y="141" on="0"/>
        <pt x="374" y="116" on="0"/>
        <pt x="433" y="116" on="1"/>
        <pt x="543" y="116" on="1"/>
        <pt x="601" y="116" on="0"/>
        <pt x="702" y="141" on="0"/>
        <pt x="777" y="196" on="0"/>
        <pt x="820" y="285" on="0"/>
        <pt x="820" y="350" on="1"/>
        <pt x="820" y="645" on="1"/>
        <pt x="883" y="645" on="1"/>
        <pt x="883" y="350" on="1"/>
        <pt x="883" y="269" on="0"/>
        <pt x="831" y="157" on="0"/>
        <pt x="740" y="86" on="0"/>
        <pt x="616" y="55" on="0"/>
        <pt x="543" y="55" on="1"/>
        <pt x="433" y="55" on="1"/>
        <pt x="360" y="55" on="0"/>
        <pt x="235" y="86" on="0"/>
        <pt x="144" y="157" on="0"/>
        <pt x="93" y="269" on="0"/>
        <pt x="93" y="350" on="1"/>
        <pt x="93" y="645" on="1"/>
      </contour>
      <contour>
        <pt x="38" y="350" on="1"/>
        <pt x="38" y="255" on="0"/>
        <pt x="96" y="122" on="0"/>
        <pt x="201" y="38" on="0"/>
        <pt x="346" y="-1" on="0"/>
        <pt x="433" y="-1" on="1"/>
        <pt x="543" y="-1" on="1"/>
        <pt x="630" y="-1" on="0"/>
        <pt x="775" y="38" on="0"/>
        <pt x="880" y="122" on="0"/>
        <pt x="938" y="255" on="0"/>
        <pt x="938" y="350" on="1"/>
        <pt x="938" y="701" on="1"/>
        <pt x="764" y="701" on="1"/>
        <pt x="764" y="350" on="1"/>
        <pt x="764" y="299" on="0"/>
        <pt x="728" y="231" on="0"/>
        <pt x="668" y="190" on="0"/>
        <pt x="588" y="172" on="0"/>
        <pt x="543" y="172" on="1"/>
        <pt x="433" y="172" on="1"/>
        <pt x="388" y="172" on="0"/>
        <pt x="308" y="190" on="0"/>
        <pt x="248" y="232" on="0"/>
        <pt x="213" y="300" on="0"/>
        <pt x="213" y="350" on="1"/>
        <pt x="213" y="701" on="1"/>
        <pt x="38" y="701" on="1"/>
      </contour>
      <contour>
        <pt x="467" y="940" on="1"/>
        <pt x="745" y="726" on="1"/>
        <pt x="963" y="726" on="1"/>
        <pt x="1060" y="623" on="1"/>
        <pt x="1060" y="250" on="1"/>
        <pt x="1060" y="149" on="0"/>
        <pt x="998" y="7" on="0"/>
        <pt x="888" y="-82" on="0"/>
        <pt x="734" y="-123" on="0"/>
        <pt x="643" y="-123" on="1"/>
        <pt x="533" y="-123" on="1"/>
        <pt x="431" y="-123" on="0"/>
        <pt x="254" y="-72" on="0"/>
        <pt x="198" y="-16" on="1"/>
        <pt x="141" y="33" on="0"/>
        <pt x="69" y="120" on="0"/>
        <pt x="28" y="206" on="0"/>
        <pt x="13" y="297" on="0"/>
        <pt x="13" y="350" on="1"/>
        <pt x="13" y="726" on="1"/>
        <pt x="238" y="726" on="1"/>
        <pt x="335" y="623" on="1"/>
        <pt x="335" y="250" on="1"/>
        <pt x="335" y="239" on="0"/>
        <pt x="336" y="219" on="0"/>
        <pt x="338" y="210" on="1"/>
        <pt x="380" y="197" on="0"/>
        <pt x="433" y="197" on="1"/>
        <pt x="543" y="197" on="1"/>
        <pt x="582" y="197" on="0"/>
        <pt x="653" y="212" on="0"/>
        <pt x="707" y="248" on="0"/>
        <pt x="739" y="306" on="0"/>
        <pt x="739" y="350" on="1"/>
        <pt x="739" y="627" on="1"/>
        <pt x="565" y="627" on="1"/>
        <pt x="163" y="940" on="1"/>
      </contour>
    </TTGlyph>
    <TTGlyph name="V" xMin="-58" yMin="-123" xMax="1228" yMax="726">
      <contour>
        <pt x="518" y="55" on="1"/>
        <pt x="412" y="204" on="0"/>
        <pt x="202" y="496" on="0"/>
        <pt x="96" y="645" on="1"/>
        <pt x="176" y="645" on="1"/>
        <pt x="544" y="129" on="1"/>
        <pt x="635" y="258" on="0"/>
        <pt x="814" y="515" on="0"/>
        <pt x="904" y="645" on="1"/>
        <pt x="979" y="645" on="1"/>
        <pt x="566" y="55" on="1"/>
      </contour>
      <contour>
        <pt x="874" y="701" on="1"/>
        <pt x="791" y="581" on="0"/>
        <pt x="627" y="343" on="0"/>
        <pt x="542" y="224" on="1"/>
        <pt x="203" y="701" on="1"/>
        <pt x="-9" y="701" on="1"/>
        <pt x="491" y="-1" on="1"/>
        <pt x="596" y="-1" on="1"/>
        <pt x="1086" y="701" on="1"/>
      </contour>
      <contour>
        <pt x="1228" y="623" on="1"/>
        <pt x="708" y="-123" on="1"/>
        <pt x="579" y="-123" on="1"/>
        <pt x="478" y="-26" on="1"/>
        <pt x="-58" y="726" on="1"/>
        <pt x="236" y="726" on="1"/>
        <pt x="315" y="623" on="1"/>
        <pt x="554" y="284" on="1"/>
        <pt x="585" y="327" on="0"/>
        <pt x="648" y="418" on="0"/>
        <pt x="721" y="523" on="0"/>
        <pt x="807" y="648" on="0"/>
        <pt x="861" y="726" on="1"/>
        <pt x="1133" y="726" on="1"/>
      </contour>
    </TTGlyph>
    <TTGlyph name="W" xMin="-16" yMin="-123" xMax="1325" yMax="726">
      <contour>
        <pt x="375" y="157" on="1"/>
        <pt x="425" y="281" on="0"/>
        <pt x="531" y="522" on="0"/>
        <pt x="582" y="645" on="1"/>
        <pt x="631" y="645" on="1"/>
        <pt x="838" y="158" on="1"/>
        <pt x="889" y="280" on="0"/>
        <pt x="991" y="522" on="0"/>
        <pt x="1041" y="645" on="1"/>
        <pt x="1111" y="645" on="1"/>
        <pt x="1050" y="496" on="0"/>
        <pt x="928" y="204" on="0"/>
        <pt x="867" y="55" on="1"/>
        <pt x="816" y="55" on="1"/>
        <pt x="607" y="543" on="1"/>
        <pt x="396" y="55" on="1"/>
        <pt x="347" y="55" on="1"/>
        <pt x="287" y="204" on="0"/>
        <pt x="165" y="497" on="0"/>
        <pt x="103" y="645" on="1"/>
        <pt x="173" y="645" on="1"/>
      </contour>
      <contour>
        <pt x="311" y="-1" on="1"/>
        <pt x="435" y="-1" on="1"/>
        <pt x="477" y="101" on="0"/>
        <pt x="562" y="300" on="0"/>
        <pt x="606" y="401" on="1"/>
        <pt x="778" y="-1" on="1"/>
        <pt x="903" y="-1" on="1"/>
        <pt x="1193" y="701" on="1"/>
        <pt x="1004" y="701" on="1"/>
        <pt x="963" y="601" on="0"/>
        <pt x="880" y="404" on="0"/>
        <pt x="838" y="304" on="1"/>
        <pt x="668" y="701" on="1"/>
        <pt x="546" y="701" on="1"/>
        <pt x="375" y="302" on="1"/>
        <pt x="209" y="701" on="1"/>
        <pt x="21" y="701" on="1"/>
      </contour>
      <contour>
        <pt x="225" y="726" on="1"/>
        <pt x="323" y="623" on="1"/>
        <pt x="402" y="431" on="1"/>
        <pt x="434" y="505" on="0"/>
        <pt x="498" y="651" on="0"/>
        <pt x="530" y="726" on="1"/>
        <pt x="685" y="726" on="1"/>
        <pt x="783" y="623" on="1"/>
        <pt x="864" y="431" on="1"/>
        <pt x="876" y="459" on="1"/>
        <pt x="882" y="473" on="0"/>
        <pt x="897" y="506" on="0"/>
        <pt x="902" y="520" on="1"/>
        <pt x="924" y="571" on="0"/>
        <pt x="968" y="678" on="0"/>
        <pt x="988" y="726" on="1"/>
        <pt x="1230" y="726" on="1"/>
        <pt x="1325" y="623" on="1"/>
        <pt x="1017" y="-123" on="1"/>
        <pt x="863" y="-123" on="1"/>
        <pt x="761" y="-26" on="1"/>
        <pt x="675" y="174" on="1"/>
        <pt x="643" y="99" on="0"/>
        <pt x="579" y="-50" on="0"/>
        <pt x="549" y="-123" on="1"/>
        <pt x="397" y="-123" on="1"/>
        <pt x="295" y="-26" on="1"/>
        <pt x="-16" y="726" on="1"/>
      </contour>
    </TTGlyph>
</ttFont>
